<?xml version="1.0" encoding="UTF-8" standalone="no"?>
<svg
   width="1300"
   height="700"
   viewBox="-810 0 1300 700"
   version="1.2"
   id="svg205"
   sodipodi:docname="hashmap.svg"
   inkscape:version="1.4 (e7c3feb, 2024-10-09)"
   xmlns:inkscape="http://www.inkscape.org/namespaces/inkscape"
   xmlns:sodipodi="http://sodipodi.sourceforge.net/DTD/sodipodi-0.dtd"
   xmlns="http://www.w3.org/2000/svg"
   xmlns:svg="http://www.w3.org/2000/svg"
   xmlns:rdf="http://www.w3.org/1999/02/22-rdf-syntax-ns#"
   xmlns:cc="http://creativecommons.org/ns#"
   xmlns:dc="http://purl.org/dc/elements/1.1/"><defs
   id="defs205" />
<sodipodi:namedview
   id="namedview205"
   pagecolor="#ffffff"
   bordercolor="#666666"
   borderopacity="1.0"
   inkscape:showpageshadow="2"
   inkscape:pageopacity="0.0"
   inkscape:pagecheckerboard="0"
   inkscape:deskcolor="#d1d1d1"
   inkscape:zoom="0.78333334"
   inkscape:cx="665.10638"
   inkscape:cy="404.68085"
   inkscape:window-width="1920"
   inkscape:window-height="1025"
   inkscape:window-x="0"
   inkscape:window-y="24"
   inkscape:window-maximized="1"
   inkscape:current-layer="svg205" />
<title
   id="title1">Brc hashmap</title>

\n<metadata
   id="metadata206">
  <rdf:RDF>
    <cc:Work
       rdf:about="">
      <dc:title>Brc hashmap</dc:title>
    </cc:Work>
  </rdf:RDF>
</metadata>
<g
   id="g103"
   transform="translate(2.5531915,-17.87234)">
  <g
     id="g1"
     transform="translate(-154.50061,-18.72857)">
    <path
       fill="none"
       stroke="#000000"
       stroke-width="2"
       stroke-linecap="round"
       stroke-linejoin="round"
       d="m -590,158 298.682,-2.773"
       id="path1" />
  </g>
  <g
     id="g2"
     transform="translate(-154.50061,-18.72857)">
    <path
       fill="none"
       stroke="#000000"
       stroke-width="2"
       stroke-linecap="round"
       stroke-linejoin="round"
       d="M -233.705,154.693 595,147"
       id="path2" />
  </g>
  <g
     id="g3"
     transform="translate(-154.50061,-18.72857)">
    <path
       fill="none"
       stroke="#000000"
       stroke-width="2"
       stroke-linecap="round"
       stroke-linejoin="round"
       d="m -588,235 322.092,-3.023"
       id="path3" />
  </g>
  <g
     id="g4"
     transform="translate(-154.50061,-18.72857)">
    <path
       fill="none"
       stroke="#000000"
       stroke-width="2"
       stroke-linecap="round"
       stroke-linejoin="round"
       d="M -204.883,231.404 584,224"
       id="path4" />
  </g>
  <g
     id="g5"
     transform="translate(-154.50061,-18.72857)">
    <path
       fill="none"
       stroke="#000000"
       stroke-width="2"
       stroke-linecap="round"
       stroke-linejoin="round"
       d="m -591.958,164.891 -1.494,-0.762 -1.915,-0.398 -0.409,-0.973 0.353,-0.521 0.348,-2.203 3.2,-4.947 2.125,-4.53 -0.248,0.011 1.17,3.333 0.013,1.699 0.815,3.339 -0.003,5.471 1.322,7.32 0.312,6.609 -0.404,1.137 -0.025,1.315 1.229,4.455 -0.14,1.284 0.565,0.871 0.053,2.314 -0.371,0.506 0.076,2.454 -0.366,1.067 -0.623,6.234 0.331,1.398 0.082,5.696 0.701,1.469 -0.091,0.83 0.471,1.134 -0.096,1.397 0.348,1.139 -0.051,8.002 0.254,0.085 -0.109,2.559 -0.881,2.609 0.12,1.249 -0.451,1.11 0.055,1.85"
       id="path5" />
  </g>
  <g
     id="g6"
     transform="translate(-154.50061,-18.72857)">
    <path
       fill="none"
       stroke="#000000"
       stroke-width="2"
       stroke-linecap="round"
       stroke-linejoin="round"
       d="m 591.696,152.867 -1.774,-2.918 4.779,-6.125 0.959,-2.303 0.032,-3.228 -0.288,-1.182 -0.34,0.524 0.045,5.032 -0.559,1.975 -0.214,4.405 -0.307,1.023 0.29,4.109 -0.384,0.691 -0.04,2.061 -0.986,4.683 0.1,1.264 -0.616,2.954 -0.26,3.591 0.04,1.187 0.931,0.949 1.281,4.209 1.579,3.189 -0.15,4.102 -2.578,11.42 -0.099,2.678 -1.423,2.132 -2.959,3.179 -1.754,2.717 -2.616,5.175 0.258,-0.192 -0.473,1.241 0.069,6.01 0.327,0.824 1.033,0.859 0.818,2.008 -0.138,4.795 0.819,1.71 0.03,2.075 0.011,-0.396 1.834,-0.099 1.604,0.346"
       id="path6" />
  </g>
  <g
     id="g7"
     transform="translate(-154.50061,-18.72857)">
    <path
       fill="none"
       stroke="#000000"
       stroke-width="2"
       stroke-linecap="round"
       stroke-linejoin="round"
       d="m -493.93,164.408 0.562,-2.207 0.831,-1.1 0.003,-0.686 0.478,-0.654 0.445,4.171 -0.35,21.298 -0.519,4.079 0.062,4.427 -0.644,7.746 0.11,6.715 -0.676,7.967 0.089,13.247 0.462,0.386 1.167,-2.045"
       id="path7" />
  </g>
  <g
     id="g8"
     transform="translate(-154.50061,-18.72857)">
    <path
       fill="none"
       stroke="#000000"
       stroke-width="2"
       stroke-linecap="round"
       stroke-linejoin="round"
       d="m -384.232,160.906 -2.274,3.237 -2.654,10.033 -3.084,31.114 0.133,4.22 -0.862,6.28 0.146,4.052 -0.693,3.916 0.143,2.576 0.755,0.811 0.668,-0.869"
       id="path8" />
  </g>
  <g
     id="g9"
     transform="translate(-154.50061,-18.72857)">
    <path
       fill="none"
       stroke="#000000"
       stroke-width="2"
       stroke-linecap="round"
       stroke-linejoin="round"
       d="m -280.295,190.211 -2.109,18.07 0.122,6.345 0.398,0.792 0.872,-1.237 0.993,-2.675"
       id="path9" />
  </g>
  <g
     id="g10"
     transform="translate(-154.50061,-18.72857)">
    <path
       fill="none"
       stroke="#000000"
       stroke-width="2"
       stroke-linecap="round"
       stroke-linejoin="round"
       d="m -166.875,156.689 -1.559,4.345 -0.628,3.144 -5.684,36.279 -0.298,5.505 0.143,22.627 0.209,-0.745"
       id="path10" />
  </g>
  <g
     id="g11"
     transform="translate(-154.50061,-18.72857)">
    <path
       fill="none"
       stroke="#000000"
       stroke-width="2"
       stroke-linecap="round"
       stroke-linejoin="round"
       d="m -42.6736,156.143 -1.5584,4.312 -1.5586,9.872 -0.8625,8.127 -0.8611,2.77 -4.3559,19.516 -0.5354,4.779 0.1341,4.5 0.3341,1.707 0.8007,1.253 0.6066,0.32"
       id="path11" />
  </g>
  <g
     id="g12"
     transform="translate(-154.50061,-18.72857)">
    <path
       fill="none"
       stroke="#000000"
       stroke-width="2"
       stroke-linecap="round"
       stroke-linejoin="round"
       d="m 57.2979,155.859 -1.4698,5.062 -1.1408,6.997 -0.833,20.021 -0.4815,4.78 -1.6316,8.719 -0.2428,2.943 -2.7482,10.662 -2.861,8.231 -1.0358,4.387 0.7104,1.629 1.3079,-0.009 2.9341,-1.302 1.9777,-1.326 1.9328,-2.014"
       id="path12" />
  </g>
  <g
     id="g13"
     transform="translate(-154.50061,-18.72857)">
    <path
       fill="none"
       stroke="#000000"
       stroke-width="2"
       stroke-linecap="round"
       stroke-linejoin="round"
       d="m 186.986,156.005 0.305,2.22 -0.41,3.548 -1.205,4.856 -1.145,8.663 -0.165,4.15 -0.822,2.935 -1.776,10.322 -2.366,8.188 -2.21,12.186 -4.022,12.256 -1.381,3.271 -1.361,4.873 0.073,0.56 1.061,-0.344 0.393,-0.456 3.079,-5.196"
       id="path13" />
  </g>
  <g
     id="g14"
     transform="translate(-154.50061,-18.72857)">
    <path
       fill="none"
       stroke="#000000"
       stroke-width="2"
       stroke-linecap="round"
       stroke-linejoin="round"
       d="m 280.301,162.19 0.71,-4.251 -0.442,-0.386 -0.942,0.056 -1.562,1.502 -0.46,1.605 -0.871,1.287 -1.312,4.016 0.168,1.88 -1.496,12.507 -1.003,4.546 -1.415,12.289 -1.539,6.029 -1.396,7.34 -0.7,7.201 -1.369,9.316 -0.128,1.943 0.483,7.198 1.728,3.775 0.51,0.582 1.572,0.404"
       id="path14" />
  </g>
  <g
     id="g15"
     transform="translate(-154.50061,-18.72857)">
    <path
       fill="none"
       stroke="#000000"
       stroke-width="2"
       stroke-linecap="round"
       stroke-linejoin="round"
       d="m 378.984,151.763 1.455,-3.832 1.215,-1.463 0.82,-0.079 0.259,2.212 -3.724,22.158 -2.308,17.603 -3.449,12.746 -1.564,14.499 0.401,4.134 0.154,0.602 0.872,0.963 2.169,0.717 2.554,-0.365 0.826,-0.394"
       id="path15" />
  </g>
  <g
     id="g16"
     transform="translate(-154.50061,-18.72857)">
    <path
       fill="none"
       stroke="#000000"
       stroke-width="2"
       stroke-linecap="round"
       stroke-linejoin="round"
       d="m 477.228,152.894 -0.779,1.202 -0.917,3.998 -0.51,7.267 -1.643,9.159 -0.308,4.681 -0.962,3.496 -1.761,11.001 -1.202,4.11 -2.843,12.96 0.007,3.779 1.353,1.21 1.504,-0.472 2.346,-3.856"
       id="path16" />
  </g>
  <g
     id="g17"
     transform="translate(-154.50061,-18.72857)">
    <path
       fill="none"
       stroke="#000000"
       stroke-width="2"
       stroke-linecap="round"
       stroke-linejoin="round"
       d="m -546.248,205.23 -0.039,-4.473 0.393,-0.706 -0.093,-0.988 1.059,2.117 -0.064,3.265 0.508,3.82 -0.069,3.776 0.353,2.284 -0.051,7.042 0.349,3.181 -0.057,41.609 -1.433,8.55 -0.73,2.654 -0.012,25.792 -0.901,2.438 -0.835,4.63 0.134,1.979 -0.493,1.669 0.087,1.889 0.966,-1.413"
       id="path17" />
  </g>
  <g
     id="g18"
     transform="translate(-154.50061,-18.72857)">
    <path
       fill="none"
       stroke="#000000"
       stroke-width="2"
       stroke-linecap="round"
       stroke-linejoin="round"
       d="m -568.679,304.325 -0.354,-0.059 2.004,2.92 4.362,8.22 2.629,3.454 2.877,5.3 1.176,1.521 1.266,3.804 1.674,2.115 0.503,2.138 2.703,5.023 1.633,0.314 1.814,-1.937 3.606,-8.967 2.483,-5.222 0.221,-1.221 5.194,-9.702 4.941,-7.818 1.16,-1.034 1.441,-2.327 3.313,-3.213 -0.221,0.173 0.347,-0.765 -0.072,-2.763 0.388,-1.094"
       id="path18" />
  </g>
  <g
     id="g19"
     transform="translate(-154.50061,-18.72857)">
    <path
       fill="none"
       stroke="#000000"
       stroke-width="2"
       stroke-linecap="round"
       stroke-linejoin="round"
       d="m -575.942,101.596 0.564,-2.2465 0.537,-0.7191 -0.248,0.1716 1.195,3.123 1.569,2.34 2,10.331 0.18,19.777 -1.859,-2.519 -0.837,-1.808"
       id="path19" />
  </g>
  <g
     id="g20"
     transform="translate(-154.50061,-18.72857)">
    <path
       fill="none"
       stroke="#000000"
       stroke-width="2"
       stroke-linecap="round"
       stroke-linejoin="round"
       d="m -581.426,104.308 3.273,-3.226 4.451,-2.4352 2.969,-2.9175 2.025,-1.3439 5.768,-2.2588 2.874,-0.419 6.236,-1.5946 2.294,0.1906 1.66,-0.7912"
       id="path20" />
  </g>
  <g
     id="g21"
     transform="translate(-154.50061,-18.72857)">
    <path
       fill="none"
       stroke="#000000"
       stroke-width="2"
       stroke-linecap="round"
       stroke-linejoin="round"
       d="m -579.406,115.49 1.99,-0.766 6.348,-1.351 6.01,0.142 3.7,0.849 2.551,-0.161 2.014,0.319 7.497,-0.041 0.98,-0.534 2.88,-0.052 1.289,-0.658 0.897,0.132"
       id="path21" />
  </g>
  <g
     id="g22"
     transform="translate(-154.50061,-18.72857)">
    <path
       fill="none"
       stroke="#000000"
       stroke-width="2"
       stroke-linecap="round"
       stroke-linejoin="round"
       d="m -576.211,138.564 5.826,-2.323 12.04,-2.749 9.921,0.13 0.993,-0.361"
       id="path22" />
  </g>
  <g
     id="g23"
     transform="translate(-154.50061,-18.72857)">
    <path
       fill="none"
       stroke="#000000"
       stroke-width="2"
       stroke-linecap="round"
       stroke-linejoin="round"
       d="m -539.803,120.117 1.186,2.499 0.623,2.947 0.97,2.437 -0.123,6.563 -0.369,0.559 0.024,0.738 2.287,-4.936 3.883,-5.334 1.676,-1.635 1.723,-0.605 0.891,0.517 1.616,3.404 2.17,6.876 -0.159,3.89 0.564,1.149 -0.028,0.597 0.969,-2.818 0.847,-3.966"
       id="path23" />
  </g>
  <g
     id="g24"
     transform="translate(-154.50061,-18.72857)">
    <path
       fill="none"
       stroke="#000000"
       stroke-width="2"
       stroke-linecap="round"
       stroke-linejoin="round"
       d="m -497.658,79.7947 -1.553,2.0015 -1.982,3.9361 -0.845,4.3013 0.117,8.3838 0.665,6.4166 0.246,6.531 1.25,7.727 0.323,5.461 -0.047,1.283 -0.626,-0.48"
       id="path24" />
  </g>
  <g
     id="g25"
     transform="translate(-154.50061,-18.72857)">
    <path
       fill="none"
       stroke="#000000"
       stroke-width="2"
       stroke-linecap="round"
       stroke-linejoin="round"
       d="m -513.305,116.302 3.281,-0.736 3.845,-1.366 8.031,-0.452 5.571,-1.472"
       id="path25" />
  </g>
  <g
     id="g26"
     transform="translate(-154.50061,-18.72857)">
    <path
       fill="none"
       stroke="#000000"
       stroke-width="2"
       stroke-linecap="round"
       stroke-linejoin="round"
       d="m -484.184,116.868 3.542,13.385 -0.138,4.69 2.901,-6.818 6.366,-12.378 5.746,-6.346 0.898,-0.683 0.977,-0.022"
       id="path26" />
  </g>
  <g
     id="g27"
     transform="translate(-154.50061,-18.72857)">
    <path
       fill="none"
       stroke="#000000"
       stroke-width="2"
       stroke-linecap="round"
       stroke-linejoin="round"
       d="m -463.18,115.014 3.013,7.701 3.974,7.425 2.95,2.263 1.53,-0.604 2.681,-2.268 2.149,-3.556 2.169,-2.803 1.951,-4.424 -1.273,3.342 -0.249,1.484 0.206,2.786 -0.372,1.831 0.052,5.98 -1.757,10.727 -1.604,6.781 -1.283,4.306 -1.439,2.508 0.186,0.34 0.421,-1.205"
       id="path27" />
  </g>
  <g
     id="g28"
     transform="translate(-154.50061,-18.72857)">
    <path
       fill="none"
       stroke="#000000"
       stroke-width="2"
       stroke-linecap="round"
       stroke-linejoin="round"
       d="m -392.905,86.5642 -1.524,2.1387 -2.009,4.1207 -6.67,9.2644 -1.452,2.983 -6.31,7.984 -3.178,3.142 -0.452,0.028 -0.043,1.305 2.814,1.056 10.069,1.939 8.964,2.818 0.989,0.561 3.221,-0.005 2.118,-1.738"
       id="path28" />
  </g>
  <g
     id="g29"
     transform="translate(-154.50061,-18.72857)">
    <path
       fill="none"
       stroke="#000000"
       stroke-width="2"
       stroke-linecap="round"
       stroke-linejoin="round"
       d="m -354.358,70.7924 2.096,10.4321 1.454,10.0963 -0.188,6.814 -1.831,13.4992 -1.445,6.309 0.171,1.771 0.709,-2.586"
       id="path29" />
  </g>
  <g
     id="g30"
     transform="translate(-154.50061,-18.72857)">
    <path
       fill="none"
       stroke="#000000"
       stroke-width="2"
       stroke-linecap="round"
       stroke-linejoin="round"
       d="m -321.571,71.617 -5.456,7.0729 -6.251,6.2074 -6.224,7.3241 -1.944,1.8979 -3.997,2.8532 -2.932,1.0734 0.355,-1.3877 2.621,-0.2232 2.483,1.8809 2.652,2.8191 4.013,6.844 1.74,5.123 2.556,13.383 0.455,4.557 0.323,0.699 0.466,-0.312 1.719,-2.447"
       id="path30" />
  </g>
  <g
     id="g31"
     transform="translate(-154.50061,-18.72857)">
    <path
       fill="none"
       stroke="#000000"
       stroke-width="2"
       stroke-linecap="round"
       stroke-linejoin="round"
       d="m -310.483,120.665 -1.849,5.116 -1.151,10.042 0.082,4.118 0.752,0.757 0.702,-0.627"
       id="path31" />
  </g>
  <g
     id="g32"
     transform="translate(-154.50061,-18.72857)">
    <path
       fill="none"
       stroke="#000000"
       stroke-width="2"
       stroke-linecap="round"
       stroke-linejoin="round"
       d="m -290.172,71.3569 3.257,5.4484 2.892,10.2263 1.468,5.7793 0.207,2.2497 1.01,4.2614 0.787,6.678 1.899,11.387 1.162,4.769 1.463,2.553 0.016,-0.817 0.733,-1.132 1.043,-2.874 0.663,-4.029 2.345,-8.373 2.852,-14.0087 2.78,-10.5205 4.034,-9.8715 1.168,-2.2208 0.355,-6e-4"
       id="path32" />
  </g>
  <g
     id="g33"
     transform="translate(-154.50061,-18.72857)">
    <path
       fill="none"
       stroke="#000000"
       stroke-width="2"
       stroke-linecap="round"
       stroke-linejoin="round"
       d="m -245.11,82.0668 0.491,2.3646 1.183,2.0944 1.323,1.1762 2.433,1.1246 11.295,2.9777 7.407,1.2228 13.599,3.3674 1.857,0.1887 -1.105,2.4829 -1.098,0.3551 -2.496,2.1338 -5.484,3.055 -2.957,2.103 -5.255,2.559 -4.1,2.514 -3.646,1.24 -3.122,1.879 -0.036,-0.21 1.482,-0.532 2.753,-2.741"
       id="path33" />
  </g>
  <g
     id="g34"
     transform="translate(-154.50061,-18.72857)">
    <path
       fill="none"
       stroke="#000000"
       stroke-width="2"
       stroke-linecap="round"
       stroke-linejoin="round"
       d="m -579.592,381.978 1.467,9.832 -0.099,2.237 0.557,6.475 -0.065,10.193 -2.025,20.495 -0.143,11.917 0.41,-1.445"
       id="path34" />
  </g>
  <g
     id="g35"
     transform="translate(-154.50061,-18.72857)">
    <path
       fill="none"
       stroke="#000000"
       stroke-width="2"
       stroke-linecap="round"
       stroke-linejoin="round"
       d="m -579.826,390.313 1.079,-1.855 2.01,-2.155 2.471,-1.223 5.112,-1.372 5.928,0.44 2.59,0.63 9.13,-0.09 2.61,-1.028 0.855,0.09 12.059,-2.586 2.341,-0.245 5.125,-1.303 1.547,-0.279 1.94,0.128 4.107,-0.806 16.579,0.11 3.459,-0.664 5.309,-0.342 2.189,-0.651 4.85,-0.675 19.178,0.085 1.954,-0.543 2.53,-0.204 1.327,-0.492 17.596,0.112 4.859,-0.924 12.714,0.078"
       id="path35" />
  </g>
  <g
     id="g36"
     transform="translate(-154.50061,-18.72857)">
    <path
       fill="none"
       stroke="#000000"
       stroke-width="2"
       stroke-linecap="round"
       stroke-linejoin="round"
       d="m -584.04,426.48 1.921,4.57 1.943,7.533 -0.534,5.124 -2.077,9.934 -0.211,2.841 0.256,6.962 1.192,2.186 1.369,0.645 10.493,-0.054 8.519,-1.697 2.134,0.124 5.206,-0.438 9.421,-1.782 4.338,-0.181 1.977,-0.503 7.168,-0.175 3.61,-0.679 8.697,0.118 18.641,3.793 2.248,-0.119 5.037,0.458 34.838,-0.046 18.914,-3.102 15.946,-0.227"
       id="path36" />
  </g>
  <g
     id="g37"
     transform="translate(-154.50061,-18.72857)">
    <path
       fill="none"
       stroke="#000000"
       stroke-width="2"
       stroke-linecap="round"
       stroke-linejoin="round"
       d="m -406.588,375.182 -2.911,-0.583 -6.458,0.087 -3.924,1.171 -1.801,0.019 -7.502,1.778 -1.574,-0.13 -3.147,0.469 -6.83,2.637"
       id="path37" />
  </g>
  <g
     id="g38"
     transform="translate(-154.50061,-18.72857)">
    <path
       fill="none"
       stroke="#000000"
       stroke-width="2"
       stroke-linecap="round"
       stroke-linejoin="round"
       d="m -556.087,409.313 -0.051,9.113 0.401,3.311 -0.102,16.711 -0.738,3.78 0.173,3.902 -0.346,1.154 0.048,2.631 1.49,-3.312 3.049,-9.048"
       id="path38" />
  </g>
  <g
     id="g39"
     transform="translate(-154.50061,-18.72857)">
    <path
       fill="none"
       stroke="#000000"
       stroke-width="2"
       stroke-linecap="round"
       stroke-linejoin="round"
       d="m -533.892,412.116 -0.791,2.137 -1.934,3.607 -1.674,2.223 -2.836,4.843 -2.127,1.827 -0.21,0.594 -1.179,1.128 -1.657,0.517 -1.857,0.067 0.353,-0.019 0.687,1.966 2.452,2.091 1.702,2.376 2.819,2.785 2.973,5.044 0.703,2.773 2.602,5.008 0.904,-0.154 0.729,-1.12 1.231,-4.992"
       id="path39" />
  </g>
  <g
     id="g40"
     transform="translate(-154.50061,-18.72857)">
    <path
       fill="none"
       stroke="#000000"
       stroke-width="2"
       stroke-linecap="round"
       stroke-linejoin="round"
       d="m -476.229,413.97 -0.074,-2.999 -0.072,0.439 1.701,1.622 0.443,1.122 0.763,0.818 1.669,5.058 2.314,9.136 0.007,4.791 0.642,4.445 1.111,2.85 1.952,3.509 1.471,0.492 0.384,0.997 0.841,-0.05 0.725,-1.437 0.955,-0.855 0.684,-1.807 4.286,-7.94 0.493,-2.617 1.587,-5.067 6.008,-12.95 2.322,-4.626 4.788,-7.073 0.075,-0.466 -0.405,0.519 0.528,-1.003 0.117,-1.88"
       id="path40" />
  </g>
  <g
     id="g41"
     transform="translate(-154.50061,-18.72857)">
    <path
       fill="none"
       stroke="#000000"
       stroke-width="2"
       stroke-linecap="round"
       stroke-linejoin="round"
       d="m -405.456,427.655 -0.223,-0.031 1.841,7.037 1.301,4.018 -0.191,2.444 0.419,0.74 -0.08,3.77 1.962,-1.74 3.675,-7.093 1.346,-1.885 2.396,-2.947 1.458,-0.558 0.571,0.35 1.487,3.058 -0.155,4.367 -0.648,3.086 0.073,4.189 2.255,-2.361"
       id="path41" />
  </g>
  <g
     id="g42"
     transform="translate(-154.50061,-18.72857)">
    <path
       fill="none"
       stroke="#000000"
       stroke-width="2"
       stroke-linecap="round"
       stroke-linejoin="round"
       d="m -378.141,426.784 -1.647,5.716 0.144,7.785 0.382,0.581 1.952,-0.212 2.02,-2.099 0.578,-0.895 0.969,-3.402 0.776,-1.055 -0.055,0.908 3.863,10.973 2.305,2.603 1.726,0.341 1.574,-0.179 0.865,-0.526"
       id="path42" />
  </g>
  <g
     id="g43"
     transform="translate(-154.50061,-18.72857)">
    <path
       fill="none"
       stroke="#000000"
       stroke-width="2"
       stroke-linecap="round"
       stroke-linejoin="round"
       d="m -346.09,398.862 -1.016,1.29 -3.235,8.15 -1.013,6.695 0.291,16.969 0.893,8.912 1.28,2.132 0.974,-1.286"
       id="path43" />
  </g>
  <g
     id="g44"
     transform="translate(-154.50061,-18.72857)">
    <path
       fill="none"
       stroke="#000000"
       stroke-width="2"
       stroke-linecap="round"
       stroke-linejoin="round"
       d="m -333.629,396.606 -1.266,5.98 -1.228,11.801 0.122,7.033 -0.725,7.062 -0.163,14.681 1.59,3.536 0.963,-0.076 2.448,-1.799 2.471,-4.161"
       id="path44" />
  </g>
  <g
     id="g45"
     transform="translate(-154.50061,-18.72857)">
    <path
       fill="none"
       stroke="#000000"
       stroke-width="2"
       stroke-linecap="round"
       stroke-linejoin="round"
       d="m -425.225,379.473 7.159,-1.676 6.469,-0.988 11.639,0.488 14.404,3.023 13.317,-0.134 15.596,-2.087 2.029,0.078 2.734,-0.486 3.571,0.09 4.823,-1.154 4.406,-0.803 1.441,0.08 4.196,-0.944 7.182,0.026 2.208,0.853 0.926,-0.065 1.724,0.578 7.523,-0.111 3.357,-1.028 11.698,-2.202 6.963,-0.013 1.014,-0.529 1.086,0.124 0.375,-0.172 0.41,-1.083"
       id="path45" />
  </g>
  <g
     id="g46"
     transform="translate(-154.50061,-18.72857)">
    <path
       fill="none"
       stroke="#000000"
       stroke-width="2"
       stroke-linecap="round"
       stroke-linejoin="round"
       d="m -429.536,467.908 0.937,0.829 4.408,1.905 4.093,-0.3 4.593,0.106 8.99,1.222 8.004,-0.109 2.872,-0.526 1.839,0.061 4.559,-1.111 7.455,-0.698 8.673,0.021 5.95,1.232 8.657,-0.094 17.333,-4.229 4.664,0.151 3.515,0.602 8.269,-0.049 1.738,-0.535 2.601,-0.051 0.869,-0.327 11.319,0.07 2.146,-0.694 10.52,-0.152 3.166,-1.635 1.429,-3.045 -0.066,-0.906 0.36,-0.426 1.853,-0.823 3.048,0.073 0.482,-0.364 1.373,-2.843 0.9,-2.753 0.67,-4.356 0.867,-10.116 0.248,-6.884 0.948,-9.324 0.211,-6.076 -0.058,-22.499 -0.352,-2.907 -0.063,-9.812 -0.556,-2.849 0.099,-1.584"
       id="path46" />
  </g>
  <g
     id="g47"
     transform="matrix(0.97844392,0,0,1.2006544,-159.54427,-116.29112)">
    <path
       fill="none"
       stroke="#000000"
       stroke-width="2"
       stroke-linecap="round"
       stroke-linejoin="round"
       d="m -230.149,257.602 0.061,5.658 -0.368,2.277 0.073,6.762 -0.359,2.251 0.057,17.101 -1.133,12.34 0.096,3.873 -0.657,7.322 0.04,2.777 -0.953,8.763 0.116,3.691 -0.669,4.363 -0.099,3.386 -1.213,4.536 -0.997,9.009 0.11,50.688 -0.369,1.684 0.1,5.53 -0.375,1.76 0.043,3.305 -0.634,5.769 0.097,5.755 -0.687,5.598 0.083,7.345 0.755,1.883 -0.062,0.826 1.206,4.4 0.39,2.737 0.503,11.122 0.109,24.546 -0.335,1.145 -0.86,-2.204"
       id="path47" />
  </g>
  <g
     id="g48"
     transform="translate(-154.50061,-18.72857)">
    <path
       fill="none"
       stroke="#000000"
       stroke-width="2"
       stroke-linecap="round"
       stroke-linejoin="round"
       d="m -256.836,456.916 3.491,1.76 3.503,5.322 0.813,2.34 1.228,2.287 1.006,3.296 3.501,20.712 -0.081,1.4 0.812,4.304 -0.056,1.295 0.933,2.557 1.304,2.295 1.386,-1.026 1.344,-3.154 2.794,-4.55 4.033,-10.386 5.64,-16.356 3.109,-5.905 1.224,-2.038 0.723,-0.196 0.44,-1.29"
       id="path48" />
  </g>
  <g
     id="g49"
     transform="translate(-154.50061,-18.72857)">
    <path
       fill="none"
       stroke="#000000"
       stroke-width="2"
       stroke-linecap="round"
       stroke-linejoin="round"
       d="m -261.779,530.409 0.232,48.032 -0.369,2.015 0.078,3.922 -0.348,1.149 0.105,3.04 -0.05,-5.275"
       id="path49" />
  </g>
  <g
     id="g50"
     transform="translate(-154.50061,-18.72857)">
    <path
       fill="none"
       stroke="#000000"
       stroke-width="2"
       stroke-linecap="round"
       stroke-linejoin="round"
       d="m -263.06,532.392 0.359,-10.463 -0.374,-0.702 -0.054,-1.826 -0.809,-1.488 0.98,-0.026 3.004,-1.535 1.459,-0.021 1.579,-0.46 3.931,0.065 1.281,0.359 4.97,-0.105 2.295,-0.702 28.81,0.284 3.852,0.648 6.11,0.068 1.382,0.363 9.91,0.052 3.096,0.505 2.263,-0.06 7.337,1.111 2.677,0.045 4.721,0.902 13.004,0.035 3.652,-0.175 10.168,-1.933 2.811,0.16 2.189,-0.526 10.289,0.083 2.01,0.702 4.458,-0.152 11.661,-3.314 5.172,0.088 4.82,1.558 9.9612,-0.142 7.9007,-1.975 1.4908,0.076 6.0157,-0.888 23.6035,0.235 0.6278,0.369 1.0332,-0.026 1.2055,0.635"
       id="path50" />
  </g>
  <g
     id="g51"
     transform="translate(-154.50061,-18.72857)">
    <path
       fill="none"
       stroke="#000000"
       stroke-width="2"
       stroke-linecap="round"
       stroke-linejoin="round"
       d="m -255.968,568.169 -0.743,1.13 -2.259,5.608 -0.485,3.343 -1.709,5.815 0.053,4.921 0.047,-0.266 1.682,1.136 14.243,-0.868 4.696,-0.648 11.182,0.097 5.218,-0.665 5.591,-0.046 14.703,-1.331 8.964,0.074 5.732,0.948 11.77,-0.105 3.33,0.344 3.473,0.799 19.894,-0.178 5.232,-0.823 36.09,0.278 6.106,-1.025 12.4128,0.177 5.4473,1.004 3.9069,0.01 2.0648,0.492 20.56,-0.091 2.0771,-0.356 2.883,0.053 2.9441,-0.681 7.3454,0.136 1.8944,0.894 0.2329,0.595"
       id="path51" />
  </g>
  <g
     id="g52"
     transform="translate(-154.50061,-18.72857)">
    <path
       fill="none"
       stroke="#000000"
       stroke-width="2"
       stroke-linecap="round"
       stroke-linejoin="round"
       d="m -228.574,539.815 0.345,-0.149 0.138,13.406 -1.858,13.126 0.17,4.174 -0.364,2.678 0.242,2.288 1.907,-4.993"
       id="path52" />
  </g>
  <g
     id="g53"
     transform="translate(-154.50061,-18.72857)">
    <path
       fill="none"
       stroke="#000000"
       stroke-width="2"
       stroke-linecap="round"
       stroke-linejoin="round"
       d="m -205.837,539.69 -7.878,10.285 -2.176,1.948 -4.786,2.999 -2.029,0.465 -2.168,-0.056 0.229,0.039 2.355,8.247 3.954,10.099 0.976,1.2 1.484,0.843 2.048,0.501 2.281,-0.091 1.186,-0.373"
       id="path53" />
  </g>
  <g
     id="g54"
     transform="translate(-154.50061,-18.72857)">
    <path
       fill="none"
       stroke="#000000"
       stroke-width="2"
       stroke-linecap="round"
       stroke-linejoin="round"
       d="m -173.095,541.534 3.258,19.188 2.323,9.505 1.015,1.783 -0.08,0.449 1.584,-2.64 3.106,-8.365 2.107,-3.479 2.384,-6.522 3.687,-7.289 2.554,-4.076 2.656,-2.498"
       id="path54" />
  </g>
  <g
     id="g55"
     transform="translate(-154.50061,-18.72857)">
    <path
       fill="none"
       stroke="#000000"
       stroke-width="2"
       stroke-linecap="round"
       stroke-linejoin="round"
       d="m -52.0967,516.756 -0.0542,7.408 0.7621,12.534 -0.0489,11.576 -0.7441,3.701 0.1094,3.104 -1.1272,7.236 -0.6207,9.082 0.0712,3.76 -0.5493,2.782 0.0906,3.108 -0.5139,1.971 -0.285,3.209 -0.6004,1.844 0.1823,1.366 -0.049,-1.22 1.1714,-7.258"
       id="path55" />
  </g>
  <g
     id="g56"
     transform="translate(-154.50061,-18.72857)">
    <path
       fill="none"
       stroke="#000000"
       stroke-width="2"
       stroke-linecap="round"
       stroke-linejoin="round"
       d="m -100.629,554.501 1.7596,0.698 2.1121,0.337 5.9179,-1.27 10.2621,-0.045 2.5005,-0.724 14.8986,-1.711 22.5995,0.043 2.6055,0.332 2.9211,0.818 1.1571,-0.119 3.5017,0.912 20.85326,0.027 5.93305,-1.341 1.42718,0.099 -0.1524,-2.082"
       id="path56" />
  </g>
  <g
     id="g57"
     transform="translate(-154.50061,-18.72857)">
    <path
       fill="none"
       stroke="#000000"
       stroke-width="2"
       stroke-linecap="round"
       stroke-linejoin="round"
       d="m -10.4967,541.404 4.44226,2.207 6.763546,1.225 8.099854,-0.227 2.90104,-0.836 1.3787,0.131 1.7417,-0.808 1.2536,0.138 0.5603,-0.32 1.675,0.047 0.4268,1.168 -0.0404,1.111 -0.8928,1.359 -2.632,2.424 -3.7751,2.579 -5.16367,5.141 -0.56299,0.143 -1.11987,1.218 -1.05274,1.846 -2.1142,1.913 -0.34912,0.915 -2.60669,2.854 -0.86871,3.183 -1.06738,2.047 -0.11841,-2.34 0.99341,-2.253"
       id="path57" />
  </g>
  <g
     id="g58"
     transform="translate(-154.50061,-18.72857)">
    <path
       fill="none"
       stroke="#000000"
       stroke-width="2"
       stroke-linecap="round"
       stroke-linejoin="round"
       d="m 23.9657,516.034 -4.6802,1.726 -1.2182,2.206 0.2472,1.573 -0.0578,5.469 0.7145,4.123 0.4728,7.681 1.0712,7.375 -0.2303,27.318 0.9687,-2.406 2.066,-10.006"
       id="path58" />
  </g>
  <g
     id="g59"
     transform="translate(-154.50061,-18.72857)">
    <path
       fill="none"
       stroke="#000000"
       stroke-width="2"
       stroke-linecap="round"
       stroke-linejoin="round"
       d="m 18.0739,552.705 -1.959,10.061 0.0498,1.194 -0.5973,3.022 -0.192,5.417 -0.3824,0.758 0.0868,3.919 0.3813,0.473 0.5194,5.118 -0.0395,14.347 1.3238,-3.093"
       id="path59" />
  </g>
  <g
     id="g60"
     transform="translate(-154.50061,-18.72857)">
    <path
       fill="none"
       stroke="#000000"
       stroke-width="2"
       stroke-linecap="round"
       stroke-linejoin="round"
       d="m 19.0059,588.172 0.092,0.198 0.9291,-0.807 0.8594,-0.246 6.0411,-1.242 10.0225,0.108 4.0411,-0.364 16.383,-2.449 15.6271,-2.817 15.7884,0.14 1.2235,0.351 3.154,-0.048 3.3134,-0.211 3.5895,-0.817 2.362,0.118 4.538,-0.797 21.921,-0.01 1.001,0.357 7.755,-0.069 1.194,0.366 2.435,-0.058 7.503,1.644 1.803,-0.1 3.849,1.14 3.95,0.443 2.552,-0.069 1.614,0.713 1.754,-0.12 1.501,0.491 2.56,-0.104 1.292,0.37 18.674,-0.072 3.681,-0.875 2.858,-0.2 7.708,-1.297 3.573,0.149 2.945,-0.726 14.873,0.134"
       id="path60" />
  </g>
  <g
     id="g61"
     transform="translate(-154.50061,-18.72857)">
    <path
       fill="none"
       stroke="#000000"
       stroke-width="2"
       stroke-linecap="round"
       stroke-linejoin="round"
       d="m 22.9529,505.068 -3.3131,0.73 -1.8664,1.956 -1.9606,0.792 3.837,1.685 1.0272,-0.055 1.6591,-0.776 2.4738,-0.551 19.1752,-3.07 5.8426,0.014 5.899,0.636 11.3825,-0.078 23.8845,-3.093 12.3653,0.126 4.985,1.04 1.338,-0.089 3.99,0.731 13.53,-0.128 4.355,-1.027 1.435,0.089 5.29,-0.897 1.805,0.068 2.515,-0.431 23.018,0.226 2.343,-0.886 1.255,0.134 4.649,-1.322 3.566,0.103 3.29,1.567 8.063,-0.348 10.358,0.055 7.395,-1.686 4.827,0.132 2.215,1.046 2.293,0.214 0.581,0.503 1.924,0.075 4.894,1.802 11.472,0.012 0.248,0.182 -0.613,0.813 -2.475,6.212 -1.338,2.433 -0.866,4.928 0.108,9.706 1.049,4.44 -0.132,1.548 0.95,2.984 0.025,12.668 -1.307,4.077 0.123,1.151 -0.661,1.759 0.08,1.295 -5.625,16.348 -1.446,5.779 -1.452,3.051 0.084,0.439 0.274,-0.174 1.669,-2.346"
       id="path61" />
  </g>
  <g
     id="g62"
     transform="translate(-154.50061,-18.72857)">
    <path
       fill="none"
       stroke="#000000"
       stroke-width="2"
       stroke-linecap="round"
       stroke-linejoin="round"
       d="m 51.7837,529.029 0.3798,-0.235 0.0238,-0.966 0.702,-1.654 -0.1158,-0.531 -0.095,0.234 0.0749,7.004 0.3544,2.612 0.0729,9.752 -1.8741,11.044 -1.1663,4.937 -0.5685,0.784 0.7629,-2.011 1.8389,-8.504"
       id="path62" />
  </g>
  <g
     id="g63"
     transform="translate(-154.50061,-18.72857)">
    <path
       fill="none"
       stroke="#000000"
       stroke-width="2"
       stroke-linecap="round"
       stroke-linejoin="round"
       d="m 62.1139,534.42 2.6572,-1.852 2.4533,-0.462 0.5354,-0.471 -0.2134,1.47 -1.0537,1.965 -0.9721,0.815 -0.9369,1.418 -1.4019,3.044 -1.4146,2.002 -1.8697,3.586 -1.9209,2.621 -2.6261,2.407 0.3538,0.064 0.1919,0.965 1.9067,3.191 0.6528,1.739 1.235,1.663 4.3424,7.744 1.185,0.442 1.172,-0.037"
       id="path63" />
  </g>
  <g
     id="g64"
     transform="translate(-154.50061,-18.72857)">
    <path
       fill="none"
       stroke="#000000"
       stroke-width="2"
       stroke-linecap="round"
       stroke-linejoin="round"
       d="m 97.8643,536.309 2.7577,5.744 0.748,3.823 2.088,6.665 -0.135,6.729 -0.377,0.934 1.775,-1.577 1.471,-2.519 4.525,-10.62 2.465,-4.667 2.741,-6.494 3.059,-4.437 2.416,-2.22 0.792,-0.216 0.468,0.287"
       id="path64" />
  </g>
  <g
     id="g65"
     transform="translate(-154.50061,-18.72857)">
    <path
       fill="none"
       stroke="#000000"
       stroke-width="2"
       stroke-linecap="round"
       stroke-linejoin="round"
       d="m 134.825,544.504 1.24,2.92 1.873,7.146 -0.015,4.26 0.671,3.287 3.226,-3.088 1.392,-1.863 1.629,-4.104 0.692,-1.03 0.264,1.315 1.561,2.811 -0.182,2.685 0.503,4.796 0.34,1.007 0.855,-0.018 0.436,-0.385"
       id="path65" />
  </g>
  <g
     id="g66"
     transform="translate(-154.50061,-18.72857)">
    <path
       fill="none"
       stroke="#000000"
       stroke-width="2"
       stroke-linecap="round"
       stroke-linejoin="round"
       d="m 158.311,546.2 -1.495,3.813 0.311,4.309 0.697,1.93 0.369,2.554 2.058,4.401 0.167,0.138 1.373,-1.351 4.496,-10.125 0.612,-2.469 0.747,-0.985 0.387,2.352 -0.115,3.035 -0.364,1.137 0.1,10.324 0.575,0.615 0.101,0.624 0.846,-0.602 1.009,-1.262 1.832,-4.092"
       id="path66" />
  </g>
  <g
     id="g67"
     transform="translate(-154.50061,-18.72857)">
    <path
       fill="none"
       stroke="#000000"
       stroke-width="2"
       stroke-linecap="round"
       stroke-linejoin="round"
       d="m 179.882,530.395 1.284,7.949 -1.143,7.627 -1.19,13.41 -0.249,3.522 0.262,7.978 0.894,0.798 0.715,-0.141 2.436,-4.065 5.945,-14.883 3.621,-6.7 3.41,-7.994 2.153,-3.659 1.637,-3.683 0.492,-3.211 0.623,-1.207 -1.542,2.232 -0.984,2.343 -2.266,9.553 -0.863,10.332 0.264,11.453 0.547,3.029 1.021,2.317 0.623,0.934 1.322,0.614 1.896,-0.454 1.649,-0.81 4.424,-3.549"
       id="path67" />
  </g>
  <g
     id="g68"
     transform="translate(-154.50061,-18.72857)">
    <path
       fill="none"
       stroke="#000000"
       stroke-width="2"
       stroke-linecap="round"
       stroke-linejoin="round"
       d="m -302.109,150.494 -2.87,6.735 0.175,0.958 -1.526,1.32 -0.297,1.088 0.238,-0.456 1.211,0.624 10.438,-0.101 3.901,1.829 1.175,0.383 0.884,-0.081 0.84,0.486 5.852,-0.263 5.737,-1.914 12.07,0.299 1.867,-0.044 2.512,-0.869 11.243,0.034 1.805,-0.881 1.258,-0.005 1.334,-0.651 8.621,-0.016 4.315,-1.827 1.858,0.003 2.821,1.44"
       id="path68" />
  </g>
  <g
     id="g69"
     transform="translate(-154.50061,-18.72857)">
    <path
       fill="none"
       stroke="#000000"
       stroke-width="2"
       stroke-linecap="round"
       stroke-linejoin="round"
       d="m -283.223,170.22 -0.06,20.437 -0.366,2.099 0.056,4.517 -0.518,3.5 0.105,20.273 -0.366,0.527 0.088,2.121 -0.697,1.577 -0.166,3.81"
       id="path69" />
  </g>
  <g
     id="g70"
     transform="translate(-154.50061,-18.72857)">
    <path
       fill="none"
       stroke="#000000"
       stroke-width="2"
       stroke-linecap="round"
       stroke-linejoin="round"
       d="m -277.228,234.998 4.395,-1.154 1.99,0.227 1.744,0.969 2.332,0.768 2.6,-0.112 0.868,0.389 3.779,-0.276 8.451,0.049 3.093,-0.975 5.393,-0.017 2.617,0.503 6.323,-0.072 1.326,-0.89 2.639,-0.59 4.219,0.065 1.266,0.695 6.357,-0.127 2.179,-0.701 1.6,0.163 3.986,-0.623 5.584,-0.111"
       id="path70" />
  </g>
  <g
     id="g71"
     transform="translate(-154.50061,-18.72857)">
    <path
       fill="none"
       stroke="#74d2e8"
       stroke-width="2"
       stroke-linecap="round"
       stroke-linejoin="round"
       d="m -538.609,652.893 0.001,-6.064 1.342,-8.138 1.403,-13.433 0.02,-50.163 2.307,-16.11 2.179,-21.372 -0.178,-9.61 -0.524,-3.464 -0.935,-5.082 -1.738,-1.858 -1.267,-2.414 0.161,-4.197"
       id="path71" />
  </g>
  <g
     id="g72"
     transform="translate(-154.50061,-18.72857)">
    <path
       fill="none"
       stroke="#74d2e8"
       stroke-width="2"
       stroke-linecap="round"
       stroke-linejoin="round"
       d="m -531.432,490.403 -3.656,1.526 -4.089,5.739 -0.977,2.346 -0.776,3.899 -1.413,4.148 -1.647,7.593 -7.065,21.456 -2.616,4.102 -0.754,2.135 -2.427,4.223 -1.426,1.93 -3.21,3.027 -0.031,-0.312 -0.485,1.456 0.283,-0.877 2.583,-2.381 2.989,-4.262 4.097,-8.949 4.197,-7.533 3.268,-6.807 1.334,-1.988 1.023,-2.629 2.938,-5.422 1.406,-3.666 1.892,-2.967 5.068,-14.865 4.742,-9.551 1.099,4.014 1.255,8.557 1.335,4.93 3.606,17.116 1.192,7.502 0.956,8.897 1.597,9.065 0.74,2.714 1.443,2.853 -0.136,0.194"
       id="path72" />
  </g>
  <g
     id="g73"
     transform="translate(-154.50061,-18.72857)">
    <path
       fill="none"
       stroke="#74d2e8"
       stroke-width="2"
       stroke-linecap="round"
       stroke-linejoin="round"
       d="m -530.994,487.711 -1.198,3.652 -0.503,4.013 0.221,9.132 1.156,10.629 0.135,10.628 0.523,5.778 0.009,15.607 -1.307,17.047 -1.287,8.766 -0.228,4.095 -5.076,30.905 0.105,2.738 0.579,-2.501 1.716,-11.285"
       id="path73" />
  </g>
  <g
     id="g74"
     transform="translate(-154.50061,-18.72857)">
    <path
       fill="none"
       stroke="#74d2e8"
       stroke-width="2"
       stroke-linecap="round"
       stroke-linejoin="round"
       d="m -530.799,505.086 -0.124,6.906 -0.888,7.528 0.21,14.958 -0.887,21.879 0.119,12.71 -1.605,32.318 -1.009,6.434 -2.284,23.389 -2.07,14.354 0.225,2.65 0.696,-4.038 0.748,-9.511 2.004,-13.021 2.143,-18.246 3.763,-53.616 -0.14,-12.749 0.15,41.124 -2.028,33.845 -1.322,8.845 -0.68,11.457 -1.511,4.736 -0.66,3.941 0.146,1.544 1.012,-10.986 1.975,-40.546 -0.141,-13.412 -1.197,-20.682 -1.439,-11.852 -0.209,-5.108 0.186,-4.431 2.077,-14.677 0.003,-2.206 0.15,14.41 0.579,7.351 -0.177,22.079 -1.152,21.872 -1.353,9.475 -3.775,37.146 -0.406,7.774 0.061,7.693 0.371,0.432 0.81,-4.08 0.843,-11.8 1.496,-9.529 1.414,-13.81 1.584,-36.301 0.296,-42.934 0.55,-4.546 0.021,-11.023 0.192,-0.638 0.839,5.77 0.18,31.61 -0.43,12.225 -0.937,18.187 -1.12,12.248 -2.634,23.199 -2.31,15.023 -0.542,4.653 0.141,1.128 0.988,-15.118 0.832,-5.954"
       id="path74" />
  </g>
  <g
     id="g75"
     transform="translate(-154.50061,-18.72857)">
    <path
       fill="none"
       stroke="#74d2e8"
       stroke-width="2"
       stroke-linecap="round"
       stroke-linejoin="round"
       d="m -569.563,550.711 -4.902,4.671 -1.143,2.04 -1.471,1.22 -0.27,0.607 0.149,0.456 1.456,0.004 1.504,-0.931 0.902,-1.022 4.764,-8.499 3.777,-5.616 2.886,-6.093 2.125,-3.671 7.263,-11.286 3.785,-5.225 3.285,-6.422 1.594,-4.272 1.196,-4.37 0.91,-1.186 1.697,-5.187 2.475,-5.154 1.317,-1.209 0.664,-1.944 3.16,-5.624 1.403,3.698 1.71,9.244 1.626,4.374 3.154,11.715 0.857,5.83 0.649,1.98 0.542,3.96 0.646,1.817 0.623,4.548 0.654,2.476 2.698,8.008 3.008,5.263 1.671,1.415"
       id="path75" />
  </g>
  <g
     id="g76"
     transform="translate(-154.50061,-18.72857)">
    <path
       fill="none"
       stroke="#74d2e8"
       stroke-width="2"
       stroke-linecap="round"
       stroke-linejoin="round"
       d="m -508.011,636.479 0.107,0.182 0.925,-1.136 1.623,-1.179 2.549,-1.542 3.472,-0.965 1.724,0.118 1.706,1.027 1.468,0.405 0.377,1.72 0.706,1.16 -0.141,0.713 -0.64,0.827 -0.491,1.438 -1.61,1.748 -2.199,4.623 -3.331,3.761 0.421,-0.164 4.028,2.154 3.036,1.277 0.811,-0.15 2.65,1.181 1.352,2.925 -0.151,2.836 -0.979,1.841 -2.06,6 -1.144,2.27 -2.865,1.369 -0.49,0.973 0.092,0.462 -0.794,-0.026 -1.795,1.05 -3.164,-0.173 -3.931,-1.43 -3.43,-2.234 -0.917,-1.947 -0.333,-1.963 0.12,-1.415"
       id="path76" />
  </g>
  <g
     id="g77"
     transform="translate(-154.50061,-18.72857)">
    <path
       fill="none"
       stroke="#74d2e8"
       stroke-width="2"
       stroke-linecap="round"
       stroke-linejoin="round"
       d="m -460.722,638.729 -1.987,-1.323 -1.283,-1.566 -1.226,-0.288 -1.331,-0.777 -2.295,0.521 -1.645,1.43 -1.578,2.811 -1.123,1.126 -2.664,5.359 -0.241,1.205 0.093,10.904 2.92,5.48 0.934,0.223 1.716,1.656 7.477,3.408 3.193,-0.891 1.066,-0.591 1.642,-1.855 3.503,-5.155 2.029,-4.128 0.875,-2.211 0.825,-5.817 1.212,-5.402 -0.169,-2.14 -1.311,-4.528 -3.875,-4.066 -1.743,-0.681 -1.594,-0.44 -4.719,0.108 -0.613,0.371 -0.697,-0.065"
       id="path77" />
  </g>
  <g
     id="g78"
     transform="translate(-154.50061,-18.72857)">
    <path
       fill="none"
       stroke="#74d2e8"
       stroke-width="2"
       stroke-linecap="round"
       stroke-linejoin="round"
       d="m -439.937,627.96 0.339,2.193 -0.036,10.064 -0.709,2.852 0.134,1.897 -0.889,2.717 0.068,1.176 -0.731,3.356 0.098,4.925 1.256,-0.346 2.087,-2.23 3.954,-5.571 1.385,-1.222 1.744,-0.706 1.882,0.127 0.81,0.504 2.243,4.236 -0.147,4.857 -2.452,8.589 -1.286,2.004 -0.373,1.297 -2.701,2.212 -2.198,0.746 -1.067,-0.143 -0.918,-0.552 -1.449,-1.755 -1.562,-4.046 -0.457,-2.613 0.175,-2.98 0.867,-2.612"
       id="path78" />
  </g>
  <g
     id="g79"
     transform="translate(-154.50061,-18.72857)">
    <path
       fill="none"
       stroke="#74d2e8"
       stroke-width="2"
       stroke-linecap="round"
       stroke-linejoin="round"
       d="m -414.504,651.382 0.899,9.858 -0.119,5.86 -1.701,10.269 -2.868,9.723 -0.87,4.923 -0.975,2.905 0.979,-7.214"
       id="path79" />
  </g>
  <g
     id="g80"
     transform="translate(-154.50061,-18.72857)">
    <path
       fill="none"
       stroke="#74d2e8"
       stroke-width="2"
       stroke-linecap="round"
       stroke-linejoin="round"
       d="m -412.019,626.112 -0.093,1.884 0.409,1.659"
       id="path80" />
  </g>
  <g
     id="g81"
     transform="translate(-154.50061,-18.72857)">
    <path
       fill="none"
       stroke="#74d2e8"
       stroke-width="2"
       stroke-linecap="round"
       stroke-linejoin="round"
       d="m -394.108,649.286 -6.51,-1.715 -1.858,0.196 -1.084,0.509 -0.878,1.926 -0.711,2.789 0.164,7.325 0.353,3.078 1.104,4.302 1.316,1.868 0.873,0.646 1.878,0.93 1.887,-0.196 5.105,-2.481"
       id="path81" />
  </g>
  <g
     id="g82"
     transform="translate(-154.50061,-18.72857)">
    <path
       fill="none"
       stroke="#74d2e8"
       stroke-width="2"
       stroke-linecap="round"
       stroke-linejoin="round"
       d="m -369.437,650.37 -4.956,-1.545 -1.566,0.216 -3.956,1.744 -2.03,2.483 -0.846,2.928 -0.179,12.844 1.465,5.965 1.315,1.148 0.956,0.472 1.763,-0.208 1.543,-0.776 3.627,-2.83 2.67,-2.627 6.928,-8.333 3.81,-6.174"
       id="path82" />
  </g>
  <g
     id="g83"
     transform="translate(-154.50061,-18.72857)">
    <path
       fill="none"
       stroke="#74d2e8"
       stroke-width="2"
       stroke-linecap="round"
       stroke-linejoin="round"
       d="m -333.598,608.922 -3.506,2.805 -2.54,3.096 -2.745,6.923 -2.353,4.239 -2.89,8.567 -3.126,13.066 -1.294,8.152 -1.91,7.836 0.105,7.066 0.409,0.822 1.067,-4.054 -0.364,-2.887 -1.657,-4.94 -2.296,-4.06 2.644,0.067 2.967,0.659 6.066,-0.135 6.513,-1.401 4.501,-1.846 5.31,-3.919 2.103,-2.507 2.015,-4.077 -0.122,-0.329 -0.133,0.188 -1.049,-0.467 -0.974,-0.021 0.159,1.876 1.692,2.11 5.346,5.057 1.434,4.244 2.05,4.633 -0.164,1.08 -1.157,2.293 -2.596,2.533 -0.574,0.206 -3.571,-0.967 -1.791,-1.388 -1.834,-2.271"
       id="path83" />
  </g>
  <g
     id="g84"
     transform="translate(-154.50061,-18.72857)">
    <path
       fill="none"
       stroke="#74d2e8"
       stroke-width="2"
       stroke-linecap="round"
       stroke-linejoin="round"
       d="m -413.758,618.798 -0.084,-0.052"
       id="path84" />
  </g>
  <g
     id="g85"
     transform="translate(-154.50061,-18.72857)">
    <path
       fill="none"
       stroke="#74d2e8"
       stroke-width="2"
       stroke-linecap="round"
       stroke-linejoin="round"
       d="m -276.359,656.499 1.325,0.276 2.973,-0.038 0.708,0.334 4.747,-0.066 2.328,-0.865 9.961,-2.365 2.515,-0.985 1.31,0.186 1.219,-0.22"
       id="path85" />
  </g>
  <g
     id="g86"
     transform="translate(-154.50061,-18.72857)">
    <path
       fill="none"
       stroke="#74d2e8"
       stroke-width="2"
       stroke-linecap="round"
       stroke-linejoin="round"
       d="m -259.593,637.991 -0.932,1.16 -2.451,4.678 -0.642,3.479 -0.889,8.837 -0.924,4.769 0.154,4.989 -0.375,4.998 0.049,7.704 0.979,-1.409 2.729,-5.841 2.089,-3.623"
       id="path86" />
  </g>
  <g
     id="g87"
     transform="translate(-154.50061,-18.72857)">
    <path
       fill="none"
       stroke="#74d2e8"
       stroke-width="2"
       stroke-linecap="round"
       stroke-linejoin="round"
       d="m -218.59,639.96 -0.302,-0.36 -0.354,-2.329 0.703,-3.586 0.914,-1.546 -0.159,-0.223 1.353,3.543 0.082,6.269 0.377,1.684 0.291,5.357 1.101,6.362 -0.16,10.308 -0.709,3.84 0.164,4.192 -0.838,-1.585 -0.387,-1.674 -0.145,-5.148"
       id="path87" />
  </g>
  <g
     id="g88"
     transform="translate(-154.50061,-18.72857)">
    <path
       fill="none"
       stroke="#74d2e8"
       stroke-width="2"
       stroke-linecap="round"
       stroke-linejoin="round"
       d="m -216.416,633.318 2.479,7.742 0.85,4.329 2.133,5.651 2.285,3.668 2.608,2.423 0.598,0.223 1.167,-0.258 1.303,-0.71 1.045,-1.1 2.524,-5.405 3.082,-8.678 1.526,-8.598 1.489,-4.4 0.678,8.608 2.821,23.955 -0.174,5.631 1.003,5.13 0.657,0.712 1.147,-0.831"
       id="path88" />
  </g>
  <g
     id="g89"
     transform="translate(-154.50061,-18.72857)">
    <path
       fill="none"
       stroke="#74d2e8"
       stroke-width="2"
       stroke-linecap="round"
       stroke-linejoin="round"
       d="m -163.838,653.2 -3.324,1.433 -2.484,0.653 -6.096,-0.107 -0.762,2.017 0.193,3.886 1.439,4.716 0.976,1.702 0.615,0.349 0.718,-0.109 0.925,-0.644 1.66,-2.564 1.159,-2.708 1.893,-7.599 -0.179,-2.049 -0.47,1.371 0.088,5.296 1.585,7.182 0.031,2.072 1.288,4.424 1.764,1.277"
       id="path89" />
  </g>
  <g
     id="g90"
     transform="translate(-154.50061,-18.72857)">
    <path
       fill="none"
       stroke="#74d2e8"
       stroke-width="2"
       stroke-linecap="round"
       stroke-linejoin="round"
       d="m -153.539,655.597 2.245,13.889 0.674,2.041 1.58,9.135 1.962,14.883 -0.155,4.206 -0.721,4.058 0.12,2.046 -0.486,1.326 0.104,1.256 -1.039,-3.699 0.147,-25.577 1.609,-13.146 1.305,-3.657 0.992,-1.842 3.912,-5.107 1.364,-1.245 2.133,-0.048 0.905,0.341 1.963,2.185 2.198,6.151 -1.095,3.96 -2.134,5.182 -1.841,2.678 -3.089,3.814 -2.27,2.039 -3.461,1.933 -1.891,-0.059 -0.847,-0.422 -1.716,-1.845 -1.592,-5.653 -0.156,-3.932"
       id="path90" />
  </g>
  <g
     id="g91"
     transform="translate(-154.50061,-18.72857)">
    <path
       fill="none"
       stroke="#74d2e8"
       stroke-width="2"
       stroke-linecap="round"
       stroke-linejoin="round"
       d="m -113.542,655.727 1.838,1.304 2.622,1.194 1.26,0.227 11.0053,-2.561 8.3515,-0.149 0.6204,0.373 1.9443,-0.12 1.6235,-1.01"
       id="path91" />
  </g>
  <g
     id="g92"
     transform="translate(-154.50061,-18.72857)">
    <path
       fill="none"
       stroke="#74d2e8"
       stroke-width="2"
       stroke-linecap="round"
       stroke-linejoin="round"
       d="m -96.4389,638.552 -0.4265,1.171 -0.0179,2.035 0.3149,7.911 0.5084,2.715 -0.1802,8.428 -0.871,4.353 0.0813,1.666 -0.8496,5.931 0.1299,1.534 0.3256,-3.194"
       id="path92" />
  </g>
  <g
     id="g93"
     transform="translate(-154.50061,-18.72857)">
    <path
       fill="none"
       stroke="#74d2e8"
       stroke-width="2"
       stroke-linecap="round"
       stroke-linejoin="round"
       d="m -56.5383,673.666 -0.3402,0.161 0.2888,-0.096 -1.5869,-2.96 0.0498,-2.615 1.8614,-6.9 1.0984,-5.836 4.8775,-18.289 1.5594,-4.85 1.9367,-3.899 1.2192,-4.268 0.6382,-0.783 1.7555,6.608 3.1863,25.026 2.3222,12.636 -0.1857,2.405 -0.3488,0.753 -2.0285,-1.205"
       id="path93" />
  </g>
  <g
     id="g94"
     transform="translate(-154.50061,-18.72857)">
    <path
       fill="none"
       stroke="#74d2e8"
       stroke-width="2"
       stroke-linecap="round"
       stroke-linejoin="round"
       d="m -60.7928,656.576 3.2854,-3.272 2.2092,-1.043 0.9341,-1.193 1.6681,-1.063 5.6399,-1.288 1.3213,0.111 0.7574,0.588 3.2694,0.98 2.4077,2.549"
       id="path94" />
  </g>
  <g
     id="g95"
     transform="translate(-154.50061,-18.72857)">
    <path
       fill="none"
       stroke="#74d2e8"
       stroke-width="2"
       stroke-linecap="round"
       stroke-linejoin="round"
       d="m -29.097,652.815 0.2131,-0.043 -0.4538,1.189 0.0358,2.982 -0.3162,1.052 0.0561,10.362 1.1691,-2.157 1.2283,-3.739 4.8399,-11.702 4.0121,-6.576"
       id="path95" />
  </g>
  <g
     id="g96"
     transform="translate(-154.50061,-18.72857)">
    <path
       fill="none"
       stroke="#74d2e8"
       stroke-width="2"
       stroke-linecap="round"
       stroke-linejoin="round"
       d="m -12.1266,650.818 -0.0467,11.939 0.6504,2.801 -0.0765,0.963 1.3568,-1.445 1.08336,-1.776 4.95575,-11.628 1.86371,-2.932 1.40167,-2.951 2.63672,-2.788 1.2818,-0.094 0.88782,0.276"
       id="path96" />
  </g>
  <g
     id="g97"
     transform="translate(-154.50061,-18.72857)">
    <path
       fill="none"
       stroke="#74d2e8"
       stroke-width="2"
       stroke-linecap="round"
       stroke-linejoin="round"
       d="m 17.5333,655.609 -2.7697,-1.531 -2.4373,-0.557 -1.5266,-0.86 -1.82289,0.168 -1.22394,0.622 -0.39032,1.536 0.05725,3.331 1.02655,2.615 0.17456,1.872 1.53859,2.605 1.4362,-0.874 1.0269,-1.788 2.0115,-6.003 0.4313,-0.554 0.158,1.549 1.0455,2.253 1.1126,4.64 0.6701,1.098 0.9342,3.514 2.3863,3.369 1.4459,0.108 0.5121,-0.517"
       id="path97" />
  </g>
  <g
     id="g98"
     transform="translate(-154.50061,-18.72857)">
    <path
       fill="none"
       stroke="#74d2e8"
       stroke-width="2"
       stroke-linecap="round"
       stroke-linejoin="round"
       d="m 28.4276,660.252 -0.0315,1.267 1.6836,4.909 2.0733,2.027 0.6135,0.262 1.1643,-0.202 2.3252,-0.865 1.305,-0.93 2.9906,-3.128 1.7564,-2.366 1.8497,-4.406 -1.2154,1.697 -0.5451,1.852 0.2807,3.744 -0.0749,15.683 -1.9097,14.095 -2.2717,9.126 0.114,0.472 1.5481,-7.269"
       id="path98" />
  </g>
  <g
     id="g99"
     transform="translate(-154.50061,-18.72857)">
    <path
       fill="none"
       stroke="#74d2e8"
       stroke-width="2"
       stroke-linecap="round"
       stroke-linejoin="round"
       d="m 73.0914,652.212 19.0362,-3.505 5.6569,-1.41 5.1455,0.183 2.909,0.725"
       id="path99" />
  </g>
  <g
     id="g100"
     transform="translate(-154.50061,-18.72857)">
    <path
       fill="none"
       stroke="#74d2e8"
       stroke-width="2"
       stroke-linecap="round"
       stroke-linejoin="round"
       d="m 80.1816,661.954 3.609,-0.205 5.7417,-1.233 2.556,-0.039 5.689,0.068 6.6187,1.544 5.285,-0.353"
       id="path100" />
  </g>
  <g
     id="g101"
     transform="translate(-154.50061,-18.72857)">
    <path
       fill="none"
       stroke="#74d2e8"
       stroke-width="2"
       stroke-linecap="round"
       stroke-linejoin="round"
       d="m 141.035,630.185 -0.276,-1.742 -0.93,-1.832 0.051,0.235 -2.104,0.605 -1.095,3.553 0.106,7.823 2.329,4.107 2.993,-0.87 4.659,0.018 4.071,8.305 0.331,1.964 -0.048,2.542 -0.718,1.112 0.052,0.581 -2.734,5.514 -3.83,4.719 -7.379,5.741 -1.818,-0.28 -1.931,-1.619 -1.468,-2.652 -3.196,-8.756"
       id="path101" />
  </g>
  <g
     id="g102"
     transform="translate(-154.50061,-18.72857)">
    <path
       fill="none"
       stroke="#74d2e8"
       stroke-width="2"
       stroke-linecap="round"
       stroke-linejoin="round"
       d="m 126.994,631.232 2.629,-1.868 4.531,-2.015 11.281,-3.99 4.929,-0.987 3.129,-1.34 7.528,-1.319 7.418,0.127 0.286,-0.95 1.745,-1.861"
       id="path102" />
  </g>
  <path
     style="fill:none;fill-opacity:1;fill-rule:evenodd;stroke:#74d2e8;stroke-width:1.9;stroke-linecap:butt;stroke-linejoin:miter;stroke-dasharray:none;stroke-opacity:1"
     d="m -548.37766,630.55851 c 0.22885,0.21814 0.4326,0.30377 0.71808,0.39893 0.0798,0.0266 0.16414,0.0422 0.23937,0.0798 0.17153,0.0858 0.30718,0.23338 0.47872,0.31915 0.0752,0.0376 0.16206,0.0467 0.23936,0.0798 0.10932,0.0469 0.21277,0.10638 0.31915,0.15957 0.0532,0.0266 0.112,0.0441 0.15957,0.0798 0.0602,0.0451 0.10639,0.10638 0.15958,0.15957 0.0266,0.0266 0.063,0.0462 0.0798,0.0798 0.0119,0.0238 -0.0188,0.061 0,0.0798 0.0188,0.0188 0.061,-0.0188 0.0798,0 0.0188,0.0188 -0.006,0.0538 0,0.0798 0.0476,0.2141 0.10639,0.42554 0.15958,0.6383 0.0266,0.10639 0.0532,0.21277 0.0798,0.31915 0.0266,0.10638 0.0643,0.2106 0.0798,0.31915 0.0113,0.079 -0.0219,0.16264 0,0.23936 0.0327,0.11437 0.12196,0.20631 0.15958,0.31915 0.0168,0.0505 0,0.10638 0,0.15958 0,0.21276 0,0.42553 0,0.63829 0,0.34575 0,0.69149 0,1.03724 0,0.11982 0.0211,0.29321 0,0.39893 -0.0333,0.16656 -0.13908,0.19379 -0.23937,0.31915 -0.0599,0.0749 -0.10383,0.16133 -0.15957,0.23936 -0.0773,0.10821 -0.16207,0.21094 -0.23936,0.31915 -0.0557,0.078 -0.0982,0.1657 -0.15958,0.23936 -0.14447,0.17337 -0.31914,0.31915 -0.47872,0.47873 -0.10638,0.10638 -0.22283,0.20357 -0.31915,0.31915 -0.16133,0.19359 0.003,0.11728 -0.15957,0.23936 -0.0767,0.0575 -0.1657,0.0982 -0.23936,0.15957 -0.0867,0.0722 -0.15958,0.15958 -0.23937,0.23936 -0.10638,0.0798 -0.21531,0.1563 -0.31914,0.23937 -0.0623,0.0498 -0.17822,0.20878 -0.23937,0.23936 -0.0752,0.0376 -0.15957,0.0532 -0.23936,0.0798 -0.0798,0.0266 -0.15777,0.0594 -0.23936,0.0798 -0.13156,0.0329 -0.27028,0.0369 -0.39894,0.0798 -0.19215,0.064 -0.36946,0.16665 -0.55851,0.23936 -0.27141,0.10439 -1.50182,0.4748 -1.51595,0.47872 -0.98791,0.27442 -0.0528,0.008 -0.55851,0.0798 -0.13425,0.0192 -0.264,0.0663 -0.39894,0.0798 -0.13232,0.0132 -0.2663,-0.009 -0.39894,0 -0.24022,0.0172 -0.47778,0.0638 -0.71808,0.0798 -0.15922,0.0106 -0.31915,0 -0.47873,0 -0.31914,0 -0.63829,0 -0.95744,0 -0.11182,0 -0.60986,0.0155 -0.71809,0 -0.0833,-0.0119 -0.1561,-0.0679 -0.23936,-0.0798 -0.10531,-0.015 -0.21383,0.015 -0.31915,0 -0.0833,-0.0119 -0.15567,-0.0714 -0.23936,-0.0798 -0.18525,-0.0185 -0.37234,0 -0.55851,0 -0.13298,0 -0.26596,0 -0.39894,0 -0.49277,0 0.0251,0.0131 -0.71808,-0.0798 -0.0528,-0.007 -0.112,0.0238 -0.15958,0 -0.0238,-0.0119 0.0188,-0.061 0,-0.0798 -0.0188,-0.0188 -0.056,0.0119 -0.0798,0 -0.0858,-0.0429 -0.15958,-0.10639 -0.23937,-0.15958 -0.15957,-0.10638 -0.31914,-0.21276 -0.47872,-0.31915 -0.0798,-0.0532 -0.15359,-0.11669 -0.23936,-0.15957 -0.0238,-0.0119 -0.056,0.0119 -0.0798,0 -0.0336,-0.0168 -0.0532,-0.0532 -0.0798,-0.0798 -0.0266,-0.0266 -0.0589,-0.0485 -0.0798,-0.0798 -0.033,-0.0495 -0.0377,-0.11753 -0.0798,-0.15958 -0.10638,-0.10638 -0.0798,0.13298 -0.0798,-0.0798"
     id="path103" />
  <rect
     style="fill:#ffffff;fill-opacity:1;stroke:#74d2e8;stroke-width:0.0377953;stroke-opacity:1;paint-order:markers stroke fill"
     id="rect103"
     width="10.452127"
     height="33.271275"
     x="-522.68616"
     y="626.7287" />
</g>
<text
   xml:space="preserve"
   style="font-size:113.644px;line-height:125%;font-family:Sans;-inkscape-font-specification:'Sans, Normal';text-align:center;letter-spacing:0px;word-spacing:0px;text-anchor:middle;fill:none;stroke:#000000;stroke-width:1px;stroke-linecap:butt;stroke-linejoin:miter;stroke-opacity:1"
   x="346.59573"
   y="57.446808"
   id="text103"><tspan
     sodipodi:role="line"
     id="tspan103"
     x="346.59573"
     y="57.446808"
     style="font-style:normal;font-variant:normal;font-weight:normal;font-stretch:normal;font-size:53.3333px;font-family:Sans;-inkscape-font-specification:'Sans, Normal';font-variant-ligatures:normal;font-variant-caps:normal;font-variant-numeric:normal;font-variant-east-asian:normal;fill:#000000;fill-opacity:1">HashMap</tspan></text>
</svg>
