<?xml version="1.0" encoding="UTF-8" standalone="no"?>
<svg
   width="1400"
   height="600"
   viewBox="-810 0 1400 600"
   version="1.2"
   id="svg205"
   sodipodi:docname="openhashmap.svg"
   inkscape:version="1.4 (e7c3feb, 2024-10-09)"
   xmlns:inkscape="http://www.inkscape.org/namespaces/inkscape"
   xmlns:sodipodi="http://sodipodi.sourceforge.net/DTD/sodipodi-0.dtd"
   xmlns="http://www.w3.org/2000/svg"
   xmlns:svg="http://www.w3.org/2000/svg"
   xmlns:rdf="http://www.w3.org/1999/02/22-rdf-syntax-ns#"
   xmlns:cc="http://creativecommons.org/ns#"
   xmlns:dc="http://purl.org/dc/elements/1.1/"><defs
   id="defs205" />
<sodipodi:namedview
   id="namedview205"
   pagecolor="#ffffff"
   bordercolor="#666666"
   borderopacity="1.0"
   inkscape:showpageshadow="2"
   inkscape:pageopacity="0.0"
   inkscape:pagecheckerboard="0"
   inkscape:deskcolor="#d1d1d1"
   inkscape:zoom="0.78333333"
   inkscape:cx="704.68085"
   inkscape:cy="365.10638"
   inkscape:window-width="1920"
   inkscape:window-height="1025"
   inkscape:window-x="0"
   inkscape:window-y="24"
   inkscape:window-maximized="1"
   inkscape:current-layer="svg205" />
<title
   id="title1">Brc hashmap</title>
\n<g
   id="g206"
   transform="translate(-107.23405,-814.46809)">
  <g
     id="g103"
     transform="translate(-61.276596,61.276596)">
    <path
       fill="none"
       stroke="#000000"
       stroke-width="2"
       stroke-linecap="round"
       stroke-linejoin="round"
       d="m -573.26,896.566 298.681,-2.772"
       id="path103" />
  </g>
  <g
     id="g104"
     transform="translate(-61.276596,61.276596)">
    <path
       fill="none"
       stroke="#000000"
       stroke-width="2"
       stroke-linecap="round"
       stroke-linejoin="round"
       d="M -216.966,893.259 611.74,885.566"
       id="path104" />
  </g>
  <g
     id="g105"
     transform="translate(-61.276596,61.276596)">
    <path
       fill="none"
       stroke="#000000"
       stroke-width="2"
       stroke-linecap="round"
       stroke-linejoin="round"
       d="m -571.26,973.566 17.855,-0.167"
       id="path105" />
  </g>
  <g
     id="g106"
     transform="translate(-61.276596,61.276596)">
    <path
       fill="none"
       stroke="#000000"
       stroke-width="2"
       stroke-linecap="round"
       stroke-linejoin="round"
       d="m -492.287,972.825 243.119,-2.282"
       id="path106" />
  </g>
  <g
     id="g107"
     transform="translate(-61.276596,61.276596)">
    <path
       fill="none"
       stroke="#000000"
       stroke-width="2"
       stroke-linecap="round"
       stroke-linejoin="round"
       d="m -188.143,969.971 22.534,-0.212"
       id="path107" />
  </g>
  <g
     id="g108"
     transform="translate(-61.276596,61.276596)">
    <path
       fill="none"
       stroke="#000000"
       stroke-width="2"
       stroke-linecap="round"
       stroke-linejoin="round"
       d="M -133.951,969.462 600.74,962.566"
       id="path108" />
  </g>
  <g
     id="g109"
     transform="translate(-61.276596,61.276596)">
    <path
       fill="none"
       stroke="#000000"
       stroke-width="2"
       stroke-linecap="round"
       stroke-linejoin="round"
       d="m -575.218,903.458 -1.494,-0.762 -1.915,-0.398 -0.409,-0.973 0.353,-0.522 0.348,-2.202 3.2,-4.948 2.125,-4.529 -0.249,0.01 1.171,3.333 0.012,1.699 0.816,3.339 -0.003,5.472 1.322,7.319 0.312,6.609 -0.405,1.137 -0.024,1.315 1.228,4.456 -0.139,1.284 0.564,0.87 0.053,2.314 -0.37,0.507 0.076,2.453 -0.366,1.067 -0.624,6.234 0.332,1.399 0.082,5.695 0.701,1.469 -0.091,0.83 0.471,1.135 -0.097,1.396 0.348,1.14 -0.05,8.001 0.253,0.085 -0.108,2.56 -0.881,2.608 0.12,1.249 -0.451,1.11 0.054,1.851"
       id="path109" />
  </g>
  <g
     id="g110"
     transform="translate(-61.276596,61.276596)">
    <path
       fill="none"
       stroke="#000000"
       stroke-width="2"
       stroke-linecap="round"
       stroke-linejoin="round"
       d="m 608.436,891.433 -1.774,-2.917 4.779,-6.126 0.958,-2.302 0.033,-3.229 -0.289,-1.181 -0.339,0.523 0.045,5.032 -0.56,1.976 -0.213,4.405 -0.307,1.022 0.29,4.11 -0.384,0.691 -0.04,2.06 -0.987,4.684 0.101,1.264 -0.617,2.953 -0.259,3.591 0.04,1.187 0.931,0.949 1.28,4.21 1.58,3.188 -0.15,4.102 -2.579,11.42 -0.098,2.678 -1.423,2.132 -2.96,3.179 -1.753,2.717 -2.617,5.176 0.259,-0.192 -0.473,1.241 0.069,6.01 0.326,0.823 1.034,0.859 0.818,2.009 -0.139,4.794 0.819,1.711 0.03,2.075 0.011,-0.396 1.834,-0.1 1.605,0.346"
       id="path110" />
  </g>
  <g
     id="g111"
     transform="translate(-61.276596,61.276596)">
    <path
       fill="none"
       stroke="#000000"
       stroke-width="2"
       stroke-linecap="round"
       stroke-linejoin="round"
       d="m -477.19,902.974 0.562,-2.207 0.831,-1.099 0.002,-0.687 0.479,-0.653 0.445,4.171 -0.35,21.298 -0.519,4.078 0.062,4.427 -0.644,7.747 0.11,6.714 -0.676,7.968 0.089,13.246 0.462,0.387 1.167,-2.046"
       id="path111" />
  </g>
  <g
     id="g112"
     transform="translate(-61.276596,61.276596)">
    <path
       fill="none"
       stroke="#000000"
       stroke-width="2"
       stroke-linecap="round"
       stroke-linejoin="round"
       d="m -367.493,899.472 -2.274,3.238 -2.653,10.032 -3.085,31.114 0.133,4.22 -0.862,6.28 0.147,4.053 -0.693,3.915 0.142,2.576 0.756,0.811 0.668,-0.869"
       id="path112" />
  </g>
  <g
     id="g113"
     transform="translate(-61.276596,61.276596)">
    <path
       fill="none"
       stroke="#000000"
       stroke-width="2"
       stroke-linecap="round"
       stroke-linejoin="round"
       d="m -263.555,928.778 -2.109,18.07 0.122,6.345 0.398,0.791 0.872,-1.236 0.993,-2.675"
       id="path113" />
  </g>
  <g
     id="g114"
     transform="translate(-61.276596,61.276596)">
    <path
       fill="none"
       stroke="#000000"
       stroke-width="2"
       stroke-linecap="round"
       stroke-linejoin="round"
       d="m -150.136,895.256 -1.559,4.344 -0.627,3.144 -5.685,36.28 -0.298,5.504 0.143,22.628 0.209,-0.746"
       id="path114" />
  </g>
  <g
     id="g115"
     transform="translate(-61.276596,61.276596)">
    <path
       fill="none"
       stroke="#000000"
       stroke-width="2"
       stroke-linecap="round"
       stroke-linejoin="round"
       d="m -25.934,894.709 -1.5583,4.312 -1.5587,9.872 -0.8625,8.127 -0.861,2.77 -4.3559,19.517 -0.5354,4.778 0.1341,4.501 0.3341,1.706 0.8007,1.254 0.6066,0.32"
       id="path115" />
  </g>
  <g
     id="g116"
     transform="translate(-61.276596,61.276596)">
    <path
       fill="none"
       stroke="#000000"
       stroke-width="2"
       stroke-linecap="round"
       stroke-linejoin="round"
       d="m 74.0376,894.425 -1.4698,5.062 -1.1408,6.997 -0.833,20.021 -0.4815,4.78 -1.6316,8.72 -0.2429,2.942 -2.7481,10.662 -2.861,8.232 -1.0358,4.387 0.7104,1.629 1.3079,-0.009 2.9341,-1.303 1.9777,-1.326 1.9328,-2.014"
       id="path116" />
  </g>
  <g
     id="g117"
     transform="translate(-61.276596,61.276596)">
    <path
       fill="none"
       stroke="#000000"
       stroke-width="2"
       stroke-linecap="round"
       stroke-linejoin="round"
       d="m 203.726,894.571 0.304,2.22 -0.409,3.548 -1.205,4.857 -1.145,8.662 -0.166,4.15 -0.821,2.935 -1.777,10.323 -2.366,8.187 -2.209,12.186 -4.022,12.257 -1.381,3.271 -1.362,4.872 0.074,0.56 1.06,-0.344 0.394,-0.455 3.079,-5.196"
       id="path117" />
  </g>
  <g
     id="g118"
     transform="translate(-61.276596,61.276596)">
    <path
       fill="none"
       stroke="#000000"
       stroke-width="2"
       stroke-linecap="round"
       stroke-linejoin="round"
       d="m 297.041,900.757 0.709,-4.251 -0.442,-0.387 -0.941,0.056 -1.563,1.502 -0.459,1.606 -0.871,1.286 -1.313,4.016 0.169,1.881 -1.496,12.506 -1.004,4.546 -1.414,12.289 -1.539,6.03 -1.396,7.339 -0.7,7.202 -1.369,9.315 -0.128,1.943 0.483,7.199 1.728,3.775 0.51,0.582 1.572,0.403"
       id="path118" />
  </g>
  <g
     id="g119"
     transform="translate(-61.276596,61.276596)">
    <path
       fill="none"
       stroke="#000000"
       stroke-width="2"
       stroke-linecap="round"
       stroke-linejoin="round"
       d="m 395.724,890.33 1.454,-3.833 1.216,-1.462 0.82,-0.08 0.258,2.213 -3.724,22.157 -2.307,17.603 -3.449,12.747 -1.564,14.498 0.401,4.135 0.154,0.601 0.872,0.963 2.169,0.718 2.554,-0.366 0.826,-0.394"
       id="path119" />
  </g>
  <g
     id="g120"
     transform="translate(-61.276596,61.276596)">
    <path
       fill="none"
       stroke="#000000"
       stroke-width="2"
       stroke-linecap="round"
       stroke-linejoin="round"
       d="m 493.967,891.46 -0.778,1.202 -0.917,3.998 -0.511,7.267 -1.642,9.159 -0.308,4.682 -0.962,3.496 -1.761,11 -1.202,4.111 -2.843,12.96 0.006,3.778 1.353,1.21 1.505,-0.471 2.346,-3.857"
       id="path120" />
  </g>
  <g
     id="g121"
     transform="translate(-61.276596,61.276596)">
    <path
       fill="none"
       stroke="#000000"
       stroke-width="2"
       stroke-linecap="round"
       stroke-linejoin="round"
       d="m -431.477,891.778 -0.826,2.774 -1.439,2.508 0.185,0.34 0.422,-1.205"
       id="path121" />
  </g>
  <g
     id="g122"
     transform="translate(-61.276596,61.276596)">
    <path
       fill="none"
       stroke="#000000"
       stroke-width="2"
       stroke-linecap="round"
       stroke-linejoin="round"
       d="m -285.369,889.061 -2.87,6.735 0.174,0.957 -1.525,1.321 -0.297,1.088 0.238,-0.457 1.211,0.624 10.438,-0.101 3.901,1.83 1.175,0.382 0.883,-0.08 0.84,0.486 5.853,-0.264 5.737,-1.913 12.07,0.299 1.867,-0.044 2.511,-0.87 11.244,0.034 1.804,-0.881 1.258,-0.005 1.335,-0.65 8.62,-0.016 4.316,-1.828 1.857,0.003 2.821,1.44"
       id="path122" />
  </g>
  <g
     id="g123"
     transform="translate(-61.276596,61.276596)">
    <path
       fill="none"
       stroke="#000000"
       stroke-width="2"
       stroke-linecap="round"
       stroke-linejoin="round"
       d="m -266.483,908.786 -0.06,20.437 -0.366,2.099 0.056,4.517 -0.518,3.5 0.104,20.273 -0.365,0.527 0.087,2.121 -0.697,1.578 -0.165,3.809"
       id="path123" />
  </g>
  <g
     id="g124"
     transform="translate(-61.276596,61.276596)">
    <path
       fill="none"
       stroke="#000000"
       stroke-width="2"
       stroke-linecap="round"
       stroke-linejoin="round"
       d="m -260.488,973.565 4.395,-1.154 1.989,0.226 1.744,0.969 2.332,0.768 2.601,-0.112 0.868,0.389 3.778,-0.275 8.451,0.048 3.094,-0.975 5.392,-0.017 2.618,0.503 6.322,-0.072 1.327,-0.889 2.639,-0.59 4.219,0.064 1.266,0.695 6.357,-0.127 2.179,-0.7 1.599,0.163 3.986,-0.624 5.585,-0.111"
       id="path124" />
  </g>
  <g
     id="g125"
     transform="translate(-61.276596,61.276596)">
    <path
       fill="none"
       stroke="#000000"
       stroke-width="2"
       stroke-linecap="round"
       stroke-linejoin="round"
       d="m -561.557,968.849 1.914,-0.898 2.843,-0.616 0.943,-0.517 1.293,0.127 5.648,2.668 0.784,-0.124 2.026,0.616 20.963,-0.08 2.864,-0.652 7.778,-0.046 3.579,1.635 4.254,-0.083 1.866,-0.684 3.447,-0.021 0.527,0.321"
       id="path125" />
  </g>
  <g
     id="g126"
     transform="translate(-61.276596,61.276596)">
    <path
       fill="none"
       stroke="#000000"
       stroke-width="2"
       stroke-linecap="round"
       stroke-linejoin="round"
       d="m -540.332,840.997 1.039,-3.248"
       id="path126" />
  </g>
  <g
     id="g127"
     transform="translate(-61.276596,61.276596)">
    <path
       fill="none"
       stroke="#000000"
       stroke-width="2"
       stroke-linecap="round"
       stroke-linejoin="round"
       d="m -536.231,830.351 -1.746,-0.426 -1.535,0.059 -1.891,1.257 -3.125,1.466 -1.384,1.702 -1.552,3.372 0.025,16.084 2.028,7.07 0.445,0.779 1.91,1.514 0.745,1.183 4.439,2.132 2.92,-0.147 2.628,-1.16 2.486,-2.114 4.389,-6.024 0.872,-0.703 1.785,-2.528 1.286,-3.545 -0.151,-5.082 -2.152,-7.84 -2.444,-3.876 -1.981,-2.328 -4.146,-1.98 -3.473,-1.132 -6.108,0.003 -2.735,1.35 1.689,-1.005"
       id="path127" />
  </g>
  <g
     id="g128"
     transform="translate(-61.276596,61.276596)">
    <path
       fill="none"
       stroke="#000000"
       stroke-width="2"
       stroke-linecap="round"
       stroke-linejoin="round"
       d="m -512.163,813.834 -0.07,4.751 1.257,11.743 0.248,10.007 -0.061,5.613 -0.364,1.41 0.066,2.682 -0.326,1.001 -0.099,3.386 1.694,-1.842 3.077,-6.435 3.207,-3.105 1.729,-0.687 1.444,0.14 3.659,1.763 -0.061,1.736 -1.414,3.945 -0.981,1.816 -5.37,6.732 -3.172,4.913 -0.812,-2.049 0.065,-4.136 1.323,-4.113 1.18,-1.942"
       id="path128" />
  </g>
  <g
     id="g129"
     transform="translate(-61.276596,61.276596)">
    <path
       fill="none"
       stroke="#000000"
       stroke-width="2"
       stroke-linecap="round"
       stroke-linejoin="round"
       d="m -482.362,846.408 -0.301,14.858 -2.035,12.414 -0.713,2.625 0.174,1.254 -0.189,0.425 -0.593,-1.431 0.187,-7.207"
       id="path129" />
  </g>
  <g
     id="g130"
     transform="translate(-61.276596,61.276596)">
    <path
       fill="none"
       stroke="#000000"
       stroke-width="2"
       stroke-linecap="round"
       stroke-linejoin="round"
       d="m -484.196,825.672 -2.097,4.216 1.38,2.232 0.613,0.598 0.815,0.221"
       id="path130" />
  </g>
  <g
     id="g131"
     transform="translate(-61.276596,61.276596)">
    <path
       fill="none"
       stroke="#000000"
       stroke-width="2"
       stroke-linecap="round"
       stroke-linejoin="round"
       d="m -466.645,847.522 3.233,1.063 3.907,-0.265 2.16,-0.687 0.592,0.075 2.715,-1.232 0.775,-1.51 0.183,-1.815 -1.944,-3.277 -1.28,-1.078 -0.437,-0.947 -4.303,-2.026 -2.273,2.385 -0.838,4.269 0.038,12.795 2.028,8.388 1.844,1.059 1.438,-0.17 2.996,-2.884"
       id="path131" />
  </g>
  <g
     id="g132"
     transform="translate(-61.276596,61.276596)">
    <path
       fill="none"
       stroke="#000000"
       stroke-width="2"
       stroke-linecap="round"
       stroke-linejoin="round"
       d="m -422.622,839.62 -13.952,-0.124 -1.626,1.785 -1.267,2.704 -1.441,4.521 0.11,5.154 1.072,2.062 -0.098,0.495 2.011,3.481 1.718,1.332 2.312,-0.196 3.291,-1.522 6.47,-5.114"
       id="path132" />
  </g>
  <g
     id="g133"
     transform="translate(-61.276596,61.276596)">
    <path
       fill="none"
       stroke="#000000"
       stroke-width="2"
       stroke-linecap="round"
       stroke-linejoin="round"
       d="m -394.173,808.179 -1.013,2.162 -1.625,6.16 -1.052,11.56 -0.575,8.149 0.118,5.552 -0.71,6.48 0.108,15.994 0.378,1.574 -0.101,1.332 -0.916,-1.911 -0.829,-3.351 -2.732,-6.302 -2.525,-4.908 0.603,-1.256 0.656,-0.57 4.441,-1.927 2.222,-1.53 2.243,-0.379 3.715,-1.575 5.755,-1.689 7.92,-3.352 4.715,-2.188 0.827,-0.858 0.195,-0.647"
       id="path133" />
  </g>
  <g
     id="g134"
     transform="translate(-61.276596,61.276596)">
    <path
       fill="none"
       stroke="#000000"
       stroke-width="2"
       stroke-linecap="round"
       stroke-linejoin="round"
       d="m -542.207,919.42 -0.017,15.697 0.397,2.008 -0.287,11.403 0.618,-3.672"
       id="path134" />
  </g>
  <g
     id="g135"
     transform="translate(-61.276596,61.276596)">
    <path
       fill="none"
       stroke="#000000"
       stroke-width="2"
       stroke-linecap="round"
       stroke-linejoin="round"
       d="m -512.324,917.641 -6.205,4.307 -1.045,1.166 -7.428,4.806 -2.249,1.03 -2.673,1.946 -2.622,0.645 -2.126,1.179 -0.729,-0.126 0.777,0.241 1.702,2.062 1.553,1.322 6.055,4.233 2.05,2.531 1.844,1.688 5.097,7.587 1.272,3.304 1.441,0.236 1.525,-3.867"
       id="path135" />
  </g>
  <g
     id="g136"
     transform="translate(-61.276596,61.276596)">
    <path
       fill="none"
       stroke="#000000"
       stroke-width="2"
       stroke-linecap="round"
       stroke-linejoin="round"
       d="m -451.161,928.618 0.125,-4.222 2.047,-4.314 3.831,13.279 4.359,10.464 2.654,3.355 1.79,3.966 1.463,2.322 0.654,0.543 1.783,0.232 1.292,-1.288 3.336,-9.475 4.134,-10.38 2.624,-5.561 6.648,-11.111 0.513,0.006 -0.125,0.832 0.927,1.646"
       id="path136" />
  </g>
  <g
     id="g137"
     transform="translate(-61.276596,61.276596)">
    <path
       fill="none"
       stroke="#000000"
       stroke-width="2"
       stroke-linecap="round"
       stroke-linejoin="round"
       d="m -123.251,911.415 2.394,16.525 -0.129,19.196 -0.371,1.852 0.098,5.554 -0.365,1.138 0.977,-1.695 1.143,-4.312"
       id="path137" />
  </g>
  <g
     id="g138"
     transform="translate(-61.276596,61.276596)">
    <path
       fill="none"
       stroke="#000000"
       stroke-width="2"
       stroke-linecap="round"
       stroke-linejoin="round"
       d="m -90.0745,910.878 -3.4061,4.191 -12.5664,12.003 -6.056,3.902 -0.75,0.877 -1.119,0.42 -0.749,-0.143 2.544,1.068 6.068,5.8 6.1283,7.614 0.8023,1.612 3.3806,4.304 0.8964,1.955 1.4469,0.549 0.4842,1.057 1.0908,0.428 1.5108,-0.354"
       id="path138" />
  </g>
  <g
     id="g139"
     transform="translate(-61.276596,61.276596)">
    <path
       fill="none"
       stroke="#000000"
       stroke-width="2"
       stroke-linecap="round"
       stroke-linejoin="round"
       d="m -15.0009,920.029 0.6125,1.207 3.6631,4.395 2.28103,4.373 6.29541,22.277 1.261104,2.582 1.065551,0.932 1.322325,-0.177 1.85974,-2.762 1.99683,-5.211 2.18329,-7.467 3.05382,-7.764 3.7681,-6.599 1.1289,-2.633 2.7506,-4.102 1.1342,-0.929 1.2805,-0.531"
       id="path139" />
  </g>
  <g
     id="g140"
     transform="translate(-61.276596,61.276596)">
    <path
       fill="none"
       stroke="#000000"
       stroke-width="2"
       stroke-linecap="round"
       stroke-linejoin="round"
       d="m 112.88,917.724 1.269,2.913 1.165,9.75 -0.105,3.302 -0.416,2.226 0.035,3.375 -0.798,5.648 0.199,4.641 -0.404,1.319 0.069,0.973 0.188,-0.547"
       id="path140" />
  </g>
  <g
     id="g141"
     transform="translate(-61.276596,61.276596)">
    <path
       fill="none"
       stroke="#000000"
       stroke-width="2"
       stroke-linecap="round"
       stroke-linejoin="round"
       d="m 144.409,906.903 -4.206,5.119 -3.228,5.011 -2.882,3.526 -0.851,1.798 -3.569,4.273 -5.07,3.696 -0.524,0.206 -1.441,-0.235 0.288,-0.752 0.789,-0.631 1.694,-0.547 1.536,0.138 2.485,0.914 2.274,2.122 2.893,4.518 3.306,6.61 0.889,4.588 2.479,7.252 2.145,2.211"
       id="path141" />
  </g>
  <g
     id="g142"
     transform="translate(-61.276596,61.276596)">
    <path
       fill="none"
       stroke="#000000"
       stroke-width="2"
       stroke-linecap="round"
       stroke-linejoin="round"
       d="m 218.866,915.651 1.781,3.081 1.909,4.999 1.239,2.043 7.752,21.715 2.038,3.593 2.898,2.235 1.69,-0.803 0.933,-0.981 0.88,-1.955 2.905,-8.954 7.844,-19.889 4.783,-7.001 2.046,-3.585 1.025,-1.076 0.558,0.241 0.255,2.607"
       id="path142" />
  </g>
  <g
     id="g143"
     transform="translate(-61.276596,61.276596)">
    <path
       fill="none"
       stroke="#000000"
       stroke-width="2"
       stroke-linecap="round"
       stroke-linejoin="round"
       d="m -157.027,882.08 1.403,9.878 0.501,10.514 -0.091,10.013 -2.137,23.285 -0.158,12.206 0.6,-2.173"
       id="path143" />
  </g>
  <g
     id="g144"
     transform="translate(-61.276596,61.276596)">
    <path
       fill="none"
       stroke="#000000"
       stroke-width="2"
       stroke-linecap="round"
       stroke-linejoin="round"
       d="m -153.961,883.379 -1.275,5.722 0.242,4.744 -0.047,22.8 -0.747,7.429 0.06,4.113 -0.722,13.125 -1.207,12.651 0.138,9.978 0.011,-5.112 0.906,-7.816 1.992,-26.744 -0.138,-22.571 0.885,-15.917 0.361,-1.087 0.074,-2.499 0.316,3.341 -0.042,21.771 -4.831,58.946"
       id="path144" />
  </g>
  <g
     id="g145"
     transform="translate(-61.276596,61.276596)">
    <path
       fill="none"
       stroke="#000000"
       stroke-width="2"
       stroke-linecap="round"
       stroke-linejoin="round"
       d="m -157.408,965.974 4.247,-48.095 -0.189,-9.008 0.405,-2.885 0.1,-7.618 0.59,-4.277 0.094,25.776 -1.995,24.745 -1.008,5.721 -0.369,5.251 -1.359,10.213"
       id="path145" />
  </g>
  <g
     id="g146"
     transform="translate(-61.276596,61.276596)">
    <path
       fill="none"
       stroke="#000000"
       stroke-width="2"
       stroke-linecap="round"
       stroke-linejoin="round"
       d="m -156.927,965.917 -0.003,-0.888 0.902,-8.514 -0.189,-22.335 -1.361,-20.343 0.074,-9.1 0.198,-0.41 1.602,9.321 1.528,17.161 -0.181,8.512 -1.555,16.312 -0.988,4.448 -0.577,5.905"
       id="path146" />
  </g>
  <g
     id="g147"
     transform="translate(-61.276596,61.276596)">
    <path
       fill="none"
       stroke="#000000"
       stroke-width="4"
       stroke-linecap="round"
       stroke-linejoin="round"
       d="m -158.662,888.712 0.466,-0.108 -0.159,-4.518 1.938,1.791 1.203,3.91 -1.354,4.237 -0.88,7.745 0.11,5.19 -0.734,4.54 0.128,3.186 -0.658,5.754 0.08,12.676 -0.378,1.535 0.105,4.532 0.364,1.713 1.657,4.28 -0.028,1.726 0.945,1.516 1.231,3.866 0.008,11.929"
       id="path147" />
  </g>
  <g
     id="g148"
     transform="translate(-61.276596,61.276596)">
    <path
       fill="none"
       stroke="#000000"
       stroke-width="4"
       stroke-linecap="round"
       stroke-linejoin="round"
       d="m -136.796,967.389 15.358,0.104 1.738,0.374 9.272,-0.088 2.331,-0.725 6.936,-0.256 1.7559,-0.362 4.6444,0.071 1.1282,0.713 26.9678,-0.148 1.708,0.709 7.2148,1.678 46.42,0.008 4.84131,-0.152 3.81232,-0.528 14.67577,0.113 4.3501,0.164 2.5963,0.513 48.9839,0.16 2.0897,0.354 3.7783,-0.032 3.7678,0.671 4.6066,-0.159 3.1698,0.357 62.938,0.088 8.681,0.788 5.125,-0.111 1.751,0.358 9.94,0.26 1.33,0.33 8.875,0.077 3.543,0.512 10.555,-0.104 1.985,0.382 30.182,0.18 1.977,0.361 4.211,0.113 1.874,0.485 2.351,-0.127 1.671,0.703 6.092,0.605 4.58,-0.027 2.883,-1.275 0.841,0.117 1.771,-0.795 5.037,-0.296 2.53,-0.999 0.377,0.144 1.632,-0.661 2.862,-0.342 0.899,-0.504 1.793,0.115 0.908,-0.336 9.021,-0.373 0.47,-0.147 0.392,-0.98"
       id="path148" />
  </g>
  <g
     id="g149"
     transform="translate(-61.276596,61.276596)">
    <path
       fill="none"
       stroke="#000000"
       stroke-width="4"
       stroke-linecap="round"
       stroke-linejoin="round"
       d="m 294.932,876.652 -0.054,7.529 -0.377,1.829 0.1,4.163 -0.36,1.386 0.053,2.818 -0.722,2.24 10e-4,14.431 1.057,2.505 -0.096,0.842 0.605,1.701 0.172,15.43 -0.547,1.746 0.099,1.702 -0.672,2.087 -0.344,3.461 -1.238,4.27 0.058,0.874 -1.001,1.684 -0.019,1.148 -0.663,1.096 -0.143,2.552 -0.91,1.548 -2.719,11.588 -1.745,5.888 -0.347,3.862 0.057,1.139 0.172,-0.831"
       id="path149" />
  </g>
  <g
     id="g150"
     transform="translate(-61.276596,61.276596)">
    <path
       fill="none"
       stroke="#000000"
       stroke-width="4"
       stroke-linecap="round"
       stroke-linejoin="round"
       d="m -157.156,886.096 -3.466,0.98 -1.599,-0.16 1.59,0.038 3.848,-1.295 4.236,-0.95 1.682,0.12 2.334,-0.669 1.718,0.068 1.018,-0.303 23.593,0.068 6.288,0.655 12.308,-0.078 3.4,0.674 5.5934,-0.154 1.5972,0.217 7.5491,-0.046 7.9672,-0.955 14.2805,-0.076 75.1595,0.046 3.0982,0.371 24.1298,-0.268 125.9931,0.038 13.643,-1.543 3.441,0.112 3.491,-0.48 84.822,0.486 4.86,-0.285 0.95,-0.341 6.227,-0.053 0.574,-0.372 1.976,0.101 0.605,-0.361 3.487,-0.399 2.882,-0.732 3.952,-0.225 2.252,-0.508 3.977,0.087"
       id="path150" />
  </g>
  <g
     id="g151"
     transform="translate(-61.276596,61.276596)">
    <path
       fill="none"
       stroke="#000000"
       stroke-width="4"
       stroke-linecap="round"
       stroke-linejoin="round"
       d="m -152.953,888.205 -0.06,7.583 -0.372,1.116 -0.202,8.395 -0.711,3.434 -0.866,2.135 -0.471,3.551 0.21,2.836 -0.852,5.699 0.363,17.926 1.875,4.776 -0.169,3.381 -0.864,2.107 -0.113,6.986 -0.352,0.458 -0.361,4.78 -0.124,0.578"
       id="path151" />
  </g>
  <g
     id="g152"
     transform="translate(-61.276596,61.276596)">
    <path
       fill="none"
       stroke="#000000"
       stroke-width="4"
       stroke-linecap="round"
       stroke-linejoin="round"
       d="m -136.936,967.3 16.146,-0.091 2.583,0.642"
       id="path152" />
  </g>
  <g
     id="g153"
     transform="translate(-61.276596,61.276596)">
    <path
       fill="none"
       stroke="#000000"
       stroke-width="4"
       stroke-linecap="round"
       stroke-linejoin="round"
       d="m -143.825,966.358 4.793,-0.877 5.162,-1.817 14.779,-2.086 30.6625,-0.278 1.7571,0.368 30.2512,-0.09 2.7799,0.904 5.2509,0.92 3.587,-0.165 3.7417,0.353 15.6909,0.098 21.15282,1.644 4.494812,-0.085 5.000118,0.688 10.89875,0.129 6.3445,0.72 29.7078,-0.137 23.8046,3.803 88.8174,-0.142 1.678,0.362 17.473,0.116 86.083,-0.053 9.729,-1.676"
       id="path153" />
  </g>
  <g
     id="g154"
     transform="translate(-61.276596,61.276596)">
    <path
       fill="none"
       stroke="#000000"
       stroke-width="4"
       stroke-linecap="round"
       stroke-linejoin="round"
       d="m -158.54,964.982 3.341,1.335 2.116,0.315 6.568,-0.502 9.944,-0.037 2.072,0.47 -1.539,0.287 -6.811,-0.061 -2.306,-0.718 -1.777,0.109 -1.717,-0.471 -2.91,0.112 -2.524,-0.511 -3.423,0.068 4.489,0.009 10.547,-1.556 8.883,-0.006 -13.047,3.038 -4.503,0.755 -0.982,-0.082 -2.126,0.65 -0.728,-0.151 1.942,0.352 17.892,-0.045 2.549,0.874 0.785,-0.168 -2.431,0.853 -0.421,0.695 -0.941,0.246 -3.209,-0.653 -3.49,0.075 -5.002,-0.398 2.114,-0.683 7.16,-1.254 6.049,0.003 2.808,0.862"
       id="path154" />
  </g>
  <g
     id="g155"
     transform="translate(-61.276596,61.276596)">
    <path
       fill="none"
       stroke="#000000"
       stroke-width="4"
       stroke-linecap="round"
       stroke-linejoin="round"
       d="m -150.929,965.65 8.352,-1.27 15.656,0.156 10.042,1.829"
       id="path155" />
  </g>
  <g
     id="g156"
     transform="translate(-61.276596,61.276596)">
    <path
       fill="none"
       stroke="#000000"
       stroke-width="4"
       stroke-linecap="round"
       stroke-linejoin="round"
       d="m -130.197,968.477 8.134,-0.117"
       id="path156" />
  </g>
  <g
     id="g157"
     transform="translate(-61.276596,61.276596)">
    <path
       fill="none"
       stroke="#304ae0"
       stroke-width="2"
       stroke-linecap="round"
       stroke-linejoin="round"
       d="m -299.315,1074.34 -3.802,-0.86 -0.563,-0.41 -1.556,0.23 -3.524,2.07 -1.188,1.25 -3.758,1.69 -1.167,1.3 -0.839,0.46 -1.763,1.77 -1.449,2.28 -0.411,1.67 -1.306,2.01 -2.552,8.66 -1.926,9.98 0.133,3.91 1.43,4.27 3.942,5.13 1.294,1.13 2.126,1.13 2.502,0.82 3.148,-0.21 1.167,-0.68 1.762,-4.5 -0.085,-0.87 -1.294,-2.9 -2.134,-2.97 -2.564,-1.81 -5.331,-1.72 -2.64,0.16 2.605,1"
       id="path157" />
  </g>
  <g
     id="g158"
     transform="translate(-61.276596,61.276596)">
    <path
       fill="none"
       stroke="#304ae0"
       stroke-width="2"
       stroke-linecap="round"
       stroke-linejoin="round"
       d="m -291.776,1084.21 -1.658,4.71 -1.814,11.51 0.092,7.17 1.596,3.51 1.028,0.69 1.942,-0.31 9.145,-4.19 3.919,-0.78 2.072,-0.89 1.434,0.18"
       id="path158" />
  </g>
  <g
     id="g159"
     transform="translate(-61.276596,61.276596)">
    <path
       fill="none"
       stroke="#304ae0"
       stroke-width="2"
       stroke-linecap="round"
       stroke-linejoin="round"
       d="m -272.351,1097.61 -1.332,2.1 -2.061,5.28 -0.988,4.48 -0.805,1.59 -1.571,5.69 -0.103,4.56 0.555,0.89 0.658,0.33 1.017,-0.35 0.708,-1.06"
       id="path159" />
  </g>
  <g
     id="g160"
     transform="translate(-61.276596,61.276596)">
    <path
       fill="none"
       stroke="#304ae0"
       stroke-width="2"
       stroke-linecap="round"
       stroke-linejoin="round"
       d="m -251.915,1076.32 -0.794,2.11 -0.373,2.18 0.283,3.41 -0.052,14.81 -1.853,10.24 0.059,1.27 -0.609,1.42 0.095,1.27 3.335,-8.29 3.681,-5.72 1.771,-1.85 1.778,-0.89 2.599,-0.74 0.862,0.05 3.128,2.04 0.97,1.61 0.348,1.49 -0.061,1.78 -0.944,3.23 -3.558,8.72 -6.533,10.45 -2.616,1.91 -0.524,-0.14 -1.152,-1.22 -1.496,-4.48 0.321,-4.04 1.612,-6.66 1.43,-3.02 0.872,-0.61"
       id="path160" />
  </g>
  <g
     id="g161"
     transform="translate(-61.276596,61.276596)">
    <path
       fill="none"
       stroke="#304ae0"
       stroke-width="2"
       stroke-linecap="round"
       stroke-linejoin="round"
       d="m -235.493,1105.22 0.304,-0.03 1.756,10.2 0.622,1.48 2.043,2.48 1.584,-0.1 2.594,-1.56 4.292,-4.31 0.754,-1.25 0.495,-1.78 0.395,1.49 1.029,1.7 0.664,2.23 -0.118,1.27 0.315,1.53 0.107,12.5 -0.904,2.65 -0.392,5.73 -0.694,1.63 0.119,1.72 -0.474,0.83 h -0.6"
       id="path161" />
  </g>
  <g
     id="g162"
     transform="translate(-61.276596,61.276596)">
    <path
       fill="none"
       stroke="#304ae0"
       stroke-width="2"
       stroke-linecap="round"
       stroke-linejoin="round"
       d="m -196.807,1065.55 -0.854,1.31 -0.76,2.74 -2.935,15.73 -1.481,15.85 -1.76,14.66 -0.158,8.71 0.005,-7.09 -0.743,-2.88 0.163,-6.53 1.672,-0.38 1.751,0.44 5.019,-0.11 5.16,-1.52 3.499,-2.17 6.031,-5.71 1.829,-2.87 0.641,-1.83 -0.504,-0.94 -0.04,0.2 -2.692,-0.7 -1.203,0.66 -2.147,2.95 -0.594,1.22 -0.549,3.03 0.097,8.08 0.54,2.31 1.207,2.05 1.615,0.16 5.719,-4.05 4.089,-1.67 1.457,0.16 9.853,5.17 1.74,2.83 0.232,1.85 -3.553,9.48 -1.433,2.83 -2.334,2.21 -0.578,0.25 -0.836,-0.18 -1.436,-2.12 -0.44,-3.68 0.153,-5.46"
       id="path162" />
  </g>
  <g
     id="g163"
     transform="translate(-61.276596,61.276596)">
    <path
       fill="none"
       stroke="#304ae0"
       stroke-width="2"
       stroke-linecap="round"
       stroke-linejoin="round"
       d="m -120.893,1107.88 5.703,-2.45 8.771,-1.91 4.205,0.18 4.3756,1.12 4.1378,1.94 1.8823,0.5 0.935,-0.12"
       id="path163" />
  </g>
  <g
     id="g164"
     transform="translate(-61.276596,61.276596)">
    <path
       fill="none"
       stroke="#304ae0"
       stroke-width="2"
       stroke-linecap="round"
       stroke-linejoin="round"
       d="m -118.332,1115.21 3.612,-0.74 7.488,0.16 9.708,-1.54 12.3182,-0.29"
       id="path164" />
  </g>
  <g
     id="g165"
     transform="translate(-61.276596,61.276596)">
    <path
       fill="none"
       stroke="#304ae0"
       stroke-width="2"
       stroke-linecap="round"
       stroke-linejoin="round"
       d="m -25.0201,1084.21 -3.8431,-2.64 -2.7295,-0.65 -0.8178,0.07 -7.5727,4.77 -1.2628,1.41 -2.0759,3.14 -2.8884,6.44 -0.7734,8.47 0.0574,6.71 1.7235,11.5 0.9886,2.36 1.6783,2.37 3.0141,1.15 3.1035,-0.58 3.5462,-1.91 10.9774,-10.77"
       id="path165" />
  </g>
  <g
     id="g166"
     transform="translate(-61.276596,61.276596)">
    <path
       fill="none"
       stroke="#304ae0"
       stroke-width="2"
       stroke-linecap="round"
       stroke-linejoin="round"
       d="m -5.58685,1084.05 -1.25751,5.45 -1.36279,12.42 0.08746,17.63 0.58435,2.49 0.29486,6 -0.01117,-16.46 -0.70526,-8.18 0.09454,-5.13 1.11701,-9.9 2.13067,-7.18 1.76728,-2.59 1.82898,-1.41 2.18121,-0.49 1.69885,0.64 4.21192,2.95 2.17419,3.54 1.46416,4.32 -0.1452,1.7 -5.86095,11.03 -4.306763,4.86 -5.262937,4.89 -2.77515,1.29 -1.03955,0.94 -0.75873,-0.19 -0.4931,-1.11 0.1037,-1.63 1.13305,-3.31"
       id="path166" />
  </g>
  <g
     id="g167"
     transform="translate(-61.276596,61.276596)">
    <path
       fill="none"
       stroke="#304ae0"
       stroke-width="2"
       stroke-linecap="round"
       stroke-linejoin="round"
       d="m 21.7869,1084.49 -1.5227,4.99 -0.9026,9.91 0.245,11.1 0.5321,1.32 1.255,1.48 0.6734,0.24 1.7321,-0.58 1.6777,-1.23 1.82,-1.96 5.219,-7.86 2.8112,-2.59 2.9018,-6.38 -0.1272,-0.95 -0.1137,0.2 -2.0068,-0.54 -0.8919,4.02 0.1282,9.45 -0.3816,2.04 0.0641,3.82 -0.8659,4.72 0.1714,10.68 0.3396,2.69 0.5366,1.59 0.6916,0.75 1.8877,0.99 1.3786,-0.36 0.8691,-0.94"
       id="path167" />
  </g>
  <g
     id="g168"
     transform="translate(-61.276596,61.276596)">
    <path
       fill="none"
       stroke="#304ae0"
       stroke-width="2"
       stroke-linecap="round"
       stroke-linejoin="round"
       d="m 100.766,1080.12 -3.9709,-0.88 -2.8944,-1.21 -1.7136,-0.15 -3.4992,0.01 -2.6043,1.42 -1.46,1.57 -4.3416,6.56 -0.3019,1.63 -1.0618,2.52 -0.5295,3.36 -1.2875,3.35 -0.8404,6.03 0.1082,7.43 0.5622,1.79 -0.0315,0.91 0.7788,1.39 1.9971,1.42 0.9663,0.24 1.4389,-0.2 6.1419,-1.84 3.5414,-1.85"
       id="path168" />
  </g>
  <g
     id="g169"
     transform="translate(-61.276596,61.276596)">
    <path
       fill="none"
       stroke="#304ae0"
       stroke-width="2"
       stroke-linecap="round"
       stroke-linejoin="round"
       d="m 118.428,1101.26 -9.263,0.01 -0.816,0.37 -2.855,1.45 -1.74,1.87 -1.435,3.94 0.31,5.78 1.832,3.46 0.615,0.31 1.043,-0.18 1.149,-0.75 2.244,-2.51 5.228,-7.3 1.409,-2.71 -1.629,3.08 -0.362,1.6 0.135,1.18 -0.459,1.68 -0.084,8.28 0.61,0.87 1.128,-0.24 1.254,-0.89"
       id="path169" />
  </g>
  <g
     id="g170"
     transform="translate(-61.276596,61.276596)">
    <path
       fill="none"
       stroke="#304ae0"
       stroke-width="2"
       stroke-linecap="round"
       stroke-linejoin="round"
       d="m 143.062,1105.06 -4.918,-1.29 -1.708,0.22 -2.124,0.78 -0.682,-0.09 -2.143,1.02 -1.645,2.13 -1.598,3.28 0.134,8.73 1.068,3.4 0.952,2.54 2.501,2.35 1.425,0.3 1.35,-0.16 2.444,-0.75 2.306,-1.4 6.129,-6.13 1.031,-1.66"
       id="path170" />
  </g>
  <g
     id="g171"
     transform="translate(-61.276596,61.276596)">
    <path
       fill="none"
       stroke="#304ae0"
       stroke-width="2"
       stroke-linecap="round"
       stroke-linejoin="round"
       d="m 160.486,1077.14 -1.884,0.38 -0.924,1.1 -1.695,6.62 -1.315,16.78 -1.649,13.49 0.139,6.63 0.635,0.63 3.285,-6.18 3.826,-5.22 3.001,-2.57 2.71,-3.18 3.898,-1.5 1.35,3.85 -0.184,2.89 -0.889,2.77 -0.472,3.74 0.083,10.31 0.932,0.92 1.144,-1.56"
       id="path171" />
  </g>
  <g
     id="g172"
     transform="translate(-61.276596,61.276596)">
    <path
       fill="none"
       stroke="#304ae0"
       stroke-width="2"
       stroke-linecap="round"
       stroke-linejoin="round"
       d="m 185.39,1108 2.619,-1.85 1.605,-2.12 1.582,-1.23 -0.277,0.21 -2.008,-1.49 -2.443,-1.1 -0.87,0.13 -0.987,0.6 -0.425,1.12 -0.687,0.68 -1.659,5.45 -1.575,8.02 0.185,4.6 1.409,4.22 3.317,1.88 2.931,-0.09 3.524,-1.16 4.62,-2.77"
       id="path172" />
  </g>
  <g
     id="g173"
     transform="translate(-61.276596,61.276596)">
    <path
       fill="none"
       stroke="#304ae0"
       stroke-width="2"
       stroke-linecap="round"
       stroke-linejoin="round"
       d="m 225.092,1073.49 0.686,3.07 -0.165,3.3 -0.882,2.42 -0.181,2.29 -1.174,2.45 -0.538,2.43 0.225,3.36 1.129,5.69 -0.039,10.15 -0.916,3.24 0.963,6.34 0.129,5.24 0.875,1.54 0.154,1.55 2.886,-6.06 1.873,-2.17"
       id="path173" />
  </g>
  <g
     id="g174"
     transform="translate(-61.276596,61.276596)">
    <path
       fill="none"
       stroke="#304ae0"
       stroke-width="2"
       stroke-linecap="round"
       stroke-linejoin="round"
       d="m 245.372,1104.88 1.966,10.13 -0.125,11.38 -0.748,1.74 -0.174,1.64 -0.109,-0.98"
       id="path174" />
  </g>
  <g
     id="g175"
     transform="translate(-61.276596,61.276596)">
    <path
       fill="none"
       stroke="#304ae0"
       stroke-width="2"
       stroke-linecap="round"
       stroke-linejoin="round"
       d="m 248.58,1081.35 0.842,4.95 0.975,2.57"
       id="path175" />
  </g>
  <g
     id="g176"
     transform="translate(-61.276596,61.276596)">
    <path
       fill="none"
       stroke="#304ae0"
       stroke-width="2"
       stroke-linecap="round"
       stroke-linejoin="round"
       d="m 257.176,1111.71 0.388,3.03 1.105,1.5 0.932,0.46 3.57,-1.13 4.812,-3.46 3.158,-1.51 2.716,7.55 -0.079,0.99 0.734,3.22 1.403,2.24 1.094,0.39 0.851,-0.08 0.675,-0.75"
       id="path176" />
  </g>
  <g
     id="g177"
     transform="translate(-61.276596,61.276596)">
    <path
       fill="none"
       stroke="#304ae0"
       stroke-width="2"
       stroke-linecap="round"
       stroke-linejoin="round"
       d="m 293.043,1110.12 5.039,-2.91 2.709,-1.99 3.055,-2.41 2.335,-2.42 3.766,-2.62 0.678,-0.98 1.138,-0.79 -0.783,0.05 -3.236,-1.01 -1.97,0.2 -2.682,1.13 -1.106,1.06 -1.127,0.45 -2.924,3.13 -0.427,1.84 0.157,1.61 -0.344,1.19 -0.001,2.04 -0.868,3.75 0.196,3.78 -0.355,1.51 0.016,3.2 1.615,4.09 2.198,2.02 1.725,-0.13 3.242,-1.3 3.771,-2.6 7.594,-6.23"
       id="path177" />
  </g>
  <g
     id="g178"
     transform="translate(-61.276596,61.276596)">
    <path
       fill="none"
       stroke="#304ae0"
       stroke-width="2"
       stroke-linecap="round"
       stroke-linejoin="round"
       d="m -569.721,992.076 -0.904,1.032 -2.685,5.001 0.079,12.931 -0.553,1.24 0.115,5.5 1.897,4.06 1.628,1.41 1.755,2.19 5.602,4.38 6.677,2.62 9.65,2.78 1.933,1.28 3.819,0.8 5.105,-0.12 4.922,0.29 1.128,0.35 10.196,0.07 3.115,0.35 34.991,-0.06 1.931,0.54 2.31,-0.09 2.663,0.66 43.33,0.02 18.401,0.3 3.545,0.68 2.417,-0.08 5.26,0.77 17.887,0.16 17.002,0.75 14.225,2.06 21.219,2.4 13.076,0.12 21.933,2.42 52.844,0.41 13.207,1.4 4.999,-0.13 5.522,0.69 37.279,-0.13 8.776,0.15 3.59,0.36 21.287,-0.24 8.25,-1.01 3.786,0.15 6.324,-0.64 7.59,-0.23 7.304,0.08 9.598,-0.52 12.151,-1.32 6.5631,-0.04 12.1009,-1.4 11.1552,-0.78 39.0196,-4.24 33.22836,-4.11 7.05174,-2.15 3.06,-0.27 13.0247,-2.37 1.5603,0.12 1.8505,-0.48 1.6844,0.06 0.9925,-0.51 0.8602,0.09 -0.4236,0.15 0.0086,1.06 -0.6627,1.66 0.003,9.11 0.9078,2.11 0.8322,3.76 1.5845,4.52 1.186,1.81 1.3604,0.37 1.3734,-0.06 0.9109,-0.54 2.332,-2.16 1.7279,-2.22 1.3916,-2.09 2.5086,-7.53 3.385,-1.62 0.6937,0.1 1.8468,-0.61 1.1169,0.08 3.2462,-1.16 3.615,-0.8 16.2643,-5.32 9.587,-2.01 9.488,-0.01 4.812,0.83 21.623,0.02 2.629,0.37 16.574,-0.09 4.606,-0.72 2.504,0.05 9.261,-1.02 19.282,-1.23 18.652,-0.18 5.648,-0.7 10.01,0.18 2.905,0.35 7.051,-0.11 30.646,3.39 4.067,0.59 5.336,1.24 6.483,0.53 2.458,0.46 3.328,1.14 7.651,0.64 25.606,3.25 10.731,1.99 2.612,-0.13 3.626,0.49 3.957,-0.07 2.653,0.35 43.451,0.07 13.784,-0.62 6.951,-0.77 43.389,0.13 29.425,-2.82 12.756,-2.55 15.147,-1.35 62.485,0.24 13.54,2.67 41.964,0.01 6.351,-0.8 1.91,0.08 5.142,-1.69 4.583,-0.15 6.179,-1.96 3.617,-0.44 2.475,-1.27 7.387,-0.25 1.452,-0.56 1.756,0.11 1.73,-0.47 1.704,0.07 1.929,-0.7 2.306,0.16 1.718,-0.53 4.049,0.36"
       id="path178" />
  </g>
  <g
     id="g179"
     transform="translate(-61.276596,61.276596)">
    <path
       fill="none"
       stroke="#304ae0"
       stroke-width="2"
       stroke-linecap="round"
       stroke-linejoin="round"
       d="m 628.344,954.749 -4.685,2.797 -1.344,1.617 -0.511,1.157 0.092,0.415 2.816,0.311 0.837,-0.593 0.911,0.021 1.137,-0.578 0.785,-2.185 -1.962,-0.7 0.717,1.808"
       id="path179" />
  </g>
  <g
     id="g180"
     transform="translate(-61.276596,61.276596)">
    <path
       fill="none"
       stroke="#304ae0"
       stroke-width="2"
       stroke-linecap="round"
       stroke-linejoin="round"
       d="m 643.566,956.623 -2.511,-0.908 -1.715,2.514 1.095,1.594 1.584,-0.275 0.78,0.386 2.915,-1.584 0.495,-0.556 3.402,-1.396 0.683,-0.545 0.545,-1.106 -0.081,1.611 0.386,0.216"
       id="path180" />
  </g>
  <g
     id="g181"
     transform="translate(-61.276596,61.276596)">
    <path
       fill="none"
       stroke="#304ae0"
       stroke-width="2"
       stroke-linecap="round"
       stroke-linejoin="round"
       d="m 668.621,953.124 -3.827,-3.128 -0.618,0.032 -0.059,0.468 -1.751,1.504 -0.888,1.904 0.003,1.488 0.531,1.368 1.967,0.998 0.594,-0.034 5.615,-2.496 1.011,-0.129 1.292,-2.886 -1.258,-0.262 -1.811,2.085 -0.711,1.276 -0.514,2.608"
       id="path181" />
  </g>
  <g
     id="g182"
     transform="translate(-61.276596,61.276596)">
    <path
       fill="none"
       stroke="#304ae0"
       stroke-width="2"
       stroke-linecap="round"
       stroke-linejoin="round"
       d="m 662.973,1026.12 -0.057,-2.66 -0.367,-0.38 0.442,0.23 1.128,2.57 2.74,1.85 1.34,0.32 3.014,-0.22 1.917,-0.67 2.201,-0.19 5.595,-2.17 2.989,-0.04 0.33,0.36 0.655,0.04 0.967,-0.62 1.544,0.12 4.76,-2.24 1.596,-1.32 1.581,-0.62 0.323,-1.19 0.973,-1.54 -0.102,-3.1 2.166,-3.82 1.619,-3.94 2.305,-4 1.438,-4.698 -0.163,-3.39 -2.863,-7.026 0.126,-6.518 1.612,-5.529 -0.012,-5.686 -2.188,-6.097 0.9,0.561"
       id="path182" />
  </g>
  <g
     id="g183"
     transform="translate(-61.276596,61.276596)">
    <path
       fill="none"
       stroke="#000000"
       stroke-width="2"
       stroke-linecap="round"
       stroke-linejoin="round"
       d="m -533.036,960.592 0.142,-6.298 0.584,-2.221 0.458,2.056 0.06,26.419 -0.556,1.715 0.147,3.533 -0.386,2.613 0.361,36.331 -0.365,1.69 -0.243,6.86 -0.663,3.45 0.144,4.24 -0.395,2.67 0.078,17.34 -0.364,1.62 0.049,3.43 -0.809,5.22 -0.451,2.07 -1.18,2.7 -1.541,7.65 0.124,2.41 -0.899,2.46 0.143,17.47 -0.369,1.13 -0.196,6.64 -0.361,1.27 0.035,3.39 -0.329,1.33 0.061,17.24 -0.367,0.84 0.053,1.7 -0.671,2.1 0.081,1.28 -1.005,2.88 0.141,1.2 -1.443,3.8 -0.084,4.08 -0.407,1.24 0.091,4.72 0.379,0.77 0.292,2.25 0.501,6.21 -0.024,8.81 -0.381,0.74 0.148,0.55 0.105,-1.74"
       id="path183" />
  </g>
  <g
     id="g184"
     transform="translate(-61.276596,61.276596)">
    <path
       fill="none"
       stroke="#000000"
       stroke-width="2"
       stroke-linecap="round"
       stroke-linejoin="round"
       d="m -563.036,1154.46 1.258,3.61 1.763,3.17 0.823,3.21 2.574,5.14 3.581,9.81 2.268,3.37 2.045,8.68 1.006,1.6 0.778,-0.21 0.682,-0.72 0.919,-2.09 2.131,-7.1 4.657,-11.61 3.173,-4.07 3.945,-7.21 2.671,-2.81 0.646,-0.22"
       id="path184" />
  </g>
  <g
     id="g185"
     transform="translate(-61.276596,61.276596)">
    <path
       fill="none"
       stroke="#000000"
       stroke-width="2"
       stroke-linecap="round"
       stroke-linejoin="round"
       d="m -432.352,963.938 3.151,17.032 0.358,3.698 -0.063,10.828 -2.604,13.644 -2.175,14.84 -0.211,4.44 0.063,16.84 0.379,2.37 0.227,10.35 -0.032,17.56 -0.383,4.47 0.092,33.33 0.539,8.1 0.014,4.69"
       id="path185" />
  </g>
  <g
     id="g186"
     transform="translate(-61.276596,61.276596)">
    <path
       fill="none"
       stroke="#000000"
       stroke-width="2"
       stroke-linecap="round"
       stroke-linejoin="round"
       d="m -560.284,1229.89 -0.041,7.9 0.705,3.41 -0.127,3.35 0.535,2.78 -0.105,15.69 -0.552,2.81 0.07,1.49 -0.492,1.46 0.116,1.38 -0.16,-3.15"
       id="path186" />
  </g>
  <g
     id="g187"
     transform="translate(-61.276596,61.276596)">
    <path
       fill="none"
       stroke="#000000"
       stroke-width="2"
       stroke-linecap="round"
       stroke-linejoin="round"
       d="m -562.868,1222.78 3.26,-2.35 1.154,-1.3 2.103,-0.33 1.857,-0.79 1.77,0.15 6.158,2.36 4.782,0.14 4.047,-1.83 0.568,0.08 1.759,-0.93 4.65,-1.51 2.449,-0.18 6.525,-1.37 1.54,0.12 1.53,-0.53 1.687,0.08 1.582,-0.68 0.876,0.05 3.056,-0.86 3.893,-0.32 1.552,-0.51 20.782,0.65 2.82,0.84 1.847,-0.13 4.798,1.1 7.039,-0.11 5.947,-1.99 1.556,-0.12"
       id="path187" />
  </g>
  <g
     id="g188"
     transform="translate(-61.276596,61.276596)">
    <path
       fill="none"
       stroke="#000000"
       stroke-width="2"
       stroke-linecap="round"
       stroke-linejoin="round"
       d="m -554.894,1255.58 -1.922,2.5 -2.17,5.97 -0.869,4.34 0.138,3.36 -0.379,1.14 0.061,3.24 -0.371,1.46 0.069,12.04 2.95,1.47 39.137,0.11 6.47,1.81 2.064,0.03 3.205,1.1 3.261,-0.15 3.622,0.33 14.237,0.11 1.441,0.37 13.298,-0.08 3.902,0.47 2.267,-0.05 1.326,0.36 7.547,-0.07 1.857,-0.89 0.468,0.08 2.639,-1.2 -0.031,-1.88 -0.346,-0.87"
       id="path188" />
  </g>
  <g
     id="g189"
     transform="translate(-61.276596,61.276596)">
    <path
       fill="none"
       stroke="#000000"
       stroke-width="2"
       stroke-linecap="round"
       stroke-linejoin="round"
       d="m -476.807,1213.74 12.024,0.02 2.184,0.36 4.196,-0.04 21.222,-3.83 5.496,-1.68 3.171,0.14 0.677,0.63 1.403,2.76 -0.15,6.18 -0.697,4.28 0.131,8.05 -0.684,6.8 0.084,3.54 -1.226,9.57 0.067,17.42 0.382,1.07 -0.066,2.14 0.521,1.73 0.207,2.78 0.326,0.43 0.253,2.6 0.347,0.55 -0.089,0.99 0.98,2.94 0.183,10.61 -0.872,1.76 -1.427,0.65 -5.268,-0.05 -2.994,1.16 -4.583,0.8 -5.384,4.05 -5.959,1.55 -3.162,-0.12 -0.543,-0.35 -1.025,-1.86 0.083,-2.51 1.811,-6.03"
       id="path189" />
  </g>
  <g
     id="g190"
     transform="translate(-61.276596,61.276596)">
    <path
       fill="none"
       stroke="#000000"
       stroke-width="2"
       stroke-linecap="round"
       stroke-linejoin="round"
       d="m -521.147,1235.15 -2.229,-1.12 -2.67,-0.59 -1.486,0.8 -1.592,1.7 -3.391,2.17 -3.325,3.39 -1.567,3.67 0.124,1.13 -0.34,0.55 0.054,2.25 -0.391,0.85 0.086,6.76 0.573,1.06 -0.037,0.87 0.772,2.89 -0.067,1.14 0.787,1.88 -0.064,0.68 1.092,1.87 0.195,1.14 1.896,0.81 2.351,-0.27 4.384,-2.21 1.437,-2.13"
       id="path190" />
  </g>
  <g
     id="g191"
     transform="translate(-61.276596,61.276596)">
    <path
       fill="none"
       stroke="#000000"
       stroke-width="2"
       stroke-linecap="round"
       stroke-linejoin="round"
       d="m -514.932,1257.55 2.206,0.37 1.234,1.52 1.884,7.13 -0.205,2.76 0.052,2.57 0.188,-1.69"
       id="path191" />
  </g>
  <g
     id="g192"
     transform="translate(-61.276596,61.276596)">
    <path
       fill="none"
       stroke="#000000"
       stroke-width="2"
       stroke-linecap="round"
       stroke-linejoin="round"
       d="m -509.843,1238.1 -0.661,-1.92 0.17,-3.48 -0.864,2.67 0.158,4.66"
       id="path192" />
  </g>
  <g
     id="g193"
     transform="translate(-61.276596,61.276596)">
    <path
       fill="none"
       stroke="#000000"
       stroke-width="2"
       stroke-linecap="round"
       stroke-linejoin="round"
       d="m -491.479,1233.63 -0.375,1.12 10e-4,2.79 -2.991,21.17 -0.66,1.83 -0.761,3.92 0.177,2.09 -1.087,-3.32"
       id="path193" />
  </g>
  <g
     id="g194"
     transform="translate(-61.276596,61.276596)">
    <path
       fill="none"
       stroke="#000000"
       stroke-width="2"
       stroke-linecap="round"
       stroke-linejoin="round"
       d="m -504.04,1252.76 0.994,-0.52 7.297,-1.71 14.109,-0.9"
       id="path194" />
  </g>
  <g
     id="g195"
     transform="translate(-61.276596,61.276596)">
    <path
       fill="none"
       stroke="#000000"
       stroke-width="2"
       stroke-linecap="round"
       stroke-linejoin="round"
       d="m -472.717,1248.97 0.053,1.23 1.466,5.03 0.977,1.69 1.365,0.85 1.908,-0.26 1.695,-0.72 3.434,-2.35 3.05,-3.1 1.884,-1.12 -0.375,0.03 -1.178,2.09 -1.019,4.42 -2.827,18.52 -1.257,4.35 -0.426,3.22 -1.678,7.08 0.105,1.33 1.336,-1.59 2.026,-3.43"
       id="path195" />
  </g>
  <g
     id="g196"
     transform="translate(-61.276596,61.276596)">
    <path
       fill="none"
       stroke="#000000"
       stroke-width="2"
       stroke-linecap="round"
       stroke-linejoin="round"
       d="m -434.888,1119.29 -1.641,4.57 0.088,17.42 -0.382,1.24 -0.059,11.39 1.024,1.01 2.753,1.27 2.515,-0.03 1.545,0.72 0.886,-0.08 2.153,1.09 1.23,-0.14 1.751,0.47 15.07,-0.07 2.365,0.65 1.994,0.09 1.572,0.66 0.945,-0.05 1.731,0.6 16.144,-0.12 0.824,0.36 3.13,0.09 1.843,0.49 21.492,0.88 5.051,0.93 4.394,0.4 6.815,-0.05 1.403,-0.8 2.594,-0.34 1.184,-0.69 4.5,-0.14 3.932,-2.04 3.693,0.06 4.068,-1.98 0.937,2.1 -0.128,6.07 -0.553,1.68 -0.028,4.97 -0.373,0.92 0.077,12.57 -0.461,7.28 1.08,-3.02"
       id="path196" />
  </g>
  <g
     id="g197"
     transform="translate(-61.276596,61.276596)">
    <path
       fill="none"
       stroke="#000000"
       stroke-width="2"
       stroke-linecap="round"
       stroke-linejoin="round"
       d="m -330.319,1181.07 -0.437,1.77 0.298,4.83 3.992,16.51 1.361,2.87 1.27,0.72 1.044,-0.02 1.42,-0.94 0.835,-1.11 0.878,-2.14 2.917,-5.11 1.013,-3.19 6.752,-12.5 5.083,-5.9 0.191,-0.14 0.013,0.36 1.599,-0.22"
       id="path197" />
  </g>
  <g
     id="g198"
     transform="translate(-61.276596,61.276596)">
    <path
       fill="none"
       stroke="#000000"
       stroke-width="2"
       stroke-linecap="round"
       stroke-linejoin="round"
       d="m -392.772,1219.52 -0.134,-4.88 0.422,1.25 0.307,4.17 2.679,17.42 -0.022,9.95 -2.135,19.05 -0.727,4.07 0.173,2.92 -0.038,-2.72 0.736,-3.92"
       id="path198" />
  </g>
  <g
     id="g199"
     transform="translate(-61.276596,61.276596)">
    <path
       fill="none"
       stroke="#000000"
       stroke-width="2"
       stroke-linecap="round"
       stroke-linejoin="round"
       d="m -394.646,1215.73 1.794,0.53 4.428,-0.12 15.259,-3.36 3.26,0.18 2.909,-0.56 4.836,0.13 2.764,-0.91 1.53,0.17 2.706,-0.3 2.386,-0.85 2.879,0.21 2.878,-0.37 21.275,0.47 2.487,0.5 60.556,-0.22 3.628,0.7 3.615,-0.17 1.742,0.55 4.023,0.58 6.783,0.17"
       id="path199" />
  </g>
  <g
     id="g200"
     transform="translate(-61.276596,61.276596)">
    <path
       fill="none"
       stroke="#000000"
       stroke-width="2"
       stroke-linecap="round"
       stroke-linejoin="round"
       d="m -396.387,1255.15 1.965,3.4 1.595,7.16 -0.135,11.5 -0.567,1.52 0.122,12.2 0.669,1.14 1.36,0.61 3.638,-0.06 1.427,0.52 2.21,0.08 0.84,0.48 2.533,0.39 7.346,-0.06 2.706,-0.89 1.535,0.18 2.242,-0.5 4.782,0.09 5.209,1.4 4.07,0.29 26.068,0.27 11.876,-1.89 7.651,-0.21 3.687,-1.04 3.2,0.22 7.978,-0.8 3.784,-0.76 7.264,-0.02 2.599,-0.16 2.067,-0.67 4.457,-0.04 1.313,-0.16 1.497,-0.66 1.66,-0.06 6.086,-1.9 4.54,-0.12 1.737,-0.38 14.474,0.36 2.662,1.36 1.853,1.78 5.707,2.53 -0.165,-0.23 1.201,-2.43 1.565,-5.85 0.009,-13.84 -0.366,-1.65 0.029,-3.06 -1.523,-14.91 -0.316,-8.8 -0.54,-2.04 -0.506,-6.93 -0.713,-1.7 -0.688,-3.68 -2.17,-6.36 -0.679,-1.07 -2.233,-5.79 0.081,-0.37 0.059,0.32 -2.137,-0.09 -1.787,-1.02 -0.494,0.14 -0.608,-0.3 -8.048,-0.11 -0.962,-0.46 0.173,-0.77"
       id="path200" />
  </g>
  <g
     id="g201"
     transform="translate(-61.276596,61.276596)">
    <path
       fill="none"
       stroke="#000000"
       stroke-width="2"
       stroke-linecap="round"
       stroke-linejoin="round"
       d="m -373.097,1237.36 2.907,2.73 1.539,2.4 1.315,4.57 -0.179,4.73 -2.815,17.08 -0.561,2 0.114,1.41 -0.015,-2.02"
       id="path201" />
  </g>
  <g
     id="g202"
     transform="translate(-61.276596,61.276596)">
    <path
       fill="none"
       stroke="#000000"
       stroke-width="2"
       stroke-linecap="round"
       stroke-linejoin="round"
       d="m -381.032,1238.95 3.265,-1.77 5.625,-1.14 9.597,-3.25 9.386,-1.84 2.284,0.51"
       id="path202" />
  </g>
  <g
     id="g203"
     transform="translate(-61.276596,61.276596)">
    <path
       fill="none"
       stroke="#000000"
       stroke-width="2"
       stroke-linecap="round"
       stroke-linejoin="round"
       d="m -353.609,1257.86 6.88,-1.56 3.424,-1.88 0.81,-0.55 0.821,-1.35 2.764,-1.91 1.097,-1.17 0.243,-1.37 -0.423,-0.26 -4.833,-2.22 -0.445,0.09 0.048,0.69 -1.463,2.03 -0.345,1.31 0.353,19.25 0.699,1.82 -0.156,0.91 0.333,0.57 1.736,0.58 2.075,-0.65 4.102,-3.75"
       id="path203" />
  </g>
  <g
     id="g204"
     transform="translate(-61.276596,61.276596)">
    <path
       fill="none"
       stroke="#000000"
       stroke-width="2"
       stroke-linecap="round"
       stroke-linejoin="round"
       d="m -323.661,1255.02 0.094,13.9 2.699,-4.95 3.96,-5.09 0.997,-1.92 1.748,-1.61 2.378,-0.97 1.14,1.84 1.892,1.62 2.143,4.5 -0.022,2.02 0.375,1.2 0.674,-1.98 3.743,-6.88 1.86,-2.25 1.173,-0.41 1.483,4.55 -0.158,9.77 -0.385,1.57 0.113,1.76 0.195,0.14 0.386,-0.58"
       id="path204" />
  </g>
  <g
     id="g205"
     transform="translate(-61.276596,61.276596)">
    <path
       fill="none"
       stroke="#000000"
       stroke-width="2"
       stroke-linecap="round"
       stroke-linejoin="round"
       d="m -280.055,1253.89 -0.325,15.07 -3.139,17.43 0.153,1.43 0.125,-25.51 1.564,-9.2 1.44,-5.9 1.544,-2.86 0.957,-1.09 2.191,-0.82 0.785,0.07 1.101,0.5 0.844,0.95 2.71,1.93 0.531,0.58 1.356,3.05 -0.172,1.41 -1.458,1.8 -1.357,2.59 -4.389,6.31 -0.874,1.83 -2.019,1.9 -0.827,-0.37 -1.488,-2.14 -1.37,-4.16"
       id="path205" />
  </g>
</g>
<metadata
   id="metadata206">
  <rdf:RDF>
    <cc:Work
       rdf:about="">
      <dc:title>Brc hashmap</dc:title>
    </cc:Work>
  </rdf:RDF>
</metadata>
<text
   xml:space="preserve"
   style="font-size:113.644px;line-height:125%;font-family:Sans;-inkscape-font-specification:'Sans, Normal';text-align:center;letter-spacing:0px;word-spacing:0px;text-anchor:middle;fill:none;stroke:#000000;stroke-width:1px;stroke-linecap:butt;stroke-linejoin:miter;stroke-opacity:1"
   x="386.26105"
   y="52.212303"
   id="text103"><tspan
     sodipodi:role="line"
     id="tspan103"
     x="386.26105"
     y="52.212303"
     style="font-style:normal;font-variant:normal;font-weight:normal;font-stretch:normal;font-size:53.3333px;font-family:Sans;-inkscape-font-specification:'Sans, Normal';font-variant-ligatures:normal;font-variant-caps:normal;font-variant-numeric:normal;font-variant-east-asian:normal;fill:#000000;fill-opacity:1">OpenHashMap</tspan></text>
</svg>
