<?xml version="1.0" encoding="UTF-8" standalone="no"?>
<svg
   width="1400"
   height="650"
   viewBox="-810 0 1400 650"
   version="1.2"
   id="svg314"
   sodipodi:docname="openset.svg"
   inkscape:version="1.4 (e7c3feb, 2024-10-09)"
   xmlns:inkscape="http://www.inkscape.org/namespaces/inkscape"
   xmlns:sodipodi="http://sodipodi.sourceforge.net/DTD/sodipodi-0.dtd"
   xmlns="http://www.w3.org/2000/svg"
   xmlns:svg="http://www.w3.org/2000/svg"
   xmlns:rdf="http://www.w3.org/1999/02/22-rdf-syntax-ns#"
   xmlns:cc="http://creativecommons.org/ns#"
   xmlns:dc="http://purl.org/dc/elements/1.1/"><defs
   id="defs314" />
<sodipodi:namedview
   id="namedview314"
   pagecolor="#ffffff"
   bordercolor="#666666"
   borderopacity="1.0"
   inkscape:showpageshadow="2"
   inkscape:pageopacity="0.0"
   inkscape:pagecheckerboard="0"
   inkscape:deskcolor="#d1d1d1"
   inkscape:zoom="1.5666667"
   inkscape:cx="320.10638"
   inkscape:cy="222.76596"
   inkscape:window-width="1920"
   inkscape:window-height="1025"
   inkscape:window-x="0"
   inkscape:window-y="24"
   inkscape:window-maximized="1"
   inkscape:current-layer="svg314" />
<title
   id="title1">Brc hashmap</title>
\n<g
   id="g206"
   transform="translate(-168.51064,-1417.0212)">
  <path
     fill="none"
     stroke="#000000"
     stroke-width="2"
     stroke-linecap="round"
     stroke-linejoin="round"
     d="m -577.455,1589.25 298.682,-2.77"
     id="path206" />
</g>
<g
   id="g207"
   transform="translate(-168.51064,-1417.0212)">
  <path
     fill="none"
     stroke="#000000"
     stroke-width="2"
     stroke-linecap="round"
     stroke-linejoin="round"
     d="m 316.355,1580.96 291.19,-2.71"
     id="path207" />
</g>
<g
   id="g208"
   transform="translate(-168.51064,-1417.0212)">
  <path
     fill="none"
     stroke="#000000"
     stroke-width="2"
     stroke-linecap="round"
     stroke-linejoin="round"
     d="m -575.455,1666.25 17.856,-0.17"
     id="path208" />
</g>
<g
   id="g209"
   transform="translate(-168.51064,-1417.0212)">
  <path
     fill="none"
     stroke="#000000"
     stroke-width="2"
     stroke-linecap="round"
     stroke-linejoin="round"
     d="m -496.481,1665.51 10.876,-0.1"
     id="path209" />
</g>
<g
   id="g210"
   transform="translate(-168.51064,-1417.0212)">
  <path
     fill="none"
     stroke="#000000"
     stroke-width="2"
     stroke-linecap="round"
     stroke-linejoin="round"
     d="m -408.982,1664.69 135.904,-1.28"
     id="path210" />
</g>
<g
   id="g211"
   transform="translate(-168.51064,-1417.0212)">
  <path
     fill="none"
     stroke="#000000"
     stroke-width="2"
     stroke-linecap="round"
     stroke-linejoin="round"
     d="m 322.952,1657.82 273.593,-2.57"
     id="path211" />
</g>
<g
   id="g212"
   transform="translate(-168.51064,-1417.0212)">
  <path
     fill="none"
     stroke="#000000"
     stroke-width="2"
     stroke-linecap="round"
     stroke-linejoin="round"
     d="m -579.413,1596.14 -1.494,-0.76 -1.914,-0.4 -0.41,-0.97 0.353,-0.52 0.348,-2.2 3.2,-4.95 2.125,-4.53 -0.248,0.01 1.171,3.33 0.012,1.7 0.815,3.34 -0.003,5.47 1.322,7.32 0.312,6.61 -0.404,1.14 -0.025,1.31 1.229,4.46 -0.14,1.28 0.565,0.87 0.053,2.32 -0.371,0.5 0.076,2.46 -0.366,1.06 -0.623,6.24 0.331,1.4 0.082,5.69 0.701,1.47 -0.091,0.83 0.471,1.14 -0.096,1.39 0.348,1.14 -0.051,8 0.254,0.09 -0.109,2.56 -0.881,2.61 0.12,1.25 -0.451,1.11 0.055,1.85"
     id="path212" />
</g>
<g
   id="g213"
   transform="translate(-168.51064,-1417.0212)">
  <path
     fill="none"
     stroke="#000000"
     stroke-width="2"
     stroke-linecap="round"
     stroke-linejoin="round"
     d="m 604.241,1584.12 -1.774,-2.92 4.779,-6.12 0.959,-2.31 0.032,-3.22 -0.288,-1.19 -0.34,0.53 0.045,5.03 -0.559,1.97 -0.214,4.41 -0.307,1.02 0.29,4.11 -0.384,0.69 -0.04,2.06 -0.986,4.69 0.1,1.26 -0.616,2.95 -0.26,3.6 0.04,1.18 0.932,0.95 1.28,4.21 1.579,3.19 -0.15,4.1 -2.578,11.42 -0.099,2.68 -1.423,2.13 -2.959,3.18 -1.754,2.72 -2.616,5.17 0.258,-0.19 -0.473,1.24 0.069,6.01 0.327,0.83 1.033,0.85 0.818,2.01 -0.138,4.8 0.819,1.71 0.03,2.07 0.011,-0.39 1.834,-0.1 1.604,0.34"
     id="path213" />
</g>
<g
   id="g214"
   transform="translate(-168.51064,-1417.0212)">
  <path
     fill="none"
     stroke="#000000"
     stroke-width="2"
     stroke-linecap="round"
     stroke-linejoin="round"
     d="m -481.385,1595.66 0.562,-2.21 0.831,-1.1 0.003,-0.68 0.478,-0.66 0.445,4.17 -0.35,21.3 -0.519,4.08 0.062,4.43 -0.644,7.74 0.11,6.72 -0.534,6.29"
     id="path214" />
</g>
<g
   id="g215"
   transform="translate(-168.51064,-1417.0212)">
  <path
     fill="none"
     stroke="#000000"
     stroke-width="2"
     stroke-linecap="round"
     stroke-linejoin="round"
     d="m -371.687,1592.16 -2.274,3.24 -2.654,10.03 -3.084,31.11 0.133,4.22 -0.862,6.28 0.146,4.05 -0.693,3.92 0.143,2.58 0.755,0.81 0.669,-0.87"
     id="path215" />
</g>
<g
   id="g216"
   transform="translate(-168.51064,-1417.0212)">
  <path
     fill="none"
     stroke="#000000"
     stroke-width="2"
     stroke-linecap="round"
     stroke-linejoin="round"
     d="m 391.529,1583.02 1.455,-3.84 1.215,-1.46 0.821,-0.08 0.258,2.21 -3.724,22.16 -2.308,17.6 -3.449,12.75 -1.563,14.5 0.4,4.13 0.154,0.61 0.872,0.96 2.169,0.72 2.554,-0.37 0.826,-0.39"
     id="path216" />
</g>
<g
   id="g217"
   transform="translate(-168.51064,-1417.0212)">
  <path
     fill="none"
     stroke="#000000"
     stroke-width="2"
     stroke-linecap="round"
     stroke-linejoin="round"
     d="m 489.773,1584.15 -0.779,1.2 -0.917,4 -0.51,7.26 -1.643,9.16 -0.308,4.68 -0.962,3.5 -1.761,11 -1.202,4.11 -2.843,12.96 0.007,3.78 1.353,1.21 1.504,-0.47 2.346,-3.86"
     id="path217" />
</g>
<g
   id="g218"
   transform="translate(-168.51064,-1417.0212)">
  <path
     fill="none"
     stroke="#000000"
     stroke-width="2"
     stroke-linecap="round"
     stroke-linejoin="round"
     d="m -435.671,1584.46 -0.827,2.78 -1.439,2.51 0.186,0.34 0.421,-1.21"
     id="path218" />
</g>
<g
   id="g219"
   transform="translate(-168.51064,-1417.0212)">
  <path
     fill="none"
     stroke="#000000"
     stroke-width="2"
     stroke-linecap="round"
     stroke-linejoin="round"
     d="m -565.751,1661.54 1.913,-0.9 2.843,-0.62 0.943,-0.52 1.293,0.13 5.649,2.67 0.783,-0.13 2.027,0.62 20.963,-0.08 2.864,-0.65 7.777,-0.05 3.579,1.64 4.254,-0.08 1.867,-0.69 3.446,-0.02 0.527,0.32"
     id="path219" />
</g>
<g
   id="g228"
   transform="translate(-168.51064,-1417.0212)">
  <path
     fill="none"
     stroke="#000000"
     stroke-width="2"
     stroke-linecap="round"
     stroke-linejoin="round"
     d="m -546.402,1612.11 -0.016,15.69 0.397,2.01 -0.287,11.4 0.618,-3.67"
     id="path228" />
</g>
<g
   id="g229"
   transform="translate(-168.51064,-1417.0212)">
  <path
     fill="none"
     stroke="#000000"
     stroke-width="2"
     stroke-linecap="round"
     stroke-linejoin="round"
     d="m -516.519,1610.33 -6.205,4.3 -1.044,1.17 -7.429,4.81 -2.249,1.03 -2.673,1.94 -2.622,0.65 -2.125,1.18 -0.729,-0.13 0.777,0.24 1.702,2.06 1.552,1.33 6.055,4.23 2.051,2.53 1.843,1.69 5.097,7.58 1.272,3.31 1.442,0.23 1.524,-3.86"
     id="path229" />
</g>
<g
   id="g230"
   transform="translate(-168.51064,-1417.0212)">
  <path
     fill="none"
     stroke="#304ae0"
     stroke-width="2"
     stroke-linecap="round"
     stroke-linejoin="round"
     d="m -303.509,1767.02 -3.803,-0.86 -0.562,-0.4 -1.557,0.22 -3.523,2.07 -1.188,1.26 -3.759,1.69 -1.167,1.3 -0.838,0.45 -1.764,1.77 -1.448,2.29 -0.412,1.67 -1.306,2 -2.551,8.66 -1.927,9.98 0.133,3.92 1.43,4.27 3.943,5.12 1.293,1.14 2.126,1.13 2.502,0.82 3.148,-0.21 1.167,-0.68 1.762,-4.5 -0.085,-0.87 -1.294,-2.91 -2.133,-2.96 -2.565,-1.81 -5.331,-1.72 -2.64,0.15 2.606,1.01"
     id="path230" />
</g>
<g
   id="g231"
   transform="translate(-168.51064,-1417.0212)">
  <path
     fill="none"
     stroke="#304ae0"
     stroke-width="2"
     stroke-linecap="round"
     stroke-linejoin="round"
     d="m -295.97,1776.89 -1.659,4.72 -1.814,11.5 0.092,7.18 1.596,3.5 1.028,0.7 1.942,-0.32 9.145,-4.19 3.919,-0.77 2.072,-0.9 1.434,0.19"
     id="path231" />
</g>
<g
   id="g232"
   transform="translate(-168.51064,-1417.0212)">
  <path
     fill="none"
     stroke="#304ae0"
     stroke-width="2"
     stroke-linecap="round"
     stroke-linejoin="round"
     d="m -276.545,1790.3 -1.332,2.09 -2.062,5.29 -0.987,4.47 -0.806,1.6 -1.571,5.68 -0.102,4.57 0.554,0.89 0.658,0.33 1.017,-0.35 0.708,-1.06"
     id="path232" />
</g>
<g
   id="g233"
   transform="translate(-168.51064,-1417.0212)">
  <path
     fill="none"
     stroke="#304ae0"
     stroke-width="2"
     stroke-linecap="round"
     stroke-linejoin="round"
     d="m -256.11,1769.01 -0.793,2.1 -0.373,2.18 0.282,3.42 -0.051,14.8 -1.853,10.25 0.059,1.27 -0.609,1.41 0.094,1.28 3.335,-8.3 3.682,-5.72 1.77,-1.84 1.778,-0.9 2.599,-0.73 0.862,0.05 3.128,2.03 0.971,1.61 0.348,1.5 -0.062,1.78 -0.944,3.22 -3.558,8.73 -6.533,10.45 -2.615,1.91 -0.524,-0.14 -1.153,-1.22 -1.496,-4.48 0.322,-4.05 1.611,-6.65 1.43,-3.02 0.873,-0.62"
     id="path233" />
</g>
<g
   id="g234"
   transform="translate(-168.51064,-1417.0212)">
  <path
     fill="none"
     stroke="#304ae0"
     stroke-width="2"
     stroke-linecap="round"
     stroke-linejoin="round"
     d="m -239.687,1797.91 0.303,-0.03 1.756,10.2 0.622,1.48 2.043,2.48 1.584,-0.11 2.594,-1.55 4.292,-4.31 0.754,-1.26 0.495,-1.77 0.396,1.48 1.028,1.71 0.664,2.23 -0.118,1.27 0.316,1.53 0.107,12.49 -0.904,2.66 -0.392,5.73 -0.695,1.63 0.119,1.72 -0.473,0.83 -0.601,-0.01"
     id="path234" />
</g>
<g
   id="g235"
   transform="translate(-168.51064,-1417.0212)">
  <path
     fill="none"
     stroke="#304ae0"
     stroke-width="2"
     stroke-linecap="round"
     stroke-linejoin="round"
     d="m -201.001,1758.23 -0.855,1.31 -0.759,2.74 -2.935,15.74 -1.482,15.85 -1.76,14.65 -0.157,8.72 0.005,-7.1 -0.743,-2.87 0.163,-6.54 1.671,-0.37 1.752,0.44 5.019,-0.11 5.16,-1.52 3.499,-2.17 6.03,-5.72 1.83,-2.86 0.641,-1.84 -0.505,-0.94 -0.04,0.21 -2.691,-0.7 -1.203,0.66 -2.148,2.95 -0.593,1.22 -0.55,3.03 0.097,8.08 0.54,2.31 1.208,2.05 1.614,0.16 5.719,-4.06 4.09,-1.66 1.457,0.16 9.852,5.17 1.74,2.82 0.232,1.86 -3.552,9.47 -1.434,2.83 -2.334,2.22 -0.577,0.25 -0.837,-0.18 -1.436,-2.12 -0.44,-3.68 0.154,-5.46"
     id="path235" />
</g>
<g
   id="g236"
   transform="translate(-168.51064,-1417.0212)">
  <path
     fill="none"
     stroke="#304ae0"
     stroke-width="2"
     stroke-linecap="round"
     stroke-linejoin="round"
     d="m -125.088,1800.57 5.703,-2.45 8.772,-1.91 4.204,0.18 4.376,1.11 4.1378,1.94 1.8823,0.51 0.935,-0.12"
     id="path236" />
</g>
<g
   id="g237"
   transform="translate(-168.51064,-1417.0212)">
  <path
     fill="none"
     stroke="#304ae0"
     stroke-width="2"
     stroke-linecap="round"
     stroke-linejoin="round"
     d="m -122.526,1807.9 3.611,-0.75 7.489,0.17 9.707,-1.55 12.3186,-0.28"
     id="path237" />
</g>
<g
   id="g238"
   transform="translate(-168.51064,-1417.0212)">
  <path
     fill="none"
     stroke="#304ae0"
     stroke-width="2"
     stroke-linecap="round"
     stroke-linejoin="round"
     d="m -29.2147,1776.9 -3.8431,-2.65 -2.7295,-0.65 -0.8178,0.08 -7.5727,4.77 -1.2628,1.41 -2.0759,3.14 -2.8884,6.44 -0.7734,8.46 0.0574,6.72 1.7235,11.49 0.9886,2.37 1.6783,2.37 3.0141,1.14 3.1035,-0.57 3.5462,-1.92 10.9774,-10.77"
     id="path238" />
</g>
<g
   id="g239"
   transform="translate(-168.51064,-1417.0212)">
  <path
     fill="none"
     stroke="#304ae0"
     stroke-width="2"
     stroke-linecap="round"
     stroke-linejoin="round"
     d="m -9.78146,1776.73 -1.25754,5.45 -1.3628,12.43 0.0875,17.63 0.5844,2.49 0.2948,6 -0.0112,-16.46 -0.7052,-8.18 0.0945,-5.13 1.117,-9.91 2.1307,-7.17 1.76728,-2.59 1.82898,-1.41 2.18121,-0.49 1.69885,0.63 4.21192,2.95 2.17419,3.54 1.46411,4.33 -0.1452,1.7 -5.860901,11.03 -4.306759,4.85 -5.26294,4.89 -2.77514,1.29 -1.0396,0.95 -0.7587,-0.2 -0.4931,-1.1 0.1037,-1.63 1.1331,-3.31"
     id="path239" />
</g>
<g
   id="g240"
   transform="translate(-168.51064,-1417.0212)">
  <path
     fill="none"
     stroke="#304ae0"
     stroke-width="2"
     stroke-linecap="round"
     stroke-linejoin="round"
     d="m 17.5923,1777.18 -1.5227,4.98 -0.9026,9.92 0.245,11.09 0.5321,1.33 1.255,1.48 0.6734,0.24 1.7321,-0.58 1.6777,-1.24 1.82,-1.95 5.219,-7.86 2.8112,-2.59 2.9018,-6.38 -0.1272,-0.95 -0.1137,0.19 -2.0068,-0.54 -0.8919,4.03 0.1282,9.44 -0.3816,2.05 0.0641,3.82 -0.8659,4.72 0.1714,10.68 0.3396,2.68 0.5366,1.6 0.6915,0.74 1.8878,1 1.3786,-0.37 0.8691,-0.93"
     id="path240" />
</g>
<g
   id="g241"
   transform="translate(-168.51064,-1417.0212)">
  <path
     fill="none"
     stroke="#304ae0"
     stroke-width="2"
     stroke-linecap="round"
     stroke-linejoin="round"
     d="m 96.5712,1772.8 -3.9707,-0.88 -2.8944,-1.2 -1.7136,-0.16 -3.4992,0.01 -2.6044,1.43 -1.4599,1.56 -4.3416,6.56 -0.3019,1.64 -1.0618,2.51 -0.5295,3.36 -1.2876,3.35 -0.8403,6.03 0.1082,7.44 0.5622,1.79 -0.0315,0.9 0.7788,1.4 1.997,1.42 0.9664,0.23 1.4389,-0.2 6.1419,-1.83 3.5414,-1.86"
     id="path241" />
</g>
<g
   id="g242"
   transform="translate(-168.51064,-1417.0212)">
  <path
     fill="none"
     stroke="#304ae0"
     stroke-width="2"
     stroke-linecap="round"
     stroke-linejoin="round"
     d="m 114.233,1793.95 h -9.263 l -0.816,0.38 -2.855,1.45 -1.7398,1.87 -1.4353,3.93 0.3105,5.79 1.8326,3.46 0.614,0.31 1.043,-0.18 1.149,-0.75 2.245,-2.52 5.227,-7.29 1.409,-2.72 -1.629,3.09 -0.361,1.6 0.134,1.18 -0.458,1.68 -0.084,8.27 0.609,0.87 1.128,-0.24 1.255,-0.88"
     id="path242" />
</g>
<g
   id="g243"
   transform="translate(-168.51064,-1417.0212)">
  <path
     fill="none"
     stroke="#304ae0"
     stroke-width="2"
     stroke-linecap="round"
     stroke-linejoin="round"
     d="m 138.867,1797.74 -4.917,-1.29 -1.709,0.22 -2.123,0.78 -0.683,-0.09 -2.142,1.03 -1.646,2.13 -1.598,3.28 0.134,8.73 1.068,3.4 0.953,2.54 2.5,2.34 1.425,0.31 1.35,-0.16 2.444,-0.75 2.307,-1.41 6.128,-6.12 1.031,-1.66"
     id="path243" />
</g>
<g
   id="g244"
   transform="translate(-168.51064,-1417.0212)">
  <path
     fill="none"
     stroke="#304ae0"
     stroke-width="2"
     stroke-linecap="round"
     stroke-linejoin="round"
     d="m 156.291,1769.82 -1.884,0.39 -0.923,1.1 -1.696,6.61 -1.314,16.78 -1.649,13.5 0.138,6.63 0.635,0.63 3.285,-6.19 3.827,-5.21 3,-2.58 2.71,-3.17 3.898,-1.51 1.35,3.86 -0.184,2.89 -0.888,2.77 -0.473,3.74 0.084,10.3 0.932,0.93 1.144,-1.56"
     id="path244" />
</g>
<g
   id="g245"
   transform="translate(-168.51064,-1417.0212)">
  <path
     fill="none"
     stroke="#304ae0"
     stroke-width="2"
     stroke-linecap="round"
     stroke-linejoin="round"
     d="m 181.196,1800.68 2.619,-1.85 1.604,-2.11 1.582,-1.23 -0.277,0.21 -2.007,-1.49 -2.444,-1.1 -0.87,0.13 -0.987,0.6 -0.425,1.11 -0.687,0.69 -1.658,5.44 -1.576,8.03 0.186,4.59 1.409,4.23 3.316,1.88 2.931,-0.09 3.524,-1.16 4.621,-2.77"
     id="path245" />
</g>
<g
   id="g246"
   transform="translate(-168.51064,-1417.0212)">
  <path
     fill="none"
     stroke="#304ae0"
     stroke-width="2"
     stroke-linecap="round"
     stroke-linejoin="round"
     d="m 220.897,1766.18 0.687,3.07 -0.166,3.29 -0.882,2.42 -0.18,2.3 -1.175,2.44 -0.537,2.43 0.224,3.37 1.129,5.68 -0.038,10.16 -0.917,3.24 0.963,6.34 0.13,5.23 0.875,1.54 0.154,1.56 2.885,-6.07 1.873,-2.16"
     id="path246" />
</g>
<g
   id="g247"
   transform="translate(-168.51064,-1417.0212)">
  <path
     fill="none"
     stroke="#304ae0"
     stroke-width="2"
     stroke-linecap="round"
     stroke-linejoin="round"
     d="m 241.178,1797.57 1.965,10.13 -0.125,11.37 -0.747,1.74 -0.174,1.64 -0.109,-0.97"
     id="path247" />
</g>
<g
   id="g248"
   transform="translate(-168.51064,-1417.0212)">
  <path
     fill="none"
     stroke="#304ae0"
     stroke-width="2"
     stroke-linecap="round"
     stroke-linejoin="round"
     d="m 244.385,1774.04 0.843,4.94 0.974,2.58"
     id="path248" />
</g>
<g
   id="g249"
   transform="translate(-168.51064,-1417.0212)">
  <path
     fill="none"
     stroke="#304ae0"
     stroke-width="2"
     stroke-linecap="round"
     stroke-linejoin="round"
     d="m 252.981,1804.4 0.388,3.03 1.106,1.5 0.931,0.45 3.57,-1.13 4.812,-3.45 3.158,-1.52 2.717,7.55 -0.079,0.99 0.734,3.22 1.403,2.24 1.093,0.4 0.851,-0.09 0.675,-0.75"
     id="path249" />
</g>
<g
   id="g250"
   transform="translate(-168.51064,-1417.0212)">
  <path
     fill="none"
     stroke="#304ae0"
     stroke-width="2"
     stroke-linecap="round"
     stroke-linejoin="round"
     d="m 288.848,1802.8 5.039,-2.9 2.709,-1.99 3.056,-2.41 2.334,-2.42 3.766,-2.62 0.678,-0.98 1.139,-0.79 -0.783,0.05 -3.236,-1.01 -1.971,0.19 -2.682,1.14 -1.106,1.05 -1.126,0.46 -2.925,3.12 -0.427,1.85 0.157,1.6 -0.344,1.2 -10e-4,2.04 -0.868,3.74 0.196,3.79 -0.354,1.51 0.015,3.2 1.616,4.08 2.197,2.02 1.725,-0.12 3.242,-1.3 3.771,-2.61 7.594,-6.23"
     id="path250" />
</g>
<g
   id="g251"
   transform="translate(-168.51064,-1417.0212)">
  <path
     fill="none"
     stroke="#304ae0"
     stroke-width="2"
     stroke-linecap="round"
     stroke-linejoin="round"
     d="m -573.915,1684.76 -0.905,1.03 -2.684,5.01 0.078,12.92 -0.552,1.25 0.115,5.5 1.896,4.06 1.628,1.41 1.756,2.19 5.601,4.38 6.677,2.61 9.65,2.78 1.934,1.28 3.818,0.81 5.106,-0.12 4.922,0.28 1.128,0.36 10.195,0.07 3.116,0.34 34.991,-0.05 1.931,0.54 2.309,-0.1 2.664,0.67 h 20.329"
     id="path251" />
</g>
<g
   id="g252"
   transform="translate(-168.51064,-1417.0212)">
  <path
     fill="none"
     stroke="#304ae0"
     stroke-width="2"
     stroke-linecap="round"
     stroke-linejoin="round"
     d="m -418.568,1732.26 1.758,0.03 3.544,0.69 2.417,-0.09 5.26,0.77 17.887,0.16 17.002,0.76 14.226,2.05 21.218,2.4 13.077,0.13 21.932,2.42 52.844,0.41 13.208,1.4 4.998,-0.14 5.522,0.69 37.279,-0.12 8.776,0.14 3.591,0.36 21.286,-0.24 8.25,-1 3.787,0.14 6.323,-0.63 7.591,-0.23 7.303,0.07 9.598,-0.52 12.1513,-1.31 6.5632,-0.04 12.1008,-1.4 11.1553,-0.78 39.0196,-4.24 33.22835,-4.11 7.05175,-2.16 3.0599,-0.26 13.0248,-2.38 1.5603,0.12 1.8505,-0.48 1.6844,0.07 0.9925,-0.52 0.8602,0.09 -0.4236,0.16 0.0086,1.05 -0.6627,1.67 0.003,9.1 0.9078,2.11 0.8322,3.77 1.5845,4.52 1.186,1.8 1.3604,0.38 1.3734,-0.06 0.9108,-0.54 2.3321,-2.16 1.7279,-2.23 1.3916,-2.09 2.5086,-7.52 3.385,-1.62 0.6937,0.09 1.8468,-0.6 1.1169,0.08 3.2462,-1.16 3.615,-0.81 16.2643,-5.31 9.587,-2.02 h 9.4882 l 4.8124,0.83 21.622,0.01 2.629,0.37 16.575,-0.08 4.606,-0.73 2.504,0.05 9.26,-1.02 19.282,-1.22 18.652,-0.18 5.648,-0.71 10.01,0.18 2.906,0.35 7.051,-0.1 30.645,3.38 4.067,0.59 5.336,1.24 6.484,0.53 2.458,0.46 3.327,1.15 7.651,0.63 25.606,3.25 10.732,2 2.612,-0.13 3.626,0.48 3.956,-0.07 2.654,0.35 43.45,0.08 13.785,-0.62 6.95,-0.77 43.389,0.12 29.426,-2.81 12.755,-2.55 15.147,-1.35 62.485,0.24 13.54,2.66 41.964,0.01 6.351,-0.8 1.91,0.08 5.142,-1.68 4.583,-0.15 6.18,-1.96 3.616,-0.45 2.475,-1.26 7.388,-0.26 1.452,-0.55 1.756,0.11 1.729,-0.48 1.705,0.07 1.929,-0.69 2.305,0.15 1.718,-0.52 4.049,0.36"
     id="path252" />
</g>
<g
   id="g253"
   transform="translate(-168.51064,-1417.0212)">
  <path
     fill="none"
     stroke="#304ae0"
     stroke-width="2"
     stroke-linecap="round"
     stroke-linejoin="round"
     d="m 624.149,1647.43 -4.684,2.8 -1.345,1.62 -0.51,1.16 0.091,0.41 2.816,0.31 0.838,-0.59 0.91,0.02 1.137,-0.58 0.786,-2.18 -1.962,-0.7 0.716,1.8"
     id="path253" />
</g>
<g
   id="g254"
   transform="translate(-168.51064,-1417.0212)">
  <path
     fill="none"
     stroke="#304ae0"
     stroke-width="2"
     stroke-linecap="round"
     stroke-linejoin="round"
     d="m 639.371,1649.31 -2.511,-0.91 -1.715,2.51 1.095,1.6 1.585,-0.28 0.779,0.39 2.916,-1.58 0.495,-0.56 3.402,-1.4 0.683,-0.54 0.544,-1.11 -0.081,1.61 0.386,0.22"
     id="path254" />
</g>
<g
   id="g255"
   transform="translate(-168.51064,-1417.0212)">
  <path
     fill="none"
     stroke="#304ae0"
     stroke-width="2"
     stroke-linecap="round"
     stroke-linejoin="round"
     d="m 664.427,1645.81 -3.828,-3.13 -0.617,0.03 -0.059,0.47 -1.752,1.51 -0.887,1.9 0.002,1.49 0.531,1.37 1.967,0.99 0.594,-0.03 5.615,-2.5 1.011,-0.12 1.293,-2.89 -1.259,-0.26 -1.81,2.08 -0.712,1.28 -0.514,2.61"
     id="path255" />
</g>
<g
   id="g256"
   transform="translate(-168.51064,-1417.0212)">
  <path
     fill="none"
     stroke="#304ae0"
     stroke-width="2"
     stroke-linecap="round"
     stroke-linejoin="round"
     d="m 658.779,1718.81 -0.058,-2.67 -0.367,-0.37 0.443,0.23 1.128,2.56 2.74,1.86 1.34,0.32 3.014,-0.22 1.916,-0.67 2.202,-0.19 5.594,-2.17 2.989,-0.04 0.33,0.35 0.655,0.05 0.968,-0.62 1.543,0.11 4.76,-2.24 1.596,-1.31 1.582,-0.62 0.322,-1.19 0.973,-1.55 -0.102,-3.1 2.166,-3.81 1.62,-3.95 2.305,-3.99 1.437,-4.7 -0.162,-3.39 -2.864,-7.03 0.127,-6.52 1.611,-5.52 -0.012,-5.69 -2.187,-6.1 0.899,0.56"
     id="path256" />
</g>
<g
   id="g257"
   transform="translate(-168.51064,-1417.0212)">
  <path
     fill="none"
     stroke="#000000"
     stroke-width="2"
     stroke-linecap="round"
     stroke-linejoin="round"
     d="m -537.23,1653.28 0.141,-6.3 0.585,-2.22 0.457,2.06 0.06,26.41 -0.555,1.72 0.147,3.53 -0.387,2.62 0.361,36.33 -0.364,1.68 -0.243,6.87 -0.664,3.44 0.144,4.25 -0.395,2.66 0.078,17.34 -0.364,1.63 0.049,3.43 -0.809,5.22 -0.451,2.07 -1.18,2.69 -1.541,7.65 0.125,2.41 -0.899,2.47 0.142,17.46 -0.368,1.14 -0.197,6.64 -0.361,1.27 0.035,3.39 -0.329,1.33 0.061,17.24 -0.367,0.83 0.054,1.7 -0.671,2.11 0.081,1.27 -1.005,2.89 0.141,1.19 -1.444,3.81 -0.083,4.08 -0.407,1.24 0.09,4.71 0.379,0.77 0.292,2.25 0.501,6.22 -0.023,8.81 -0.382,0.74 0.149,0.55 0.104,-1.74"
     id="path257" />
</g>
<g
   id="g258"
   transform="translate(-168.51064,-1417.0212)">
  <path
     fill="none"
     stroke="#000000"
     stroke-width="2"
     stroke-linecap="round"
     stroke-linejoin="round"
     d="m -567.231,1847.14 1.259,3.61 1.762,3.18 0.823,3.2 2.574,5.14 3.581,9.82 2.268,3.36 2.039,8.66"
     id="path258" />
</g>
<g
   id="g259"
   transform="translate(-168.51064,-1417.0212)">
  <path
     fill="none"
     stroke="#000000"
     stroke-width="2"
     stroke-linecap="round"
     stroke-linejoin="round"
     d="m -549.965,1883.7 0.432,-0.99 2.13,-7.09 4.657,-11.61 3.173,-4.07 3.945,-7.21 2.671,-2.82 0.647,-0.21"
     id="path259" />
</g>
<g
   id="g260"
   transform="translate(-168.51064,-1417.0212)">
  <path
     fill="none"
     stroke="#304ae0"
     stroke-width="2"
     stroke-linecap="round"
     stroke-linejoin="round"
     d="m -460.658,1729.04 4.251,-1.23 6.982,0.15 0.954,0.54 1.733,-0.14 2.905,0.3 1.365,0.67 2.046,0.04 1.413,0.66 4.104,0.17 0.77,0.38 18.509,0.2 0.409,0.33 1.095,-0.06 -0.365,0.35"
     id="path260" />
</g>
<g
   id="g261"
   transform="translate(-168.51064,-1417.0212)">
  <path
     fill="none"
     stroke="#304ae0"
     stroke-width="2"
     stroke-linecap="round"
     stroke-linejoin="round"
     d="m -466.672,1725.7 -4.057,0.01 2.769,1.15 4.762,-0.19 1.153,-0.33 7.221,-0.55 6.268,0.09"
     id="path261" />
</g>
<g
   id="g262"
   transform="translate(-168.51064,-1417.0212)">
  <path
     fill="none"
     stroke="#000000"
     stroke-width="2"
     stroke-linecap="round"
     stroke-linejoin="round"
     d="M -290,1582 H 320"
     id="path262" />
</g>
<g
   id="g263"
   transform="translate(-168.51064,-1417.0212)">
  <path
     fill="none"
     stroke="#000000"
     stroke-width="2"
     stroke-linecap="round"
     stroke-linejoin="round"
     d="m -286.929,1662.84 0.193,0.12"
     id="path263" />
</g>
<g
   id="g264"
   transform="translate(-168.51064,-1417.0212)">
  <path
     fill="none"
     stroke="#000000"
     stroke-width="2"
     stroke-linecap="round"
     stroke-linejoin="round"
     d="m -286.208,1658.17 0.196,0.15 h -0.201"
     id="path264" />
</g>
<g
   id="g265"
   transform="translate(-168.51064,-1417.0212)">
  <path
     fill="none"
     stroke="#000000"
     stroke-width="2"
     stroke-linecap="round"
     stroke-linejoin="round"
     d="M -281,1661 H 330"
     id="path265" />
</g>
<g
   id="g266"
   transform="translate(-168.51064,-1417.0212)">
  <path
     fill="none"
     stroke="#000000"
     stroke-width="2"
     stroke-linecap="round"
     stroke-linejoin="round"
     d="m -275.899,1590.12 0.496,-0.01 -0.27,0.29 0.746,5.65 -0.098,17.68 -1.056,6.49 -0.738,9.47 -0.816,4.17 0.155,3.41 -0.523,2.68 0.044,2.76 -0.623,5.08 0.074,4.48 0.397,0.44 2.869,-2.75"
     id="path266" />
</g>
<g
   id="g267"
   transform="translate(-168.51064,-1417.0212)">
  <path
     fill="none"
     stroke="#000000"
     stroke-width="2"
     stroke-linecap="round"
     stroke-linejoin="round"
     d="m -162.655,1587.71 -0.802,2.13 -0.499,2.57 0.254,2.71 -0.334,1.46 0.015,5.24 -0.361,1.82 0.064,5.08 -1.878,13.17 -2.005,9.03 -0.86,7.02 -2.595,11.9 0.123,1.44 0.388,0.45 0.86,-0.27 1.726,-1.24"
     id="path267" />
</g>
<g
   id="g268"
   transform="translate(-168.51064,-1417.0212)">
  <path
     fill="none"
     stroke="#000000"
     stroke-width="2"
     stroke-linecap="round"
     stroke-linejoin="round"
     d="m -57.0145,1582.37 -0.8528,2.24 -1.1774,9.05 0.0705,23.17 -0.369,1.98 0.0789,4.74 -2.0142,14.8 -0.1661,4.41 -0.3243,0.96 0.0464,3.22 -0.3712,0.59 0.088,1.73 -0.3532,0.55 0.0319,1.29 -0.6998,1.84 -0.538,2.5 0.1149,1.34 -0.3648,0.73 0.057,1.01 0.5619,-0.34 3.1349,-4.15"
     id="path268" />
</g>
<g
   id="g269"
   transform="translate(-168.51064,-1417.0212)">
  <path
     fill="none"
     stroke="#000000"
     stroke-width="2"
     stroke-linecap="round"
     stroke-linejoin="round"
     d="m 53.9542,1582.37 0.8632,3.84 0.959,2.19 0.2962,10.39 0.5667,2.1 -0.1038,2.7 5.3399,28.93 -0.4397,17.53"
     id="path269" />
</g>
<g
   id="g270"
   transform="translate(-168.51064,-1417.0212)">
  <path
     fill="none"
     stroke="#000000"
     stroke-width="2"
     stroke-linecap="round"
     stroke-linejoin="round"
     d="m 222.901,1586.54 3.578,9.85 1.595,10.05 -0.118,3.22 -0.964,5.66 -3.549,14.42 -4.923,13.01 -1.245,5.52 0.105,1.03 0.969,-0.97"
     id="path270" />
</g>
<g
   id="g271"
   transform="translate(-168.51064,-1417.0212)">
  <path
     fill="none"
     stroke="#000000"
     stroke-width="2"
     stroke-linecap="round"
     stroke-linejoin="round"
     d="m -18.5129,1606.1 -0.0388,-4.56 0.5673,-0.79 0.0194,-0.92 0.5456,1.93 -0.0069,1 1.0625,3.92 0.7586,10.58 -0.0418,13.81 -0.5586,3.41 0.0697,3.36 -1.1287,6.48 0.1871,2.61 -0.3134,1.77 1.1421,-3.35 0.963,-4.2"
     id="path271" />
</g>
<g
   id="g272"
   transform="translate(-168.51064,-1417.0212)">
  <path
     fill="none"
     stroke="#000000"
     stroke-width="2"
     stroke-linecap="round"
     stroke-linejoin="round"
     d="m 13.2682,1603.74 -3.7071,5.44 -1.73755,1.98 -9.01056,7.51 -3.64581,2.64 -3.06324,1.58 -0.89709,1.15 -0.97309,0.24 1.15436,0.53 0.97876,2 2.61621,3.18 1.08857,3.11 3.9386549,6.86 0.9381101,2.35 4.531615,6.76 1.40326,1.36 1.35681,0.63 0.96155,-0.07 0.83784,-0.63"
     id="path272" />
</g>
<g
   id="g273"
   transform="translate(-168.51064,-1417.0212)">
  <path
     fill="none"
     stroke="#000000"
     stroke-width="2"
     stroke-linecap="round"
     stroke-linejoin="round"
     d="m 103.09,1598.95 1.452,6.83 2.251,17.4 -0.184,8.53 -0.629,6.87 -0.942,4.25 -3.267,6.59 2.9,-7.77"
     id="path273" />
</g>
<g
   id="g274"
   transform="translate(-168.51064,-1417.0212)">
  <path
     fill="none"
     stroke="#000000"
     stroke-width="2"
     stroke-linecap="round"
     stroke-linejoin="round"
     d="m 138.752,1600.5 -2.174,4.72 -3.407,4.74 -7.819,7.73 -8.187,4.54 -3.547,0.28 0.147,1.54 2.632,4.31 4.342,4.97 1.958,3.35 5.517,7.18 2.893,6.08 0.861,0.72 0.865,2.08 0.737,0.89 0.758,0.13 0.61,-1.13 0.547,-2.48"
     id="path274" />
</g>
<g
   id="g275"
   transform="translate(-168.51064,-1417.0212)">
  <path
     fill="none"
     stroke="#000000"
     stroke-width="4"
     stroke-linecap="round"
     stroke-linejoin="round"
     d="m -62.5367,1565.89 -2.2904,2.89 -2.3487,4.95 -1.6532,4.98 0.1395,5.17 -0.5562,1.27 0.1278,12.7 -0.3234,2.54 0.033,8.87 1.0842,3.49 -0.0902,2.59 0.3059,4.47 0.3704,0.87 0.0863,3.76 0.3578,0.49 -0.0638,1.05 0.7589,2.53 0.3954,4.28 0.662,1.72 -0.1197,1.67 0.8673,1.85 -0.1223,5.16 -1.1235,3.1 -0.1763,6 -0.5504,0.69 0.1206,1.16 -0.7192,1.12 0.12,1.06 -0.4745,0.86 0.1198,0.96 -0.0583,-0.22 -1.5165,0.07 -1.9968,1.1 -0.4625,-0.15 2.282,1.11 0.8114,1.58 1.2189,-0.18 2.8649,-1.52 2.42,-0.59 4.5107,0.05 1.4792,-0.55 1.4392,0.14 4.2697,-0.8 14.2882,0.09 1.8043,0.52 2.7547,-0.1 4.1688,0.92 1.6544,-0.07 7.587,2.91 4.8745,0.16 2.676,0.66 4.477,0.4 1.51282,0.48 52.73868,-0.11 3.5835,-0.16 2.6614,-0.53 30.7267,0.13 3.3196,-0.55 5.0868,-0.04 33.1233,0.16 7.901,-0.77 9.592,-0.1 9.535,0.03 3.806,0.34 1.945,0.5 2.864,-0.14 8.058,0.93 41.149,-0.36 1.733,0.5 6.984,0.06 1.596,-3.13 0.099,-2.71 0.384,-0.53 1.025,-4.06 0.094,-1.67 0.791,-2.25 0.046,-3.66 0.531,-1.89 -0.092,-12.92 3.633,-13.86 -0.009,-12.73 -0.162,-2.11 -0.535,-1.08 0.126,-1.81 -0.543,-1.31 -0.108,-1.74 -1.36,-3.65 -0.177,-2.56 -2.027,-5.22 0.086,-0.51 -0.802,-1.41 0.142,-0.71 -0.646,-1.78 -0.245,-2.83 -0.532,-0.87 -1.333,-0.91 -1.428,-1.66 -5.335,-2.56"
     id="path275" />
</g>
<g
   id="g276"
   transform="translate(-168.51064,-1417.0212)">
  <path
     fill="none"
     stroke="#000000"
     stroke-width="4"
     stroke-linecap="round"
     stroke-linejoin="round"
     d="m -71.9546,1570.11 -2.1884,0.56 -2.0383,-0.12 -0.2742,0.31 -0.7753,-0.03 6.1577,1.93 1.326,-0.06 5.8893,1.09 5.0352,0.54 6.0721,-0.16 4.5927,0.38 8.27,-0.26 31.44755,-2.9 3.27607,0.08 4.689571,-0.44 15.684409,-0.23 12.1286,-0.61 48.5222,-0.06 4.7825,-0.55 19.5859,-0.8 9.352,-0.92 3.11,0.07 9.741,-0.92 5.993,-0.19 14.991,0.07 2.216,0.35 3.386,-0.03 4.309,0.65 6.746,-0.18 2.722,0.41 9.882,-0.08 5.344,0.61 3.866,-0.05 2.498,0.71 1.618,-0.09 2.316,0.62 10.473,-0.11 1.751,-0.55 2.881,-0.06 2.335,-0.65 11.983,-0.3"
     id="path276" />
</g>
<g
   id="g277"
   transform="translate(-168.51064,-1417.0212)">
  <path
     fill="none"
     stroke="#000000"
     stroke-width="2"
     stroke-linecap="round"
     stroke-linejoin="round"
     d="m -529.283,1928.56 0.364,-0.15 -3.195,-0.67 -1.064,-0.56 -1.899,0.22 -2.436,1 -7.456,7.11 -1.735,2.67 -2.726,8.03 -0.581,0.97 -0.284,1.18 0.117,3.25 -0.372,0.65 0.081,2.31 0.203,1.21 0.974,1.53 0.529,2.16 2.481,4.63 0.724,2.28 3.125,5.27 1.795,0.82 6.054,0.08 7.301,-3.46 1.882,-0.32"
     id="path277" />
</g>
<g
   id="g278"
   transform="translate(-168.51064,-1417.0212)">
  <path
     fill="none"
     stroke="#000000"
     stroke-width="2"
     stroke-linecap="round"
     stroke-linejoin="round"
     d="m -506.959,1949.85 -2.357,3.85 -1.153,4.6 0.066,1.18 -0.47,2.04 0.102,3.07 -0.342,1.36 0.057,3.29 -0.558,1.71 0.137,3.08 -0.383,0.79 0.126,1.41 1.122,-3.85"
     id="path278" />
</g>
<g
   id="g279"
   transform="translate(-168.51064,-1417.0212)">
  <path
     fill="none"
     stroke="#000000"
     stroke-width="2"
     stroke-linecap="round"
     stroke-linejoin="round"
     d="m -513.758,1927.62 -0.075,1.01 0.574,2.19 0.013,2.65 1.208,2.31"
     id="path279" />
</g>
<g
   id="g280"
   transform="translate(-168.51064,-1417.0212)">
  <path
     fill="none"
     stroke="#000000"
     stroke-width="2"
     stroke-linecap="round"
     stroke-linejoin="round"
     d="m -484.5,1922.7 -1.156,3.04 -1.032,5.68 0.114,2.43 -0.694,5.07 0.108,4.32 -0.521,2.99 0.074,4.62 -0.704,5.06 0.163,18.34"
     id="path280" />
</g>
<g
   id="g281"
   transform="translate(-168.51064,-1417.0212)">
  <path
     fill="none"
     stroke="#000000"
     stroke-width="2"
     stroke-linecap="round"
     stroke-linejoin="round"
     d="m -497.241,1947.04 5.72,-1.79 5.579,1.44 7.794,1.22"
     id="path281" />
</g>
<g
   id="g282"
   transform="translate(-168.51064,-1417.0212)">
  <path
     fill="none"
     stroke="#000000"
     stroke-width="2"
     stroke-linecap="round"
     stroke-linejoin="round"
     d="m -368.699,1936.74 -0.539,2.23"
     id="path282" />
</g>
<g
   id="g283"
   transform="translate(-168.51064,-1417.0212)">
  <path
     fill="none"
     stroke="#000000"
     stroke-width="2"
     stroke-linecap="round"
     stroke-linejoin="round"
     d="m -263.074,1937.59 -0.007,0.49"
     id="path283" />
</g>
<g
   id="g284"
   transform="translate(-168.51064,-1417.0212)">
  <path
     fill="none"
     stroke="#000000"
     stroke-width="2"
     stroke-linecap="round"
     stroke-linejoin="round"
     d="m -569.136,1906.19 -1.875,5.62 -0.342,10.65 1.21,6.13 0.423,8.44 0.693,3.01 -10e-4,36.8 -0.372,2.52 0.095,6.49 -0.374,2.68 0.075,14.44 0.368,1.98 0.951,2.49 -0.083,0.7 0.785,1.26 0.078,1.4 0.223,0.61"
     id="path284" />
</g>
<g
   id="g285"
   transform="translate(-168.51064,-1417.0212)">
  <path
     fill="none"
     stroke="#000000"
     stroke-width="2"
     stroke-linecap="round"
     stroke-linejoin="round"
     d="m -566.154,1907.41 3.221,-2.03 4.449,-0.78 1.882,0.07 4.74,1.06 6.169,0.73 10.102,-0.1 4.122,-0.7 3.993,0.13 2.033,-0.31 15.819,0.04 2.726,0.38 16.536,-0.09 22.405,-3.1 8.785,0.16 24.075,3.78 5.626,0.51 13.286,-0.08 3.035,0.54 3.062,-0.06 12.928,1.62 24.877,-0.14 2.316,0.36 14.08,-0.07 3.025,0.54 3.051,-0.06 7.541,1.23 5.971,-0.04 1.409,0.36 25.238,-0.06 4.967,-0.72 4.01,0.09 6.356,-0.59 30.558,0.09 30.218,-3.38 35.695,0.14 31.9,-3.94 2.038,0.08 3.056,-0.44 5.055,0.1 4.073,-0.72 4.307,0.15 17.567,-2.07 24.183,-0.05 7.4466,1.15 h 4.7843 l 4.9537,0.65 31.9782,-0.12 5.7496,-0.88"
     id="path285" />
</g>
<g
   id="g286"
   transform="translate(-168.51064,-1417.0212)">
  <path
     fill="none"
     stroke="#000000"
     stroke-width="2"
     stroke-linecap="round"
     stroke-linejoin="round"
     d="m -567,2009 h 85.919"
     id="path286" />
</g>
<g
   id="g287"
   transform="translate(-168.51064,-1417.0212)">
  <path
     fill="none"
     stroke="#000000"
     stroke-width="2"
     stroke-linecap="round"
     stroke-linejoin="round"
     d="M -421.289,2009 H -56"
     id="path287" />
</g>
<g
   id="g288"
   transform="translate(-168.51064,-1417.0212)">
  <path
     fill="none"
     stroke="#000000"
     stroke-width="2"
     stroke-linecap="round"
     stroke-linejoin="round"
     d="m -487.911,2005.22 0.923,-0.52 3.11,-0.79 2.466,-1.22 3.668,0.13 1.462,0.64 6.791,-0.07 0.431,-0.38 2.057,-0.07 3.06,0.02 1.053,0.52 11.835,-0.38 2.273,1.05 3.252,0.66 3.297,1.21 3.601,0.64 4.659,-0.03 3.434,1.57 4.833,-0.02 1.703,-0.15 0.735,-0.36 4.693,0.21"
     id="path288" />
</g>
<g
   id="g289"
   transform="translate(-168.51064,-1417.0212)">
  <path
     fill="none"
     stroke="#000000"
     stroke-width="2"
     stroke-linecap="round"
     stroke-linejoin="round"
     d="m -471.31,1957.41 1.935,2.58 2.597,2.19 0.873,1.76 0.926,1.07 1.292,0.54 1.504,-0.06 5.315,-3.07 9.637,-9.83 -1.293,0.63 -1.878,1.93 -2.411,4.72 -0.055,1.4 -1.828,5.24 -2.759,10.13 -1.488,1.65 -2.588,3.93 0.038,1.73 -0.945,3.27 0.07,1.09 0.905,-0.15"
     id="path289" />
</g>
<g
   id="g290"
   transform="translate(-168.51064,-1417.0212)">
  <path
     fill="none"
     stroke="#000000"
     stroke-width="2"
     stroke-linecap="round"
     stroke-linejoin="round"
     d="m -410.633,1957.47 -1.666,3.92 -0.315,1.84 0.302,1.94 -0.36,0.75 -0.008,1.79 -0.357,0.56 -0.101,2.44 1.286,-2.06 1.74,-1.85 0.932,-1.96 0.398,-2.01 0.61,-0.34 1.035,-1.87 3.4,-2.17 1.916,-0.73 0.585,0.41 2.029,5.43 -0.263,10.1 2.561,-2.99 0.308,-1.37 1.446,-3.11 0.872,-3.34 1.035,-1.17 1.137,-0.46 1.741,-0.06 0.277,0.34 2.212,4.88 -0.214,1.64 0.248,9.77"
     id="path290" />
</g>
<g
   id="g291"
   transform="translate(-168.51064,-1417.0212)">
  <path
     fill="none"
     stroke="#000000"
     stroke-width="2"
     stroke-linecap="round"
     stroke-linejoin="round"
     d="m -372.533,1958.62 -0.086,-0.02"
     id="path291" />
</g>
<g
   id="g292"
   transform="translate(-168.51064,-1417.0212)">
  <path
     fill="none"
     stroke="#000000"
     stroke-width="2"
     stroke-linecap="round"
     stroke-linejoin="round"
     d="m -374.308,1956.66 -0.213,-0.03 -0.455,2.11 -2.636,14.25 -1.013,3.36 -0.723,1.18 0.214,0.68 0.533,-1.74"
     id="path292" />
</g>
<g
   id="g293"
   transform="translate(-168.51064,-1417.0212)">
  <path
     fill="none"
     stroke="#000000"
     stroke-width="2"
     stroke-linecap="round"
     stroke-linejoin="round"
     d="m -377.409,1929.99 -0.05,4.97 0.39,0.89 0.237,2.57 1.264,2.15"
     id="path293" />
</g>
<g
   id="g294"
   transform="translate(-168.51064,-1417.0212)">
  <path
     fill="none"
     stroke="#000000"
     stroke-width="2"
     stroke-linecap="round"
     stroke-linejoin="round"
     d="m -368.729,1959.19 1.849,6.59 -0.151,3.63 3.327,-3.07 2.34,-3.8 2.893,-1.17 0.526,0.23 0.604,1.78 2.619,4.94 -0.009,1.69 1.208,1.97 0.582,0.29 1.401,-0.57"
     id="path294" />
</g>
<g
   id="g295"
   transform="translate(-168.51064,-1417.0212)">
  <path
     fill="none"
     stroke="#000000"
     stroke-width="2"
     stroke-linecap="round"
     stroke-linejoin="round"
     d="m -336.244,1956.35 1.674,8.24 2.029,7.53 0.149,3.06 0.467,2.1 2.462,-2.75 0.201,-0.91 1.951,-3.17 3.203,-6.98 1.747,-2.34 1.764,-1.74 2.37,-1.12 0.894,0.26 1.031,3.29 -0.17,7.32 0.992,-0.14 1.531,-1.76 1.962,-4.93 1.614,-2.52 3.26,-2.45 -0.132,1.2 0.614,1.33 -0.145,3.87 -0.353,0.77 0.096,2.53 -1.213,2.97 0.163,1.07 0.934,1.57"
     id="path295" />
</g>
<g
   id="g296"
   transform="translate(-168.51064,-1417.0212)">
  <path
     fill="none"
     stroke="#000000"
     stroke-width="2"
     stroke-linecap="round"
     stroke-linejoin="round"
     d="m -283.385,1958.88 -2.896,-0.73 -4.977,0.03 -2.38,1.2 -2.15,4.07 -0.623,2.43 -0.206,6.24 0.378,0.98 1.241,-0.36 2.15,-2.22 2.015,-3.05 1.167,-2.39 0.42,-1.91 0.967,-1.56 -0.135,0.29 1.672,4.61 0.692,2.95 -0.009,3.47 0.763,1.77 0.074,1.37 1.644,3.21 0.608,0.32 0.715,-0.13"
     id="path296" />
</g>
<g
   id="g297"
   transform="translate(-168.51064,-1417.0212)">
  <path
     fill="none"
     stroke="#000000"
     stroke-width="2"
     stroke-linecap="round"
     stroke-linejoin="round"
     d="m -268.73,1952.52 0.076,8.51 0.196,2.64 0.705,2.7 0.055,2.05 1.798,5.63 1.158,2.13 1.801,1.94 1.538,0.66"
     id="path297" />
</g>
<g
   id="g298"
   transform="translate(-168.51064,-1417.0212)">
  <path
     fill="none"
     stroke="#000000"
     stroke-width="2"
     stroke-linecap="round"
     stroke-linejoin="round"
     d="m -272.504,1982.69 2.424,-3.99 2.19,-4.56 1.212,-1.67 4.418,-8.62 5.244,-6.75 0.83,-0.42 0.985,-1.12 0.645,-0.02"
     id="path298" />
</g>
<g
   id="g299"
   transform="translate(-168.51064,-1417.0212)">
  <path
     fill="none"
     stroke="#000000"
     stroke-width="2"
     stroke-linecap="round"
     stroke-linejoin="round"
     d="m -220.92,1955.62 -3.023,-0.85 -2.554,0.24 -1.312,1.01 -1.076,1.71 -1.049,0.93 -1.614,4.21 0.184,3.28 -0.415,1.73 0.08,11.98 1.908,3.6 1.312,0.45 1.53,-0.13 2.332,-0.92"
     id="path299" />
</g>
<g
   id="g300"
   transform="translate(-168.51064,-1417.0212)">
  <path
     fill="none"
     stroke="#000000"
     stroke-width="2"
     stroke-linecap="round"
     stroke-linejoin="round"
     d="m -205.567,1967.06 -0.059,-4.57 -0.098,0.33 -3.113,-1.54 -0.229,1.26 -3.36,3.72 -1.449,3.06 0.191,1.67 -0.405,0.85 0.078,2.82 2.525,3.21 1.651,0.77 1.889,-0.49 1.464,-4.09 2.467,-4.72 -0.144,-2.42 -1.348,-3.33 -0.234,-0.51 0.073,0.37 -1.33,-0.69"
     id="path300" />
</g>
<g
   id="g301"
   transform="translate(-168.51064,-1417.0212)">
  <path
     fill="none"
     stroke="#000000"
     stroke-width="2"
     stroke-linecap="round"
     stroke-linejoin="round"
     d="m -197.312,1960.97 0.107,9.09 1.601,5 0.7,1.22 0.046,0.86 0.372,0.45 0.974,0.19 0.929,-0.5 3.551,-9.21 -0.066,11.34 1.353,-1"
     id="path301" />
</g>
<g
   id="g302"
   transform="translate(-168.51064,-1417.0212)">
  <path
     fill="none"
     stroke="#000000"
     stroke-width="2"
     stroke-linecap="round"
     stroke-linejoin="round"
     d="m -178.046,1965.5 -0.038,8.86 2.23,-1 4,-4.62 3.113,-1.28 0.336,0.21 0.23,1.18 0.984,1.76 1.128,3.51 0.015,3.09 0.7,1.8 1.524,-1.84 1.141,-3.18 1.549,-2.84"
     id="path302" />
</g>
<g
   id="g303"
   transform="translate(-168.51064,-1417.0212)">
  <path
     fill="none"
     stroke="#000000"
     stroke-width="2"
     stroke-linecap="round"
     stroke-linejoin="round"
     d="m -142.632,1924.89 -1.031,2.58 -0.792,4.52 0.128,10.85 -1.004,6.45 -0.133,8.24 -1.07,7.04 0.203,3.17 -0.335,1.24 0.041,3.57 -0.353,0.52 0.02,1.29 -0.337,0.69 -0.072,-0.25 -1.044,-0.07 -2.433,-1.22 -4.338,-4.33 -0.783,-1.62 2.587,-1.38 2.395,0.04 2.134,-0.71 3.719,-1.99 5.012,-1.5"
     id="path303" />
</g>
<g
   id="g304"
   transform="translate(-168.51064,-1417.0212)">
  <path
     fill="none"
     stroke="#000000"
     stroke-width="2"
     stroke-linecap="round"
     stroke-linejoin="round"
     d="m -96.9139,1935.3 -0.874,1.21 -2.2092,4.89 -1.7289,9.88 0.17,21.99"
     id="path304" />
</g>
<g
   id="g305"
   transform="translate(-168.51064,-1417.0212)">
  <path
     fill="none"
     stroke="#000000"
     stroke-width="2"
     stroke-linecap="round"
     stroke-linejoin="round"
     d="m -116.559,1957.2 3.258,-2.36 3.874,-1.66 7.136,-1.61 5.6252,0.15 3.32,1.28 2.1964,1.55"
     id="path305" />
</g>
<g
   id="g306"
   transform="translate(-168.51064,-1417.0212)">
  <path
     fill="none"
     stroke="#000000"
     stroke-width="2"
     stroke-linecap="round"
     stroke-linejoin="round"
     d="m -81.7055,1957.77 -2.3872,0.89 -1.4373,1 -1.0559,1.2 -0.9488,3.76 0.3602,5 1.6953,4.72 3.8596,2.99 1.1966,0.32 1.0795,-0.2 2.7024,-1.38 2.1527,-2.32 1.2962,-1.93 2.6175,-6.13 0.7324,-2.55 0.9765,-4.89 -0.0813,-1.7 -0.9754,-2.17 -1.8409,-1.64 -2.2642,-1 -1.4487,-0.45 -0.8086,0.12 -1.3471,0.94 -1.5614,0.53"
     id="path306" />
</g>
<g
   id="g307"
   transform="translate(-168.51064,-1417.0212)">
  <path
     fill="none"
     stroke="#000000"
     stroke-width="2"
     stroke-linecap="round"
     stroke-linejoin="round"
     d="m -56.2921,1923.94 -1.9643,2.97 -1.304,2.76 -0.1596,1.4 0.2542,3.28 -0.093,11.33 -0.9792,11.71 0.1108,18.15 0.2454,0.39 0.5063,-1.56 -0.1636,-2.18 -1.0787,-4.92 -2.4237,-5.94 -1.762,-3.09 4.1595,-1.48 4.169,0.37 3.3631,0.81 1.6361,0.89"
     id="path307" />
</g>
<g
   id="g308"
   transform="translate(-168.51064,-1417.0212)">
  <path
     fill="none"
     stroke="#000000"
     stroke-width="2"
     stroke-linecap="round"
     stroke-linejoin="round"
     d="m -32.1292,1961.28 -5.6401,0.01 -2.3627,1.29 -2.0185,3.61 -1.2882,5.11 0.1391,6.17 1.4331,2.75 1.0084,0.53 2.885,-0.94 0.9041,-0.63 3.0006,-3.51 1.5605,-3.78 1.4972,-6.37 -0.5771,-1.52 -1.4248,1.23 -0.6054,2.03 0.1403,6.12 1.1841,4.94 1.1431,3.14 2.2173,1.55 1.4908,-0.41 2.2625,-2.06 2.2782,-3.54 1.1912,-2.48"
     id="path308" />
</g>
<g
   id="g309"
   transform="translate(-168.51064,-1417.0212)">
  <path
     fill="none"
     stroke="#000000"
     stroke-width="2"
     stroke-linecap="round"
     stroke-linejoin="round"
     d="m -6.29065,1932.5 -2.17102,3.19 -2.35593,4.96 -0.3372,2.09 -0.1535,31.78 0.6489,4.16 1.27134,1.8 1.00183,-0.02 0.62701,-0.45 2.24506,-2.11 0.65057,-1.33"
     id="path309" />
</g>
<g
   id="g310"
   transform="translate(-168.51064,-1417.0212)">
  <path
     fill="none"
     stroke="#000000"
     stroke-width="2"
     stroke-linecap="round"
     stroke-linejoin="round"
     d="m -65.3228,1900.72 6.2717,-4.44 5.2882,-1.6 1.7121,0.16 2.6344,0.85 7.4137,0.11 11.6466,-2.51 11.3722,-0.15 2.3266,-0.18 2.3066,-0.68 1.7117,0.1 2.5376,-0.47 7.32839,0.1 8.99634,2.95 1.70202,0.83 5.18325,0.17 3.5274,1.57 0.5691,1.52 -0.1077,18.57 0.9125,3.68 -0.0805,1.39 0.4334,2.3 0.0374,19.22 -0.7122,4.12 0.1023,1.74 -0.6778,2.69 -0.0191,31.76 -0.1311,3.22 -0.9328,5.74 0.064,2.97 1.4456,-2.49"
     id="path310" />
</g>
<g
   id="g311"
   transform="translate(-168.51064,-1417.0212)">
  <path
     fill="none"
     stroke="#000000"
     stroke-width="2"
     stroke-linecap="round"
     stroke-linejoin="round"
     d="m -69.7635,2014.08 3.2551,-2.34 1.7163,-0.71 2.1584,-0.24 5.2436,-1.36 10.0438,0.92 6.3812,-0.08 19.2054,-3.64 6.8249,-1.69 8.35942,0.13 0.8039,0.38 3.76721,-0.11 2.719724,-1 1.258056,-0.03 5.04083,-1.91 H 17.9695"
     id="path311" />
</g>
<g
   id="g312"
   transform="translate(-168.51064,-1417.0212)">
  <path
     fill="none"
     stroke="#000000"
     stroke-width="2"
     stroke-linecap="round"
     stroke-linejoin="round"
     d="m -505.021,1659.52 0.128,0.27 5.937,-2.07 6.87,-1.43 1.117,0.12 4.369,1.86"
     id="path312" />
</g>
<g
   id="g313"
   transform="translate(-168.51064,-1417.0212)">
  <path
     fill="none"
     stroke="#000000"
     stroke-width="2"
     stroke-linecap="round"
     stroke-linejoin="round"
     d="m -482.173,1631.07 -0.06,25.75 -0.708,3.87 0.17,2.02"
     id="path313" />
</g>
<g
   id="g314"
   transform="translate(-168.51064,-1417.0212)">
  <path
     fill="none"
     stroke="#000000"
     stroke-width="2"
     stroke-linecap="round"
     stroke-linejoin="round"
     d="m -501.144,1656.29 4.444,0.01 8.689,2.67 4.208,0.84 5.636,0.51 22.659,-0.08 1.309,0.36 2.918,-0.06 4.99,0.94 4.176,0.21 1.152,0.32 1.731,1.03 1.194,-0.08 2.739,-1.15 1.896,-0.12 6.444,-1.67 8.047,-1.16 10.693,-0.03 1.314,-0.63 0.677,0.02 2.668,-1.37 4.928,-0.27"
     id="path314" />
</g>
<metadata
   id="metadata314">
  <rdf:RDF>
    <cc:Work
       rdf:about="">
      <dc:title>Brc hashmap</dc:title>
    </cc:Work>
  </rdf:RDF>
</metadata>
<text
   xml:space="preserve"
   style="font-size:113.644px;line-height:125%;font-family:Sans;-inkscape-font-specification:'Sans, Normal';text-align:center;letter-spacing:0px;word-spacing:0px;text-anchor:middle;fill:none;stroke:#000000;stroke-width:1px;stroke-linecap:butt;stroke-linejoin:miter;stroke-opacity:1"
   x="445.04828"
   y="71.020805"
   id="text103"><tspan
     sodipodi:role="line"
     id="tspan103"
     x="445.04828"
     y="71.020805"
     style="font-style:normal;font-variant:normal;font-weight:normal;font-stretch:normal;font-size:53.3333px;font-family:Sans;-inkscape-font-specification:'Sans, Normal';font-variant-ligatures:normal;font-variant-caps:normal;font-variant-numeric:normal;font-variant-east-asian:normal;fill:#000000;fill-opacity:1">OpenSet</tspan><tspan
     sodipodi:role="line"
     x="445.04828"
     y="228.74245"
     style="font-style:normal;font-variant:normal;font-weight:normal;font-stretch:normal;font-size:53.3333px;font-family:Sans;-inkscape-font-specification:'Sans, Normal';font-variant-ligatures:normal;font-variant-caps:normal;font-variant-numeric:normal;font-variant-east-asian:normal;fill:#000000;fill-opacity:1"
     id="tspan315" /></text>
<path
   style="fill:none;fill-rule:evenodd;stroke:#000000;stroke-width:2.6;stroke-linecap:butt;stroke-linejoin:miter;stroke-opacity:1;stroke-dasharray:none"
   d="m -713.61702,51.06383 c 3.51773,6.449169 3.42411,4.876605 4.46808,9.574468 0.23535,1.059063 0.51849,2.113227 0.6383,3.191489 0.094,0.845859 0,1.702128 0,2.553192 0,1.702127 0,3.404255 0,5.106383 0,1.06383 0,2.127659 0,3.191489 0,0.851064 0.094,1.707333 0,2.553192 -0.11981,1.078262 -0.53034,2.111975 -0.6383,3.191489 -0.10585,1.05855 0,2.12766 0,3.191489 0,1.489362 0,2.978724 0,4.468085 0,1.06383 0.11748,2.134167 0,3.19149 -0.0969,0.871891 -0.51423,1.684752 -0.63829,2.553191 -0.0903,0.631883 0,1.276596 0,1.914894 0,2.340425 0,4.680849 0,7.021279 0,5.53191 0,11.06383 0,16.59574 0,2.12766 0,4.25532 0,6.38298 0,1.06383 -0.1749,2.14214 0,3.19149 0.73345,4.4007 0.63829,-0.5112 0.63829,1.91489"
   id="path318" />
<path
   style="fill:none;fill-rule:evenodd;stroke:#000000;stroke-width:2.6;stroke-linecap:butt;stroke-linejoin:miter;stroke-opacity:1;stroke-dasharray:none"
   d="m -676.59574,57.446809 c -1.29117,2.859167 -3.50321,4.987613 -5.10639,7.659574 -0.34616,0.576943 -0.42553,1.276596 -0.6383,1.914894 -0.63829,1.276595 -1.14862,2.625648 -1.91489,3.829787 -1.99308,3.13199 -5.23649,5.654505 -7.65957,8.297872 -2.27597,3.034626 -1.16266,1.80095 -3.19149,3.829787 -0.21277,0.212766 -0.36917,0.503733 -0.6383,0.638298 -0.1903,0.09515 -0.46127,-0.118021 -0.6383,0 -0.50072,0.333815 -0.85106,0.851064 -1.27659,1.276596 -0.6383,0.425532 -1.25708,0.881906 -1.9149,1.276596 -0.40796,0.244776 -0.82525,0.487849 -1.27659,0.638298 -0.20185,0.06728 -0.48785,-0.150449 -0.6383,0 -0.15045,0.150448 0.17703,0.520276 0,0.638298 -0.55983,0.373216 -1.2766,0.425532 -1.9149,0.638297 -0.63829,0.638298 -1.21001,1.350988 -1.91489,1.914894 -0.3715,0.297204 -1.06383,0.212766 -1.27659,0.638298 -0.13457,0.26913 0.42553,0.425532 0.63829,0.638298 0.21277,0.212766 0.42554,0.425532 0.6383,0.638298 1.70213,1.702127 3.49607,3.317146 5.10638,5.106383 0.71167,0.790738 1.25033,1.72248 1.9149,2.553191 1.03809,1.297612 2.1534,2.532172 3.19149,3.829792 0.66457,0.83071 1.22256,1.74547 1.91489,2.55319 0.58746,0.68537 1.32743,1.22952 1.91489,1.91489 0.69234,0.80772 1.2766,1.70213 1.9149,2.55319 0.6383,0.85107 1.32479,1.66803 1.91489,2.55319 0.68818,1.03227 1.22672,2.15923 1.9149,3.19149 0.5901,0.88516 1.38708,1.62953 1.91489,2.55319 0.33381,0.58418 0.3374,1.3131 0.6383,1.9149 2.31883,4.63767 0.17841,-0.37068 2.55319,3.19149 0.52781,0.79171 0.85106,1.70213 1.27659,2.55319"
   id="path319" />
<path
   style="fill:none;fill-rule:evenodd;stroke:#000000;stroke-width:2.6;stroke-linecap:butt;stroke-linejoin:miter;stroke-opacity:1;stroke-dasharray:none"
   d="m -649.14894,93.191489 c -3.25569,-3.093651 -2.85102,-1.473399 -6.38297,-1.914893 -6.10783,-0.763479 -0.75902,-0.638298 -5.10639,-0.638298 -0.42553,0 -0.85106,0 -1.27659,0 -0.21277,0 -0.48785,-0.150448 -0.6383,0 -0.15045,0.150448 0.15045,0.48785 0,0.638298 -0.85107,0.851064 -0.61249,-1.354034 -1.2766,0.638298 -0.13456,0.403695 0.07,0.856853 0,1.276595 -0.6899,4.139408 -0.63829,1.341284 -0.63829,3.19149 0,0.212766 -0.10947,0.455852 0,0.638298 0.54733,0.912226 1.32478,1.668031 1.91489,2.553191 0.38872,0.583082 0.54484,1.549012 1.27659,1.914892 0.19031,0.0951 0.42967,-0.0417 0.6383,0 4.48157,0.89632 0.589,0.6383 5.74468,0.6383 7.32957,0 -0.52952,0.25802 5.74468,-0.6383 6.3525,-0.9075 -1.609,0.96187 3.19149,-0.6383 0.20185,-0.0673 0.48785,0.15045 0.6383,0 0.15045,-0.15044 -0.17703,-0.52027 0,-0.63829 0.55983,-0.37322 1.2766,-0.425536 1.91489,-0.638302 1.2766,-0.425532 2.58039,-0.776834 3.82979,-1.276596 1.51238,-0.604951 1.32279,-0.68449 2.55319,-1.914893 0.21277,-0.212766 0.38794,-0.471391 0.6383,-0.638298 0.39586,-0.263904 0.94018,-0.301885 1.2766,-0.638298 0.0229,-0.0229 1.21027,-2.442651 1.27659,-2.553191 0.39469,-0.657816 0.93352,-1.228744 1.2766,-1.914894 0.0951,-0.190304 0,-0.425532 0,-0.638298 0,-0.212766 0.0951,-0.447994 0,-0.638298 -0.13457,-0.26913 -0.45776,-0.39758 -0.6383,-0.638298 -0.46028,-0.613711 -0.81631,-1.301182 -1.27659,-1.914893 -0.15574,-0.207652 -1.74479,-1.85819 -1.9149,-1.914894 -0.40369,-0.134565 -0.85106,0 -1.27659,0 -0.21277,0 -0.42641,-0.01926 -0.6383,0 -2.12949,0.19359 -4.26122,0.373078 -6.38298,0.638298 -1.28421,0.160526 -2.5664,0.357545 -3.82979,0.638298 -0.6568,0.145956 -1.26216,0.475114 -1.91489,0.638298 -0.20642,0.0516 -0.48785,-0.150449 -0.6383,0 -0.15045,0.150448 0.0673,0.43645 0,0.638298 -0.15045,0.451344 -0.30188,0.940183 -0.6383,1.276595 -0.77025,0.77025 -2.18412,1.41121 -3.19149,1.914894 -0.42553,0.212766 -0.94018,0.301885 -1.27659,0.638298 -0.9414,0.941402 -1.65532,2.531929 -1.9149,3.829787 -0.1669,0.834537 0,1.702128 0,2.553192 0,2.064631 -0.20641,3.135385 0.6383,5.106385 0.30219,0.70511 0.99169,1.20262 1.2766,1.91489 0.15804,0.3951 -0.10321,0.86377 0,1.2766 0.11539,0.46155 0.52291,0.81504 0.6383,1.27659 0.1032,0.41283 -0.13457,0.8729 0,1.2766 0.0952,0.28545 0.50373,0.36917 0.63829,0.6383 0.0951,0.1903 -0.0516,0.43188 0,0.63829 0.16319,0.65274 0.37326,1.29647 0.6383,1.9149 0.37482,0.87458 0.90178,1.67861 1.2766,2.55319 0.71185,1.66099 0.89438,3.57562 1.91489,5.10638 0.16691,0.25036 0.42553,0.42553 0.6383,0.6383 0.6383,0.6383 1.27659,1.2766 1.91489,1.91489 0.42553,0.42554 0.73834,1.00747 1.2766,1.2766 0.78464,0.39232 1.72095,0.36088 2.55319,0.6383 3.63664,1.21221 -2.40218,1.01836 5.74468,0 0.21112,-0.0264 0.48785,0.15045 0.6383,0 0.15045,-0.15045 -0.20185,-0.57102 0,-0.6383 0.60554,-0.20185 1.28301,0.0903 1.91489,0 4.82931,-0.6899 1.17396,-0.6383 3.19149,-0.6383"
   id="path320" />
<path
   style="fill:none;fill-rule:evenodd;stroke:#000000;stroke-width:2.6;stroke-linecap:butt;stroke-linejoin:miter;stroke-opacity:1;stroke-dasharray:none"
   d="m -610.85106,89.361702 c 0.12084,2.475733 3.52613,2.584175 4.46808,4.468085 0.19031,0.380608 -0.16762,0.885471 0,1.276596 0.48871,1.140317 1.45414,2.039595 1.9149,3.191489 0.40292,1.007303 0.29522,2.162268 0.63829,3.191488 0.3009,0.90269 0.85107,1.70213 1.2766,2.55319 0.84898,1.69797 1.18825,2.28816 1.91489,4.46809 0.21277,0.85106 0.42553,1.70213 0.6383,2.55319 0.21277,0.42553 0.48785,0.82525 0.6383,1.2766 0.0673,0.20184 -0.15045,0.48785 0,0.63829 0.15045,0.15045 0.48785,-0.15044 0.6383,0 0.15044,0.15045 -0.15045,0.48785 0,0.6383 0.15044,0.15045 0.48785,-0.15045 0.63829,0 0.15045,0.15045 -0.15044,0.48785 0,0.6383 0.15045,0.15045 0.42554,0 0.6383,0 0.21277,0.21277 0.47139,0.38794 0.6383,0.6383 0.38872,0.58307 0.54484,1.54901 1.2766,1.91489 0.1903,0.0952 0.48784,-0.15045 0.63829,0 0.3009,0.3009 -0.1903,0.89599 0,1.2766 0.13457,0.26913 0.50374,0.36916 0.6383,0.63829 0.0952,0.19031 -0.21276,0.6383 0,0.6383 0.21277,0 -0.13062,-0.47035 0,-0.6383 1.38857,-1.7853 2.97392,-3.40846 4.46809,-5.10638 3.18669,-3.62124 6.50232,-7.13215 9.57446,-10.85106 0.97716,-1.18287 1.70213,-2.55319 2.5532,-3.82979 1.33241,-1.998617 3.06081,-4.076044 3.82978,-6.382978 0.13457,-0.403695 0,-0.851064 0,-1.276596 0,-0.212766 -0.0951,-0.447994 0,-0.638298 0.13457,-0.26913 0.50374,-0.369168 0.6383,-0.638298 0.0951,-0.190304 0,-0.425532 0,-0.638298 0,-0.212766 0.15045,-0.487849 0,-0.638298 -0.15045,-0.150448 -0.48785,-0.150448 -0.6383,0 -0.15045,0.150449 0.0747,0.439079 0,0.638298 -0.56895,1.517207 -1.08121,3.078623 -1.91489,4.468085 -0.46443,0.77405 -1.39022,1.180345 -1.91489,1.914894 -0.55306,0.774282 -0.82096,1.717858 -1.2766,2.553191 -0.82141,1.50592 -1.84336,2.906468 -2.55319,4.468088 -0.36301,0.79862 -0.24598,1.76855 -0.6383,2.55319 -0.47576,0.95152 -1.38709,1.62953 -1.91489,2.55319 -0.33382,0.58418 -0.30449,1.33072 -0.6383,1.91489 -0.52781,0.92367 -1.2766,1.70213 -1.91489,2.5532 -0.6383,0.85106 -1.22257,1.74547 -1.9149,2.55319 -0.58746,0.68537 -1.27659,1.27659 -1.91489,1.91489 -0.42553,0.42553 -0.79516,0.91552 -1.2766,1.2766 -0.3806,0.28545 -1.01269,0.24244 -1.27659,0.63829 -0.63557,0.95335 -0.70813,2.19668 -1.2766,3.19149 -0.29857,0.52251 -0.91552,0.79517 -1.27659,1.2766 -0.73951,0.986 -1.20629,2.76687 -1.9149,3.82979 -0.16691,0.25036 -0.50373,0.36916 -0.6383,0.63829 -0.0952,0.19031 0.0952,0.448 0,0.6383 -0.13456,0.26913 -0.45776,0.39758 -0.63829,0.6383 -0.46029,0.61371 -0.88191,1.25708 -1.2766,1.91489 -0.24478,0.40796 -0.35284,0.89599 -0.6383,1.2766 -0.36107,0.48143 -0.91552,0.79516 -1.27659,1.2766 -0.28546,0.3806 -0.48785,0.82525 -0.6383,1.27659 -0.0673,0.20185 0.15045,0.48785 0,0.6383 -0.85107,0.85106 -0.61249,-1.35404 -1.2766,0.6383 -0.13456,0.40369 0.21894,0.9117 0,1.27659 -0.46443,0.77405 -1.27659,1.2766 -1.91489,1.9149 -0.85106,0.85106 -1.78268,1.62857 -2.55319,2.55319 -0.30458,0.36549 -0.30189,0.94018 -0.6383,1.27659 -0.15045,0.15045 -0.48785,-0.15044 -0.6383,0 -0.30089,0.3009 0.19031,0.89599 0,1.2766 -0.26913,0.53826 -0.94278,0.77587 -1.27659,1.2766 -0.26391,0.39585 -0.39353,0.86863 -0.6383,1.27659 -1.08263,1.80438 -0.8757,1.51399 -1.9149,2.55319"
   id="path321" />
</svg>
